<svg xmlns="http://www.w3.org/2000/svg" xmlns:xlink="http://www.w3.org/1999/xlink" id="图层_1" width="16.854" height="16.855" enable-background="new 0 0 16.854 16.855" overflow="visible" version="1.1" viewBox="0 0 16.854 16.855" xml:space="preserve"><g><radialGradient id="XMLID_4_" cx="7.735" cy="8.794" r="6.221" gradientTransform="matrix(0.7071 -0.7071 0.7071 0.7071 -3.2619 7.6792)" gradientUnits="userSpaceOnUse"><stop offset="0" style="stop-color:#c5d4e1"/><stop offset="1" style="stop-color:#7194b8"/></radialGradient><path fill="url(#XMLID_4_)" d="M16.595,7.799c0.346,0.348,0.346,0.91,0,1.258l-7.539,7.538c-0.348,0.348-0.91,0.348-1.258,0.002 l-7.537-7.54c-0.348-0.348-0.348-0.91,0-1.258L7.798,0.26c0.348-0.347,0.91-0.347,1.258,0.001L16.595,7.799z"/><defs><filter id="Adobe_OpacityMaskFilter" width="15.017" height="15.016" x=".918" y=".919" filterUnits="userSpaceOnUse"><feColorMatrix type="matrix" values="1 0 0 0 0 0 1 0 0 0 0 0 1 0 0 0 0 0 1 0"/></filter></defs><mask id="XMLID_5_" width="15.017" height="15.016" x=".918" y=".919" maskUnits="userSpaceOnUse"><g filter="url(#Adobe_OpacityMaskFilter)"><linearGradient id="XMLID_6_" x1="2.667" x2="9.241" y1="1.704" y2="9.649" gradientUnits="userSpaceOnUse"><stop offset="0" style="stop-color:#fff"/><stop offset="1" style="stop-color:#000"/></linearGradient><path fill="url(#XMLID_6_)" d="M0.47,8.312l8.004-7.702l2.574,2.436l2.621,2.691c0,0-4.518,4.423-10.766,5.29 C2.083,10.159,0.47,8.312,0.47,8.312z"/></g></mask><path fill="#FFF" d="M15.704,7.868c0.309,0.309,0.309,0.811,0,1.12l-6.717,6.715 c-0.311,0.31-0.811,0.31-1.121,0.002L1.151,8.988c-0.311-0.31-0.311-0.812,0-1.121l6.715-6.716c0.311-0.31,0.811-0.31,1.121,0.001 L15.704,7.868z" mask="url(#XMLID_5_)"/></g></svg>