<svg xmlns="http://www.w3.org/2000/svg" xmlns:xlink="http://www.w3.org/1999/xlink" id="图层_1" width="15.988" height="12.901" enable-background="new 0 0 15.988 12.901" overflow="visible" version="1.1" viewBox="0 0 15.988 12.901" xml:space="preserve"><g><linearGradient id="XMLID_3_" x1="4.7" x2="15.988" y1="7.808" y2="7.808" gradientUnits="userSpaceOnUse"><stop offset="0" style="stop-color:#ffc10e"/><stop offset="1" style="stop-color:#f16422"/></linearGradient><path fill="url(#XMLID_3_)" d="M4.71,7.803c0,1.365-0.01,4.949-0.01,4.949s4.092-0.008,5.649-0.008 c3.113,0,5.639-2.212,5.639-4.941c0-1.363-0.054-4.893-0.054-4.893s-4.028-0.047-5.585-0.047C7.232,2.863,4.71,5.075,4.71,7.803z"/><linearGradient id="XMLID_4_" x1="1.797" x2="12.998" y1="-.453" y2="19.614" gradientUnits="userSpaceOnUse"><stop offset=".011" style="stop-color:#a01c15"/><stop offset="1" style="stop-color:#65040b"/></linearGradient><path fill="url(#XMLID_4_)" d="M5.654,0.014C4.095,0.014,0,0,0,0s0.011,4.676,0.011,6.457c0,3.56,2.524,6.444,5.644,6.444 c1.557,0,5.591-0.062,5.591-0.062s0.054-4.604,0.054-6.383C11.299,2.898,8.772,0.014,5.654,0.014z"/></g></svg>