<svg xmlns="http://www.w3.org/2000/svg" xmlns:xlink="http://www.w3.org/1999/xlink" id="图层_1" width="13.854" height="13.852" enable-background="new 0 0 13.854 13.852" overflow="visible" version="1.1" viewBox="0 0 13.854 13.852" xml:space="preserve"><g><linearGradient id="XMLID_4_" x1="-5.294" x2="13.442" y1="-2.66" y2="12.035" gradientUnits="userSpaceOnUse"><stop offset="0" style="stop-color:#ff5f06"/><stop offset=".106" style="stop-color:#f95507"/><stop offset="1" style="stop-color:#cc0212"/></linearGradient><path fill="url(#XMLID_4_)" d="M13.854,12.452c0,0.77-0.631,1.399-1.4,1.399H1.4c-0.77,0-1.4-0.63-1.4-1.399V1.399 C0,0.63,0.631,0,1.4,0h11.053c0.77,0,1.4,0.63,1.4,1.399V12.452z"/><g><rect width="1.738" height="8.736" x="9.465" y="2.492" fill="#F2F2F2"/><rect width="8.736" height="1.737" x="2.443" y="2.469" fill="#F2F2F2"/><rect width="1.74" height="9.154" x="5.519" y="2.661" fill="#F2F2F2" transform="matrix(0.7071 0.7071 -0.7071 0.7071 6.9891 -2.3976)"/></g><defs><filter id="Adobe_OpacityMaskFilter" width="12.453" height="12.452" x=".893" y=".759" filterUnits="userSpaceOnUse"><feColorMatrix type="matrix" values="1 0 0 0 0 0 1 0 0 0 0 0 1 0 0 0 0 0 1 0"/></filter></defs><mask id="XMLID_5_" width="12.453" height="12.452" x=".893" y=".759" maskUnits="userSpaceOnUse"><g filter="url(#Adobe_OpacityMaskFilter)"><linearGradient id="XMLID_6_" x1=".607" x2="8.124" y1=".515" y2="7.273" gradientUnits="userSpaceOnUse"><stop offset="0" style="stop-color:#fff"/><stop offset="1" style="stop-color:#000"/></linearGradient><path fill="url(#XMLID_6_)" d="M12.686,0.515L1.541,0.613L0.85,1.174c0,0-0.264,7.254-0.295,10.154 c6.361-0.131,12.924-9.857,12.924-9.857L12.686,0.515z" opacity=".75"/></g></mask><path fill="#FFF" d="M13.346,11.952c0,0.691-0.566,1.259-1.26,1.259H2.15 c-0.691,0-1.258-0.567-1.258-1.259V2.017c0-0.691,0.566-1.258,1.258-1.258h9.936c0.693,0,1.26,0.566,1.26,1.258V11.952z" mask="url(#XMLID_5_)" opacity=".8"/></g></svg>