<svg xmlns="http://www.w3.org/2000/svg" xmlns:xlink="http://www.w3.org/1999/xlink" id="Layer_1" width="13.945" height="13.945" enable-background="new 0 0 13.945 13.945" overflow="visible" version="1.1" viewBox="0 0 13.945 13.945" xml:space="preserve"><g><radialGradient id="XMLID_4_" cx="6.973" cy="6.973" r="6.973" gradientUnits="userSpaceOnUse"><stop offset="0" style="stop-color:#5a3d89"/><stop offset="1" style="stop-color:#2b1872"/></radialGradient><path fill="url(#XMLID_4_)" d="M13.945,12.949c0,0.551-0.445,0.996-0.995,0.996H0.996C0.445,13.945,0,13.5,0,12.949V0.996 C0,0.445,0.445,0,0.996,0H12.95c0.55,0,0.995,0.445,0.995,0.996V12.949z"/><defs><filter id="Adobe_OpacityMaskFilter" width="12.994" height="4.42" x=".488" y=".623" filterUnits="userSpaceOnUse"><feColorMatrix type="matrix" values="1 0 0 0 0 0 1 0 0 0 0 0 1 0 0 0 0 0 1 0"/></filter></defs><mask id="XMLID_5_" width="12.994" height="4.42" x=".488" y=".623" maskUnits="userSpaceOnUse"><g filter="url(#Adobe_OpacityMaskFilter)"><linearGradient id="XMLID_6_" x1="6.993" x2="6.993" y1=".462" y2="5.043" gradientUnits="userSpaceOnUse"><stop offset="0" style="stop-color:#fff"/><stop offset="1" style="stop-color:#000"/></linearGradient><rect width="13.156" height="4.634" x=".415" y=".516" fill="url(#XMLID_6_)"/></g></mask><path fill="#FFF" d="M13.482,4.24c0,0.442-0.24,0.803-0.535,0.803H1.025 c-0.296,0-0.537-0.36-0.537-0.803V1.426c0-0.443,0.241-0.803,0.537-0.803h11.922c0.295,0,0.535,0.359,0.535,0.803V4.24z" mask="url(#XMLID_5_)" opacity=".8"/></g></svg>