<svg xmlns="http://www.w3.org/2000/svg" xmlns:xlink="http://www.w3.org/1999/xlink" id="Layer_1" width="16.854" height="16.855" enable-background="new 0 0 16.854 16.855" overflow="visible" version="1.1" viewBox="0 0 16.854 16.855" xml:space="preserve"><g><radialGradient id="XMLID_4_" cx="8.418" cy="8.782" r="6.221" gradientTransform="matrix(0.7071 -0.7071 0.7071 0.7071 -3.7357 8.1699)" gradientUnits="userSpaceOnUse"><stop offset="0" style="stop-color:#ff5f06"/><stop offset=".106" style="stop-color:#f95507"/><stop offset="1" style="stop-color:#cc0212"/></radialGradient><path fill="url(#XMLID_4_)" d="M16.596,7.8c0.346,0.348,0.346,0.91,0,1.256l-7.54,7.539c-0.348,0.348-0.909,0.348-1.257,0.002 L0.26,9.056c-0.347-0.346-0.347-0.908,0-1.258l7.539-7.537c0.348-0.348,0.909-0.348,1.257,0L16.596,7.8z"/><defs><filter id="Adobe_OpacityMaskFilter" width="15.017" height="15.016" x=".918" y=".92" filterUnits="userSpaceOnUse"><feColorMatrix type="matrix" values="1 0 0 0 0 0 1 0 0 0 0 0 1 0 0 0 0 0 1 0"/></filter></defs><mask id="XMLID_5_" width="15.017" height="15.016" x=".918" y=".92" maskUnits="userSpaceOnUse"><g filter="url(#Adobe_OpacityMaskFilter)"><linearGradient id="XMLID_6_" x1="2.668" x2="9.242" y1="1.705" y2="9.649" gradientUnits="userSpaceOnUse"><stop offset="0" style="stop-color:#fff"/><stop offset="1" style="stop-color:#000"/></linearGradient><path fill="url(#XMLID_6_)" d="M0.47,8.312L8.475,0.61l2.574,2.436l2.621,2.689c0,0-4.518,4.424-10.767,5.291 C2.084,10.159,0.47,8.312,0.47,8.312z"/></g></mask><path fill="#FFF" d="M15.704,7.868c0.309,0.309,0.309,0.811,0,1.119l-6.717,6.717 c-0.31,0.309-0.812,0.309-1.12,0.002L1.151,8.987c-0.311-0.309-0.311-0.811,0-1.119l6.716-6.717c0.309-0.309,0.811-0.309,1.12,0 L15.704,7.868z" mask="url(#XMLID_5_)"/></g></svg>