<svg xmlns="http://www.w3.org/2000/svg" xmlns:xlink="http://www.w3.org/1999/xlink" id="图层_1" width="13.854" height="13.852" enable-background="new 0 0 13.854 13.852" overflow="visible" version="1.1" viewBox="0 0 13.854 13.852" xml:space="preserve"><g><linearGradient id="XMLID_4_" x1="-.17" x2="13.339" y1=".102" y2="13.091" gradientUnits="userSpaceOnUse"><stop offset="0" style="stop-color:#0d69c8"/><stop offset="1" style="stop-color:#1b3962"/></linearGradient><path fill="url(#XMLID_4_)" d="M13.854,12.452c0,0.77-0.631,1.399-1.4,1.399H1.4c-0.77,0-1.4-0.63-1.4-1.399V1.399 C0,0.63,0.631,0,1.4,0h11.053c0.77,0,1.4,0.63,1.4,1.399V12.452z"/><g><rect width="1.738" height="8.736" x="9.465" y="2.492" fill="#EFEFEF"/><rect width="8.736" height="1.737" x="2.444" y="2.469" fill="#EFEFEF"/><rect width="1.739" height="9.155" x="5.519" y="2.66" fill="#EFEFEF" transform="matrix(0.7065 0.7077 -0.7077 0.7065 6.9966 -2.3967)"/></g><defs><filter id="Adobe_OpacityMaskFilter" width="12.453" height="12.453" x=".7" y=".699" filterUnits="userSpaceOnUse"><feColorMatrix type="matrix" values="1 0 0 0 0 0 1 0 0 0 0 0 1 0 0 0 0 0 1 0"/></filter></defs><mask id="XMLID_5_" width="12.453" height="12.453" x=".7" y=".699" maskUnits="userSpaceOnUse"><g filter="url(#Adobe_OpacityMaskFilter)"><linearGradient id="XMLID_6_" x1=".414" x2="7.931" y1=".457" y2="7.215" gradientUnits="userSpaceOnUse"><stop offset="0" style="stop-color:#fff"/><stop offset="1" style="stop-color:#000"/></linearGradient><path fill="url(#XMLID_6_)" d="M12.493,0.456L1.35,0.555L0.657,1.115c0,0-0.264,7.254-0.296,10.154 c6.362-0.132,12.925-9.857,12.925-9.857L12.493,0.456z" opacity=".75"/></g></mask><path fill="#FFF" d="M13.153,11.894c0,0.691-0.566,1.259-1.259,1.259H1.959 c-0.692,0-1.259-0.567-1.259-1.259V1.958c0-0.691,0.566-1.259,1.259-1.259h9.936c0.692,0,1.259,0.567,1.259,1.259V11.894z" mask="url(#XMLID_5_)" opacity=".8"/></g></svg>