<svg xmlns="http://www.w3.org/2000/svg" xmlns:xlink="http://www.w3.org/1999/xlink" id="Layer_1" width="254" height="230" enable-background="new 0 0 254 230" overflow="visible" version="1.1" viewBox="0 0 254 230" xml:space="preserve"><g><g><linearGradient id="XMLID_7_" x1="41.595" x2="205.995" y1="151.357" y2="300.985" gradientUnits="userSpaceOnUse"><stop offset="0" style="stop-color:#3a7c06"/><stop offset=".168" style="stop-color:#41850c"/><stop offset=".438" style="stop-color:#549c1d"/><stop offset=".774" style="stop-color:#74c239"/><stop offset="1" style="stop-color:#8ce04e"/></linearGradient><path fill="url(#XMLID_7_)" d="M31.804,146.805l33.205-0.588c0,0,17.062,66.126,79.005,71.562 C53.647,231.361,31.885,150.342,31.804,146.805z"/><linearGradient id="XMLID_8_" x1="175.826" x2="224.469" y1="2120.865" y2="2094.592" gradientTransform="matrix(1 0 0 -1 0 2294.2676)" gradientUnits="userSpaceOnUse"><stop offset=".011" style="stop-color:#3a7c06"/><stop offset="1" style="stop-color:#233c17"/></linearGradient><path fill="url(#XMLID_8_)" d="M249.258,144.184l-19.755,0.604l-2.188-0.007c-22.7,85.313-115.765,87.29-154.632,60.169 c67.602,35.182,113.15-17.449,120.23-60.218l-23.576,0.505l-1.543-2.46l48.087-35.48l31.422,34.782l-8.114-0.391l8.479,0.782 L249.258,144.184z"/><linearGradient id="XMLID_9_" x1="220.234" x2="130.971" y1="2182.635" y2="2086.351" gradientTransform="matrix(1 0 0 -1 0 2294.2676)" gradientUnits="userSpaceOnUse"><stop offset="0" style="stop-color:#3a7c06"/><stop offset=".168" style="stop-color:#41850c"/><stop offset=".438" style="stop-color:#549c1d"/><stop offset=".774" style="stop-color:#74c239"/><stop offset="1" style="stop-color:#8ce04e"/></linearGradient><path fill="url(#XMLID_9_)" d="M73.828,205.697c39.239,27.379,134.127,26.866,155.675-60.91l19.755-0.604l-31.429-34.781 l-48.491,35.834c0,0,9.269-0.449,25.499-0.546C189.157,187.938,142.749,241.568,73.828,205.697z"/><path fill="#FFF" d="M72.684,204.949c0,0,23.955,15.033,52.932,11.96c23.317-1.923,59.57-20.688,69.222-72.219 l-25.499,0.546l48.491-35.834l1.713,1.894l-45.143,32.569h22.333c0,0-10.357,66.563-69.77,73.52 C126.963,217.385,98.999,221.744,72.684,204.949z" opacity=".3"/></g><g><linearGradient id="XMLID_10_" x1="210.253" x2="56.336" y1="95.834" y2="-124.797" gradientUnits="userSpaceOnUse"><stop offset="0" style="stop-color:#3a7c06"/><stop offset=".168" style="stop-color:#41850c"/><stop offset=".438" style="stop-color:#549c1d"/><stop offset=".774" style="stop-color:#74c239"/><stop offset="1" style="stop-color:#8ce04e"/></linearGradient><path fill="url(#XMLID_10_)" d="M229.45,83.984l-33.201,0.588c0,0-17.06-66.127-79.006-71.562 C207.604-0.573,229.367,80.447,229.45,83.984z"/><linearGradient id="XMLID_11_" x1="-5255.579" x2="-5206.936" y1="5863.393" y2="5837.119" gradientTransform="matrix(-1 0 0 1 -5170.1484 -5806.0049)" gradientUnits="userSpaceOnUse"><stop offset=".011" style="stop-color:#3a7c06"/><stop offset="1" style="stop-color:#233c17"/></linearGradient><path fill="url(#XMLID_11_)" d="M11.999,86.604l19.753-0.604l2.19,0.006C56.642,0.695,149.699-1.281,188.573,25.84 C120.97-9.344,75.424,43.288,68.338,86.058l23.575-0.507l1.548,2.461l-48.086,35.48L13.949,88.71l8.12,0.39l-8.482-0.781 L11.999,86.604z"/><linearGradient id="XMLID_12_" x1="-5211.168" x2="-5300.433" y1="5925.163" y2="5828.877" gradientTransform="matrix(-1 0 0 1 -5170.1484 -5806.0049)" gradientUnits="userSpaceOnUse"><stop offset="0" style="stop-color:#3a7c06"/><stop offset=".168" style="stop-color:#41850c"/><stop offset=".438" style="stop-color:#549c1d"/><stop offset=".774" style="stop-color:#74c239"/><stop offset="1" style="stop-color:#8ce04e"/></linearGradient><path fill="url(#XMLID_12_)" d="M187.428,25.09C148.188-2.289,53.298-1.775,31.752,86.001l-19.753,0.604l31.424,34.782 l48.49-35.836c0,0-9.26,0.45-25.492,0.548C72.097,42.85,118.507-10.781,187.428,25.09z"/><path fill="#FFF" d="M188.573,25.84c0,0-23.959-15.033-52.936-11.96c-23.321,1.922-59.565,20.687-69.217,72.219 l25.492-0.548l-48.49,35.836l-1.709-1.895l45.143-32.57H64.524c0,0,10.357-66.561,69.764-73.52 C134.288,13.402,162.257,9.045,188.573,25.84z" opacity=".3"/></g></g></svg>