<svg xmlns="http://www.w3.org/2000/svg" xmlns:xlink="http://www.w3.org/1999/xlink" id="Layer_1" width="254" height="230" enable-background="new 0 0 254 230" overflow="visible" version="1.1" viewBox="0 0 254 230" xml:space="preserve"><g><g><linearGradient id="XMLID_7_" x1="-3659.866" x2="-3552.346" y1="1066.327" y2="1066.327" gradientTransform="matrix(-0.9998 -0.0203 0.0203 -0.9998 -3459.1194 1175.6028)" gradientUnits="userSpaceOnUse"><stop offset="0" style="stop-color:#6295d6"/><stop offset="1" style="stop-color:#1c2958"/></linearGradient><path fill="url(#XMLID_7_)" d="M222.416,146.624l-32.248-0.587c0,0-16.573,66.126-76.736,71.562 C201.198,231.18,222.336,150.161,222.416,146.624z"/><linearGradient id="XMLID_8_" x1="-3457.944" x2="-3564.194" y1="1110.137" y2="974.003" gradientTransform="matrix(-1 0 0 -1 -3417.9102 1211.5889)" gradientUnits="userSpaceOnUse"><stop offset="0" style="stop-color:#6295d6"/><stop offset="1" style="stop-color:#1c2958"/></linearGradient><path fill="url(#XMLID_8_)" d="M11.206,144.003l19.188,0.603l2.122-0.006c22.052,85.313,112.441,87.29,150.194,60.169 C117.049,239.952,72.812,187.32,65.931,144.55l22.897,0.507l1.501-2.461l-46.706-35.48L13.1,141.897l7.885-0.39l-8.237,0.781 L11.206,144.003z"/><linearGradient id="XMLID_9_" x1="-3457.736" x2="-3563.604" y1="1109.32" y2="973.675" gradientTransform="matrix(-1 0 0 -1 -3417.9102 1211.5889)" gradientUnits="userSpaceOnUse"><stop offset="0" style="stop-color:#4590d5"/><stop offset="1" style="stop-color:#d2eff9"/></linearGradient><path fill="url(#XMLID_9_)" d="M181.602,205.518c-38.116,27.378-130.281,26.865-151.208-60.912l-19.188-0.603l30.522-34.783 l47.1,35.837c0,0-8.997-0.451-24.764-0.547C69.581,187.757,114.654,241.388,181.602,205.518z"/><path fill="#FFF" d="M182.71,204.769c0,0-23.268,15.032-51.413,11.96c-22.649-1.923-57.858-20.688-67.232-72.219 l24.764,0.547l-47.1-35.837l-1.662,1.896l43.848,32.568H62.225c0,0,10.06,66.562,67.764,73.521 C129.988,217.206,157.15,221.563,182.71,204.769z" opacity=".3"/></g><g><linearGradient id="XMLID_10_" x1="-1094.702" x2="-1021.606" y1="2719.581" y2="2719.581" gradientTransform="matrix(0 -1 1 0 -2636.1323 -1010.7368)" gradientUnits="userSpaceOnUse"><stop offset=".005" style="stop-color:#c94605"/><stop offset=".302" style="stop-color:#cd4e08"/><stop offset=".751" style="stop-color:#d86210"/><stop offset="1" style="stop-color:#df7116"/></linearGradient><path fill="url(#XMLID_10_)" d="M28.042,83.377l32.79,0.588c0,0,16.85-66.128,78.023-71.563 C49.615-1.179,28.123,79.841,28.042,83.377z"/><linearGradient id="XMLID_11_" x1="-734.968" x2="-687.068" y1="1752.566" y2="1726.694" gradientTransform="matrix(1 0 0 1 905.2959 -1695.627)" gradientUnits="userSpaceOnUse"><stop offset=".22" style="stop-color:#ec6e24"/><stop offset=".615" style="stop-color:#f19424"/><stop offset="1" style="stop-color:#fac170"/></linearGradient><path fill="url(#XMLID_11_)" d="M242.794,85.998l-19.508-0.603l-2.159,0.003C198.704,0.086,106.799-1.89,68.413,25.231 C135.175-9.95,180.155,42.679,187.151,85.45l-23.282-0.505l-1.523,2.46l47.487,35.478l31.034-34.782l-8.019,0.391l8.378-0.782 L242.794,85.998z"/><linearGradient id="XMLID_12_" x1="-1114.636" x2="-1014.567" y1="2861.596" y2="2736.748" gradientTransform="matrix(0 -1 1 0 -2636.1323 -1010.7368)" gradientUnits="userSpaceOnUse"><stop offset="0" style="stop-color:#ffc00e"/><stop offset="1" style="stop-color:#f06422"/></linearGradient><path fill="url(#XMLID_12_)" d="M69.542,24.482C108.294-2.896,202.009-2.382,223.286,85.395l19.508,0.603l-31.035,34.783 l-47.89-35.836c0,0,9.15,0.45,25.181,0.547C183.438,42.244,137.611-11.387,69.542,24.482z"/><path fill="#FFF" d="M68.413,25.231c0,0,23.657-15.033,52.275-11.958c23.028,1.921,58.83,20.688,68.361,72.219 l-25.181-0.547l47.89,35.836l1.688-1.896l-44.581-32.57h22.055c0,0-10.229-66.56-68.9-73.519 C122.021,12.796,94.4,8.437,68.413,25.231z" opacity=".3"/></g></g></svg>