<svg xmlns="http://www.w3.org/2000/svg" xmlns:xlink="http://www.w3.org/1999/xlink" id="Layer_1" width="173" height="99.001" enable-background="new 0 0 173 99.001" overflow="visible" version="1.1" viewBox="0 0 173 99.001" xml:space="preserve"><g><linearGradient id="XMLID_4_" x1="-979.72" x2="-922.926" y1="2554.542" y2="2554.542" gradientTransform="matrix(0 1 -1 0 2681.4209 1015.0322)" gradientUnits="userSpaceOnUse"><stop offset=".005" style="stop-color:#c94605"/><stop offset=".302" style="stop-color:#cd4e08"/><stop offset=".751" style="stop-color:#d86210"/><stop offset="1" style="stop-color:#df7116"/></linearGradient><path fill="url(#XMLID_4_)" d="M169.93,35.769l-25.478-0.456c0,0-13.092,51.38-60.623,55.603 C153.167,101.468,169.866,38.517,169.93,35.769z"/><linearGradient id="XMLID_5_" x1="-788.781" x2="-751.563" y1="1669.429" y2="1649.326" gradientTransform="matrix(-1 0 0 -1 -729.4053 1725.7402)" gradientUnits="userSpaceOnUse"><stop offset=".22" style="stop-color:#ec6e24"/><stop offset=".615" style="stop-color:#f19424"/><stop offset="1" style="stop-color:#fac170"/></linearGradient><path fill="url(#XMLID_5_)" d="M3.07,33.732l15.157,0.469l1.678-0.003c17.422,66.286,88.831,67.822,118.656,46.75 c-51.873,27.334-86.822-13.557-92.258-46.79l18.091,0.393l1.184-1.911L28.681,5.073L4.567,32.099l6.23-0.304l-6.51,0.607 L3.07,33.732z"/><linearGradient id="XMLID_6_" x1="-995.208" x2="-917.456" y1="2664.886" y2="2567.88" gradientTransform="matrix(0 1 -1 0 2681.4209 1015.0322)" gradientUnits="userSpaceOnUse"><stop offset="0" style="stop-color:#ffc00e"/><stop offset="1" style="stop-color:#f06422"/></linearGradient><path fill="url(#XMLID_6_)" d="M137.685,81.529c-30.11,21.272-102.925,20.873-119.458-47.328L3.07,33.732L27.184,6.707 l37.21,27.844c0,0-7.109-0.35-19.565-0.425C49.188,67.729,84.795,109.399,137.685,81.529z"/><path fill="#FFF" d="M138.561,80.948c0,0-18.381,11.68-40.618,9.291c-17.892-1.493-45.709-16.074-53.115-56.113 l19.565,0.425L27.184,6.707L25.871,8.18l34.64,25.307H43.375c0,0,7.948,51.716,53.535,57.123 C96.909,90.609,118.369,93.996,138.561,80.948z" opacity=".3"/></g></svg>