<svg xmlns="http://www.w3.org/2000/svg" xmlns:xlink="http://www.w3.org/1999/xlink" id="Layer_1" width="280" height="238" enable-background="new 0 0 280 238" overflow="visible" version="1.1" viewBox="0 0 280 238" xml:space="preserve"><rect width="280" height="233" x="14" y="5" fill="none"/><g><linearGradient id="XMLID_6_" x1="245.625" x2="139.564" y1="185.671" y2="20.974" gradientUnits="userSpaceOnUse"><stop offset="0" style="stop-color:#00c400"/><stop offset="1" style="stop-color:#b0ff78"/></linearGradient><path fill="url(#XMLID_6_)" d="M250.418,171.089L181.01,92.89c0,0-5.895-1.509-9.023-2.136c-0.102,0.158-1.395,0.748-1.193,0.707 c0.559-0.114,70.063,85.249,70.063,85.249L250.418,171.089z"/><linearGradient id="XMLID_7_" x1="144.318" x2="99.479" y1="143.435" y2="21.853" gradientUnits="userSpaceOnUse"><stop offset="0" style="stop-color:#00c400"/><stop offset="1" style="stop-color:#b0ff78"/></linearGradient><polygon fill="url(#XMLID_7_)" points="137.959 122.996 146.178 115.784 108.614 58.433 100.551 57.457"/><linearGradient id="XMLID_8_" x1="257.279" x2="275.498" y1="193.414" y2="193.414" gradientUnits="userSpaceOnUse"><stop offset="0" style="stop-color:#00c400"/><stop offset="1" style="stop-color:#b0ff78"/></linearGradient><polygon fill="url(#XMLID_8_)" points="257.279 230.585 266.5 225.636 275.498 156.244 265.826 161.531"/><polyline fill="#00A000" points="133.291 153.396 142.295 148.752 170.449 122.211 167.891 120.028 133.1 153.396"/><polygon fill="#00A000" points="60.394 102.303 69.305 97.659 97.645 76.9 96.226 75.856"/><linearGradient id="XMLID_9_" x1="60.181" x2="376.354" y1="35.748" y2="331.228" gradientUnits="userSpaceOnUse"><stop offset="0" style="stop-color:#2fd452"/><stop offset="1" style="stop-color:#006b33"/></linearGradient><polygon fill="url(#XMLID_9_)" points="181.896 211.985 257.471 230.765 266.191 161.451 241.148 175.984 171.164 91.022 137.852 122.102 100.593 57.462 59.814 79.17 6.824 8.961 60.262 102.648 96.037 76.712 133.375 153.402 167.809 121.203 208.951 195.216"/><linearGradient id="XMLID_10_" x1="6.824" x2="66.356" y1="44.012" y2="44.012" gradientUnits="userSpaceOnUse"><stop offset="0" style="stop-color:#00c400"/><stop offset="1" style="stop-color:#b0ff78"/></linearGradient><polygon fill="url(#XMLID_10_)" points="59.814 79.228 66.355 75.706 6.824 8.796"/><polyline fill="#5EEA1C" points="264.738 162.123 266.191 161.451 266.748 161.116 258.256 230.097 257.471 230.765 256.467 230.543 264.738 162.459"/><polygon fill="#5EEA1C" points="240.256 175.986 241.148 175.984 242.545 175.263 171.986 90.754 171.164 91.022 170.842 91.443"/><polygon fill="#5EEA1C" points="136.939 122.291 137.799 122.123 138.678 121.284 101.432 57.561 100.57 57.457 99.941 57.812"/><polygon fill="#7EFF48" points="59.143 79.311 59.814 79.228 60.404 78.725 6.824 8.796"/></g></svg>