<svg xmlns="http://www.w3.org/2000/svg" xmlns:xlink="http://www.w3.org/1999/xlink" id="Layer_1" width="473" height="240" enable-background="new 0 0 473 240" overflow="visible" version="1.1" viewBox="0 0 473 240" xml:space="preserve"><rect width="253" height="197" x="79" y="6" fill="none"/><g><linearGradient id="XMLID_3_" x1="181.373" x2="269.819" y1="-339.168" y2="-226.908" gradientTransform="matrix(0.925 -0.3799 0.3799 0.925 155.0617 510.2965)" gradientUnits="userSpaceOnUse"><stop offset="0" style="stop-color:#ffc00e"/><stop offset="1" style="stop-color:#f06422"/></linearGradient><path fill="url(#XMLID_3_)" d="M9.88,107.418c190.45,0,211.258,7.193,256.74,15.941c57.578,12.666,102.706,47.759,102.706,47.759 l19.584-17.1l-2.057,80.462l-83.293-5.93l22.414-19.572C236.899,142.32,9.88,107.418,9.88,107.418L9.88,107.418"/><linearGradient id="XMLID_4_" x1="205.491" x2="401.458" y1="97.47" y2="55.86" gradientUnits="userSpaceOnUse"><stop offset="0" style="stop-color:#ffc00e"/><stop offset="1" style="stop-color:#f06422"/></linearGradient><path fill="url(#XMLID_4_)" d="M9.256,107.388c0,0,200.252,13.237,377.537-76.852L360.282,4.022l107.782,7.007l-11.573,93.729 l-27.316-26.173C433.32,76.699,251.229,159.436,9.256,107.388z"/></g></svg>