<svg xmlns="http://www.w3.org/2000/svg" xmlns:svg="http://www.w3.org/2000/svg" style="overflow:visible" id="Layer_1" width="459.169" height="333.603" enable-background="new 0 0 343 344" overflow="visible" version="1.1" viewBox="0 0 459.169 333.603" xml:space="preserve"><metadata id="metadata39"/><rect id="rect3" width="253" height="197" x="121.85" y="129.311" style="fill:none"/><g id="g5" transform="translate(74.676,39.559)"><linearGradient id="XMLID_5_" x1="88.005" x2="157.831" y1="168.106" y2="256.732" gradientUnits="userSpaceOnUse"><stop style="stop-color:#a1c1ea" id="stop8" offset="0"/><stop style="stop-color:#6295d6" id="stop10" offset="1"/></linearGradient><path id="path12" d="m -64.712,117.28 c 58.909,-6.814 163.058,17.698 200.255,28.995 44.639,17.371 81.727,82.501 81.727,82.501 l 24.607,-8.378 -32.466,73.646 -74.8,-37.121 28.175,-9.594 C 132.955,135.314 -64.712,117.28 -64.712,117.28" style="fill:url(#XMLID_5_)"/><linearGradient id="XMLID_6_" x1="83.085" x2="216.02" y1="78.811" y2="-74.267" gradientUnits="userSpaceOnUse"><stop style="stop-color:#a1c1ea" id="stop15" offset="0"/><stop style="stop-color:#6295d6" id="stop17" offset="1"/></linearGradient><path id="path19" d="m 155.462,92.223 c 41.509,-16.438 68.604,-73.969 68.604,-73.969 l 22.096,6.793 -30.822,-64.606 -65.511,34.994 25.298,7.776 c -25.605,102.838 -241.951,114.197 -241.951,114.197 0,0 188.218,-0.548 222.286,-25.185 z" style="fill:url(#XMLID_6_)"/><linearGradient id="XMLID_7_" x1="111.724" x2="366.854" y1="129.118" y2="233.856" gradientUnits="userSpaceOnUse"><stop style="stop-color:#a1c1ea" id="stop22" offset="0"/><stop style="stop-color:#6295d6" id="stop24" offset="1"/></linearGradient><path id="path26" d="m -63.277,118.239 c 246.904,-6.464 283.027,-0.214 393.662,75.188 l 32.076,-26.921 -2.866,91.852 -101.86,-3.752 32.381,-28.28 c -10e-4,-0.001 -62.081,-79.767 -353.393,-108.087 z" style="fill:url(#XMLID_7_)"/><linearGradient id="XMLID_8_" x1="121.813" x2="317.858" y1="106.668" y2="65.042" gradientUnits="userSpaceOnUse"><stop style="stop-color:#a1c1ea" id="stop29" offset="0"/><stop style="stop-color:#6295d6" id="stop31" offset="1"/></linearGradient><path id="path33" d="m -74.676,115.768 c 0,0 200.611,14.03 377.901,-76.062 L 276.714,13.198 384.493,20.2 372.921,113.93 345.61,87.76 c 4.14,-1.893 -178.312,80.058 -420.286,28.008 z" style="fill:url(#XMLID_8_)"/></g></svg>