<svg xmlns="http://www.w3.org/2000/svg" xmlns:xlink="http://www.w3.org/1999/xlink" id="Layer_1" width="284.67" height="122.667" enable-background="new 0 0 284.67 122.667" overflow="visible" version="1.1" viewBox="0 0 284.67 122.667" xml:space="preserve"><g><linearGradient id="XMLID_7_" x1="6.071" x2="160.401" y1="51.468" y2="51.468" gradientUnits="userSpaceOnUse"><stop offset="0" style="stop-color:#7d0b11"/><stop offset="1" style="stop-color:#be1d22"/></linearGradient><path fill="url(#XMLID_7_)" d="M160.336,78.328c0,0,0.088-0.35,0.002-0.879C160.337,78.01,160.336,78.328,160.336,78.328z M160.401,34.058c-0.544-5.83-14.123-5.701-14.123-5.701h-87.9L58.315,3.765l-3.52,2.543L7.146,48.782l-1.074,1.552l48.967,48.837 l3.518-2.543l-0.063-24.591h84.58v0.261c0,0,0.289,0,3,0c0,0,0.033,0.091,0.127,0.091c11.872,0,13.866,3.408,14.138,5.061 C160.348,71.72,160.406,39.368,160.401,34.058z"/><linearGradient id="XMLID_8_" x1="1.79" x2="204.714" y1="54.07" y2="48.987" gradientUnits="userSpaceOnUse"><stop offset="0" style="stop-color:#f58878"/><stop offset=".539" style="stop-color:#dc322c"/><stop offset="1" style="stop-color:#ce0000"/></linearGradient><path fill="url(#XMLID_8_)" d="M156.818,80.871c0,0,0.088-0.35,0.001-0.879C156.818,80.553,156.818,80.871,156.818,80.871z M156.883,36.601c-0.543-5.83-14.124-5.701-14.124-5.701H54.859L54.796,6.308L2.552,52.876l52.486,46.294L54.974,74.58h84.581 v0.261c0,0,0.288,0,3,0c0,0,0.032,0.091,0.126,0.091c11.872,0,13.868,3.408,14.139,5.061 C156.83,74.263,156.888,41.911,156.883,36.601z"/><linearGradient id="XMLID_9_" x1="126.724" x2="161.64" y1="68.709" y2="56.732" gradientUnits="userSpaceOnUse"><stop offset="0" style="stop-color:#dc322c"/><stop offset=".461" style="stop-color:#f58878"/><stop offset="1" style="stop-color:#ce0000"/></linearGradient><path fill="url(#XMLID_9_)" d="M156.722,36.681l0.044,43.83c0,0-0.668,6-13.167,5.166c-3.167,0.334-5.5,0.166-5.5,0.166 s-14.112-0.619-14.89,5.707c0-7.707-0.056-43.378,0-43.715s0.153-5.522,13.354-5.522s6.913,0,6.913,0 S155.512,42.184,156.722,36.681z"/><linearGradient id="XMLID_10_" x1="126.847" x2="160.402" y1="61.147" y2="61.147" gradientUnits="userSpaceOnUse"><stop offset="0" style="stop-color:#7d0b11"/><stop offset="1" style="stop-color:#be1d22"/></linearGradient><path fill="url(#XMLID_10_)" d="M160.359,33.712l0.043,43.83c0,0-0.666,6-13.167,5.166c-3.166,0.334-5.5,0.166-5.5,0.166 s-14.111-0.619-14.889,5.707c0-7.707,0-43.715,0-43.715s0.152-5.522,13.354-5.522c13.201,0,6.913,0,6.913,0 S159.149,39.215,160.359,33.712z"/><linearGradient id="XMLID_11_" x1="126.824" x2="278.674" y1="72.433" y2="72.433" gradientUnits="userSpaceOnUse"><stop offset="0" style="stop-color:#7d0b11"/><stop offset="1" style="stop-color:#be1d22"/></linearGradient><path fill="url(#XMLID_11_)" d="M275.475,75.748l3.199-3.176l-52.246-46.57l-3.615,2.751l3.551,21.843l-86.646,0.002 c-12.125,0-12.875-5.75-12.875-5.75s-0.019,38.416-0.019,43.951c1.532,5.537,12.884,5.713,12.884,5.713v0.006 c27.188-0.057,86.542-0.244,86.542-0.244l-0.061,24.592L275.475,75.748z"/><linearGradient id="XMLID_12_" x1="123.209" x2="275.059" y1="75.185" y2="75.185" gradientUnits="userSpaceOnUse"><stop offset="0" style="stop-color:#ef7365"/><stop offset=".539" style="stop-color:#dc322c"/><stop offset="1" style="stop-color:#ce0000"/></linearGradient><path fill="url(#XMLID_12_)" d="M275.059,75.322l-52.246-46.569l-0.064,24.593l-86.646,0.002c-12.125,0-12.875-4.375-12.875-5.75 c0.146-0.529-0.019,38.417-0.019,43.953c1.532,5.535,12.884,5.711,12.884,5.711v0.006c27.188-0.057,86.542-0.242,86.542-0.242 l-0.061,24.592L275.059,75.322z"/></g></svg>