<svg xmlns="http://www.w3.org/2000/svg" xmlns:svg="http://www.w3.org/2000/svg" id="Layer_1" width="61.51" height="60.343" enable-background="new 0 0 61.51 60.343" overflow="visible" version="1.1" viewBox="0 0 61.51 60.343" xml:space="preserve"><metadata id="metadata28"/><g id="g5"><g id="g7"><path id="path9" fill="#355787" d="M3.1,30.458l30.341,26.433c0,0,0-12.671,0-13.628c0.974,0,15.816,0,15.816,0 c5.052,0,9.162-4.111,9.162-9.164v-7.295c0-5.05-4.11-9.159-9.162-9.159c0,0-14.843,0-15.816,0c0-0.958,0-13.628,0-13.628 L3.1,30.458z"/><path id="path11" fill="#355787" d="M33.959,2.875l-1.721,1.5L3.208,29.674l-0.899,0.783l0.899,0.783l29.031,25.292l1.721,1.499V55.75V43.782 h15.298c5.338,0,9.682-4.344,9.682-9.683v-7.296c0-5.336-4.344-9.678-9.682-9.678H33.959V5.159V2.875L33.959,2.875z M3.89,30.458 L32.921,5.159v11.967l0,0l0,0v1.039h1.038l0,0l0,0h15.298c4.77,0,8.643,3.869,8.643,8.639V34.1l0,0l0,0 c0,4.777-3.873,8.644-8.643,8.644H32.921v1.039l0,0l0,0V55.75l0,0l0,0L3.89,30.458L3.89,30.458L3.89,30.458z"/></g><g id="g13"><linearGradient id="XMLID_2_" x1="4.878" x2="57.251" y1="30.453" y2="30.453" gradientUnits="userSpaceOnUse"><stop style="stop-color:#a1c1ea" id="stop16" offset="0"/><stop style="stop-color:#6295d6" id="stop18" offset="1"/></linearGradient><path id="path20" fill="url(#XMLID_2_)" d="M4.878,30.458c1.04,0.906,25.439,22.163,27.394,23.865c0-2.261,0-12.229,0-12.229h16.985 c4.407,0,7.993-3.587,7.993-7.995v-7.295c0-4.406-3.586-7.991-7.993-7.991H32.272c0,0,0-9.966,0-12.228 C30.318,8.288,5.917,29.552,4.878,30.458z"/><path id="path22" fill="#D2EFF9" d="M32.921,5.159L3.89,30.458l0.979,0.853l0,0l0.01,0.008l0,0l26.744,23.301l0,0l0.319,0.277l0,0l0.979,0.854 V42.743l0,0l0,0h16.336c4.77,0,8.643-3.866,8.643-8.644v-7.296c0-4.77-3.873-8.639-8.643-8.639H32.921V5.159L32.921,5.159z M5.867,30.458L31.623,8.012v10.152v1.298h1.299h16.336c4.05,0,7.345,3.293,7.345,7.341V34.1c0,4.05-3.295,7.346-7.345,7.346 H32.921h-1.299v1.298v10.153L5.867,30.458L5.867,30.458z"/></g></g></svg>