<svg xmlns="http://www.w3.org/2000/svg" xmlns:xlink="http://www.w3.org/1999/xlink" id="Layer_1" width="122.666" height="70.666" enable-background="new 0 0 122.666 70.666" overflow="visible" version="1.1" viewBox="0 0 122.666 70.666" xml:space="preserve"><g><polygon fill="#0D69C8" points="31.939 7.729 11.403 26.383 11.589 62.937 92.61 62.937 111.263 43.719 111.263 8.107"/><linearGradient id="XMLID_10_" x1="86.508" x2="10.764" y1="62.213" y2="23.776" gradientUnits="userSpaceOnUse"><stop offset="0" style="stop-color:#0d69c8"/><stop offset="1" style="stop-color:#0683f4"/></linearGradient><polyline fill="url(#XMLID_10_)" points="11.589 26.761 92.61 26.761 92.61 62.937 11.968 62.937"/><linearGradient id="XMLID_11_" x1="110.373" x2="86.632" y1="39.99" y2="27.555" gradientUnits="userSpaceOnUse"><stop offset="0" style="stop-color:#0d69c8"/><stop offset="1" style="stop-color:#0683f4"/></linearGradient><polygon fill="url(#XMLID_11_)" points="111.076 8.107 92.61 26.761 92.61 62.937 111.076 43.341"/><linearGradient id="XMLID_12_" x1="108.601" x2="48.118" y1="5.123" y2="20.95" gradientUnits="userSpaceOnUse"><stop offset="0" style="stop-color:#0683f4"/><stop offset="1" style="stop-color:#2ca5ff"/></linearGradient><polygon fill="url(#XMLID_12_)" points="31.94 7.729 111.076 8.107 92.61 26.761 11.589 26.761"/><polygon fill="#FFF" points="12.816 25.535 91.951 25.347 108.909 7.824 111.076 8.107 93.082 26.666 11.589 26.761" opacity=".1"/><polygon fill="#FFF" points="91.898 26.348 91.904 62.417 93.317 62.513 93.317 26.337" opacity=".1"/></g></svg>