<svg xmlns="http://www.w3.org/2000/svg" xmlns:xlink="http://www.w3.org/1999/xlink" id="Layer_1" width="122.666" height="70.666" enable-background="new 0 0 122.666 70.666" overflow="visible" version="1.1" viewBox="0 0 122.666 70.666" xml:space="preserve"><g><linearGradient id="XMLID_11_" x1="11.403" x2="111.263" y1="35.333" y2="35.333" gradientUnits="userSpaceOnUse"><stop offset="0" style="stop-color:#ffc10e"/><stop offset="1" style="stop-color:#f16422"/></linearGradient><polygon fill="url(#XMLID_11_)" points="31.939 7.729 11.403 26.383 11.589 62.937 92.61 62.937 111.263 43.718 111.263 8.106"/><linearGradient id="XMLID_12_" x1="7.373" x2="118.439" y1="52.018" y2="34.213" gradientUnits="userSpaceOnUse"><stop offset="0" style="stop-color:#ffc10e"/><stop offset="1" style="stop-color:#f16422"/></linearGradient><polyline fill="url(#XMLID_12_)" points="11.589 26.76 92.61 26.76 92.61 62.937 11.968 62.937"/><linearGradient id="XMLID_13_" x1="59.559" x2="135.017" y1="75.905" y2="3.839" gradientUnits="userSpaceOnUse"><stop offset="0" style="stop-color:#ffc10e"/><stop offset="1" style="stop-color:#f16422"/></linearGradient><polygon fill="url(#XMLID_13_)" points="111.075 8.106 92.61 26.76 92.61 62.937 111.075 43.34"/><linearGradient id="XMLID_14_" x1="12.352" x2="156.485" y1="23.118" y2="6.162" gradientUnits="userSpaceOnUse"><stop offset="0" style="stop-color:#ffc10e"/><stop offset="1" style="stop-color:#f16422"/></linearGradient><polygon fill="url(#XMLID_14_)" points="31.94 7.729 111.075 8.106 92.61 26.76 11.589 26.76"/><polygon fill="#FFF" points="12.816 25.536 91.951 25.347 108.908 7.823 111.075 8.106 93.082 26.666 11.589 26.76" opacity=".1"/><polygon fill="#FFF" points="91.899 26.347 91.904 62.417 93.316 62.513 93.316 26.336" opacity=".1"/></g></svg>