<svg xmlns="http://www.w3.org/2000/svg" xmlns:svg="http://www.w3.org/2000/svg" style="overflow:visible" id="Layer_1" width="153.748" height="154.742" enable-background="new 0 0 516 172" overflow="visible" version="1.1" viewBox="0 0 153.748 154.742" xml:space="preserve"><metadata id="metadata39"/><g id="g5" transform="translate(-161.094,1.138)"><path id="path7" d="m 296.212,72.564 h 18.63 V 36.336 c 0,-2.283 -0.938,-4.346 -2.448,-5.831 l -5.223,-5.223 0.694,2.973 c -0.394,-0.059 -0.793,-0.099 -1.205,-0.099 H 265.222 V 7.873 c 0,-0.833 -0.291,-1.592 -0.764,-2.203 V 5.649 l -0.09,-0.088 c -0.143,-0.17 -0.297,-0.324 -0.467,-0.466 l -5.429,-5.43 0.295,4.577 h -16.126 c -2.006,0 -3.633,1.627 -3.633,3.63 v 20.283 h -41.436 c -4.517,0 -8.182,3.663 -8.182,8.18 v 41.552 h -19.286 c -2.003,0 -3.631,1.624 -3.631,3.63 v 16.426 l -3.688,0.212 4.685,4.796 c 0.044,0.047 0.087,0.094 0.133,0.139 l 0.067,0.067 0.007,-0.009 c 0.644,0.584 1.491,0.952 2.428,0.952 h 19.286 v 41.05 l -2.998,0.661 4.866,4.813 c 0.345,0.42 0.735,0.804 1.157,1.147 l 0.006,0.006 v -10e-4 c 1.408,1.141 3.199,1.827 5.15,1.827 h 36.113 v -18.11 c 0,-2.819 2.285,-5.106 5.105,-5.106 h 26.647 c 2.82,0 5.106,2.287 5.106,5.106 v 12.728 h -5.381 l 5.381,5.383 h 36.113 c 4.518,0 8.182,-3.663 8.182,-8.18 V 109.42 l -5.382,-5.379 v 5.379 h -13.248 c -2.817,0 -5.105,-2.286 -5.105,-5.103 V 77.67 c 0.003,-2.82 2.292,-5.106 5.109,-5.106 z" style="fill:#af340e"/><linearGradient id="XMLID_4_" x1="303.721" x2="172.039" y1="140.756" y2="13.064" gradientUnits="userSpaceOnUse"><stop style="stop-color:#fa7700" id="stop10" offset="0"/><stop style="stop-color:#fda904" id="stop12" offset="1"/></linearGradient><path id="path14" d="m 290.83,67.183 h 18.63 V 30.955 c 0,-4.518 -3.663,-8.181 -8.182,-8.181 H 259.841 V 2.494 c 0,-2.007 -1.625,-3.632 -3.63,-3.632 h -18.95 c -2.006,0 -3.631,1.625 -3.631,3.632 v 20.28 h -41.438 c -4.518,0 -8.182,3.663 -8.182,8.181 v 41.551 h -19.287 c -2.004,0 -3.629,1.626 -3.629,3.631 v 18.949 c 0,2.006 1.625,3.632 3.629,3.632 h 19.287 v 41.324 c 0,4.519 3.664,8.18 8.182,8.18 h 36.112 v -18.109 c 0,-2.819 2.286,-5.104 5.104,-5.104 h 26.648 c 2.819,0 5.107,2.284 5.107,5.104 v 18.109 h 36.112 c 4.519,0 8.182,-3.661 8.182,-8.18 v -36 h -18.63 c -2.818,0 -5.104,-2.287 -5.104,-5.106 v -26.65 c 0.004,-2.817 2.289,-5.103 5.107,-5.103 z" style="fill:url(#XMLID_4_)"/><path id="path16" d="m 237.262,0.636 c -1.025,0 -1.859,0.833 -1.859,1.858 v 22.054 h -43.209 c -1.711,0 -3.319,0.667 -4.529,1.878 -1.213,1.211 -1.879,2.819 -1.879,4.529 V 74.28 h -21.061 c -1.023,0 -1.856,0.833 -1.856,1.856 v 18.949 c 0,1.025 0.833,1.858 1.856,1.858 h 21.061 v 43.098 c 0,3.535 2.875,6.407 6.408,6.407 0,0 31.135,0 34.338,0 0,-2.887 0,-16.337 0,-16.337 0,-3.793 3.088,-6.879 6.879,-6.879 h 26.648 c 3.795,0 6.881,3.086 6.881,6.879 0,0 0,13.45 0,16.337 3.207,0 34.339,0 34.339,0 3.535,0 6.409,-2.872 6.409,-6.407 0,0 0,-31.021 0,-34.227 -2.904,0 -16.857,0 -16.857,0 -3.791,0 -6.877,-3.086 -6.877,-6.88 V 72.286 c 0,-3.791 3.086,-6.877 6.877,-6.877 0,0 13.953,0 16.857,0 0,-3.208 0,-34.454 0,-34.454 0,-3.531 -2.874,-6.407 -6.409,-6.407 H 258.068 V 2.494 c 0,-1.025 -0.833,-1.858 -1.855,-1.858 h -18.951 z" style="fill:none;stroke:#ffce00;stroke-width:.88679999"/><defs id="defs18"><filter id="Adobe_OpacityMaskFilter" width="148.364" height="149.359" x="161.096" y="-1.138" color-interpolation-filters="sRGB" filterUnits="userSpaceOnUse"><feColorMatrix id="feColorMatrix21" type="matrix" values="1 0 0 0 0 0 1 0 0 0 0 0 1 0 0 0 0 0 1 0"/></filter></defs><mask id="XMLID_5_" width="148.364" height="149.359" x="161.096" y="-1.138" maskUnits="userSpaceOnUse"><g id="g24" style="filter:url(#Adobe_OpacityMaskFilter)"><linearGradient id="XMLID_6_" x1="188.75" x2="250.826" y1="-13.702" y2="74.091" gradientUnits="userSpaceOnUse"><stop style="stop-color:#fff" id="stop27" offset="0"/><stop style="stop-color:#000" id="stop29" offset="1"/></linearGradient><path id="path31" d="m 156.938,114.975 c 0,0 119.273,-34.142 166.274,-112.18 l -55.868,-26.605 -33.698,10.201 -50.992,16.404 -10.197,20.84 -16.851,29.265 -7.981,33.253 9.313,28.822 z" style="fill:url(#XMLID_6_)"/></g></mask><path id="path33" d="m 290.83,67.183 h 18.63 V 30.955 c 0,-4.518 -3.663,-8.181 -8.182,-8.181 H 259.841 V 2.494 c 0,-2.007 -1.625,-3.632 -3.63,-3.632 h -18.95 c -2.006,0 -3.631,1.625 -3.631,3.632 v 20.28 h -41.438 c -4.518,0 -8.182,3.663 -8.182,8.181 v 41.551 h -19.287 c -2.004,0 -3.629,1.626 -3.629,3.631 v 18.949 c 0,2.006 1.625,3.632 3.629,3.632 h 19.287 v 41.324 c 0,4.519 3.664,8.18 8.182,8.18 h 36.112 v -18.109 c 0,-2.819 2.286,-5.104 5.104,-5.104 h 26.648 c 2.819,0 5.107,2.284 5.107,5.104 v 18.109 h 36.112 c 4.519,0 8.182,-3.661 8.182,-8.18 v -36 h -18.63 c -2.818,0 -5.104,-2.287 -5.104,-5.106 v -26.65 c 0.004,-2.817 2.289,-5.103 5.107,-5.103 z" mask="url(#XMLID_5_)" style="fill:#fff"/></g></svg>