<svg xmlns="http://www.w3.org/2000/svg" xmlns:xlink="http://www.w3.org/1999/xlink" id="Layer_1" width="139.49" height="128.666" enable-background="new 0 0 139.49 128.666" overflow="visible" version="1.1" viewBox="0 0 139.49 128.666" xml:space="preserve"><g><linearGradient id="XMLID_4_" x1="64.284" x2="8.598" y1="118.272" y2="21.483" gradientUnits="userSpaceOnUse"><stop offset="0" style="stop-color:#00c109"/><stop offset="1" style="stop-color:#42ea42"/></linearGradient><polygon fill="url(#XMLID_4_)" points="9.745 23.433 9.745 103.954 67.442 123.661 67.442 43.282"/><linearGradient id="XMLID_5_" x1="65.522" x2="131.582" y1="38.395" y2="110.125" gradientUnits="userSpaceOnUse"><stop offset="0" style="stop-color:#00c109"/><stop offset="1" style="stop-color:#42ea42"/></linearGradient><polygon fill="url(#XMLID_5_)" points="67.442 43.282 129.392 24.567 129.745 105.161 67.442 123.661"/><linearGradient id="XMLID_6_" x1="108.961" x2="12.175" y1="13.312" y2="39.829" gradientUnits="userSpaceOnUse"><stop offset="0" style="stop-color:#00c109"/><stop offset="1" style="stop-color:#42ea42"/></linearGradient><polygon fill="url(#XMLID_6_)" points="9.745 23.433 71.271 5.005 129.392 24.567 67.583 43.282"/><polygon fill="#FFF" points="69.325 123.103 69.258 45.095 129.402 27.042 129.392 24.567 126.556 23.612 67.692 41.274 12.522 22.603 9.745 23.433 9.745 25.993 65.15 44.753 65.221 122.903 67.442 123.661" opacity=".3"/></g></svg>