<svg xmlns="http://www.w3.org/2000/svg" xmlns:xlink="http://www.w3.org/1999/xlink" id="Layer_1" width="179" height="179" enable-background="new 0 0 179 179" overflow="visible" version="1.1" viewBox="0 0 179 179" xml:space="preserve"><g><path fill="#006B33" d="M169.151,71.034L169.151,71.034l-6.446-6.689l-1.479,5.64h-13.911V28.66c0-2.22-0.887-4.23-2.323-5.706l0,0 l-0.006-0.006c-0.034-0.032-0.063-0.066-0.097-0.101l-6.557-6.832l-1.068,4.463h-34.244V38.59c0,2.818-2.287,5.105-5.104,5.105 H71.268c-2.819,0-5.104-2.287-5.104-5.105V20.479l-6.799-7.094l-0.707,7.094h-28.61c-4.515,0-8.183,3.665-8.183,8.182v26.367 l-6.797,2.537l6.797,7.096h18.631c2.816,0,5.105,2.288,5.105,5.105v26.647c0,2.82-2.289,5.106-5.105,5.106H21.864v34.139 l-4.515,0.654l6.714,7h0.002c1.492,1.604,3.617,2.614,5.981,2.614h41.437v13.977l-5.746,1.062l6.805,7.099 c0.002,0.005,0.008,0.009,0.012,0.014l0.004,0.005h0.002c0.656,0.65,1.56,1.056,2.557,1.056h18.949 c2.006,0,3.633-1.627,3.633-3.633v-19.578h41.434c4.52,0,8.184-3.663,8.184-8.182v-41.55h19.286c2.004,0,3.63-1.623,3.63-3.629 V73.615C170.231,72.604,169.817,71.693,169.151,71.034z"/><linearGradient id="XMLID_4_" x1="131.897" x2="45.438" y1="129.382" y2="44.254" gradientUnits="userSpaceOnUse"><stop offset="0" style="stop-color:#00a33d"/><stop offset="1" style="stop-color:#00c109"/></linearGradient><path fill="url(#XMLID_4_)" d="M33.696,94.425H15.067v36.229c0,4.517,3.664,8.181,8.18,8.181h41.438v19.578 c0,2.003,1.626,3.63,3.632,3.63h18.948c2.007,0,3.632-1.627,3.632-3.63v-19.578h41.436c4.52,0,8.184-3.664,8.184-8.181V89.103 h19.287c2.004,0,3.629-1.626,3.629-3.631V66.521c0-2.005-1.625-3.631-3.629-3.631h-19.287V21.565c0-4.518-3.664-8.181-8.184-8.181 h-36.11v18.111c0,2.819-2.288,5.104-5.106,5.104H64.47c-2.822,0-5.105-2.284-5.105-5.104V13.385H23.249 c-4.518,0-8.182,3.663-8.182,8.181v35.999h18.629c2.817,0,5.104,2.288,5.104,5.106V89.32C38.8,92.14,36.514,94.425,33.696,94.425z"/><defs><filter id="Adobe_OpacityMaskFilter" width="148.365" height="148.657" x="15.067" y="13.385" filterUnits="userSpaceOnUse"><feColorMatrix type="matrix" values="1 0 0 0 0 0 1 0 0 0 0 0 1 0 0 0 0 0 1 0"/></filter></defs><mask id="XMLID_5_" width="148.365" height="148.657" x="15.067" y="13.385" maskUnits="userSpaceOnUse"><g filter="url(#Adobe_OpacityMaskFilter)"><linearGradient id="XMLID_6_" x1="19.172" x2="81.247" y1="-18.984" y2="68.807" gradientUnits="userSpaceOnUse"><stop offset="0" style="stop-color:#fff"/><stop offset="1" style="stop-color:#000"/></linearGradient><path fill="url(#XMLID_6_)" d="M-12.642,109.69c0,0,119.275-34.141,166.273-112.179L97.765-29.093L64.066-18.896L13.077-2.488 L2.879,18.351l-16.851,29.265l-7.98,33.254L-12.642,109.69z"/></g></mask><path fill="#FFF" d="M33.696,94.425H15.067v36.229c0,4.517,3.664,8.181,8.18,8.181h41.438v19.578 c0,2.003,1.626,3.63,3.632,3.63h18.948c2.007,0,3.632-1.627,3.632-3.63v-19.578h41.436c4.52,0,8.184-3.664,8.184-8.181V89.103 h19.287c2.004,0,3.629-1.626,3.629-3.631V66.521c0-2.005-1.625-3.631-3.629-3.631h-19.287V21.565c0-4.518-3.664-8.181-8.184-8.181 h-36.11v18.111c0,2.819-2.288,5.104-5.106,5.104H64.47c-2.822,0-5.105-2.284-5.105-5.104V13.385H23.249 c-4.518,0-8.182,3.663-8.182,8.181v35.999h18.629c2.817,0,5.104,2.288,5.104,5.106V89.32C38.8,92.14,36.514,94.425,33.696,94.425z" mask="url(#XMLID_5_)"/><path fill="none" stroke="#7BE500" stroke-width=".887" d="M97.995,15.158c0,2.887,0,16.338,0,16.338 c0,3.793-3.085,6.879-6.879,6.879H64.47c-3.793,0-6.879-3.086-6.879-6.879c0,0,0-13.451,0-16.338c-3.207,0-34.342,0-34.342,0 c-3.535,0-6.408,2.873-6.408,6.407c0,0,0,31.021,0,34.228c2.902,0,16.855,0,16.855,0c3.793,0,6.877,3.086,6.877,6.878V89.32 c0,3.792-3.084,6.879-6.877,6.879c0,0-13.953,0-16.855,0c0,3.207,0,34.454,0,34.454c0,3.533,2.873,6.407,6.406,6.407H66.46v21.352 c0,1.023,0.832,1.856,1.857,1.856h18.948c1.024,0,1.858-0.833,1.858-1.856v-21.352h43.209c3.535,0,6.41-2.874,6.41-6.407V87.328 h21.061c1.021,0,1.855-0.833,1.855-1.856V66.521c0-0.497-0.193-0.962-0.544-1.313c-0.353-0.352-0.817-0.545-1.312-0.545h-21.061 V21.565c0-3.534-2.875-6.407-6.41-6.407C132.333,15.158,101.202,15.158,97.995,15.158z"/></g></svg>