<svg xmlns="http://www.w3.org/2000/svg" xmlns:xlink="http://www.w3.org/1999/xlink" id="Layer_1" width="139.489" height="128.667" enable-background="new 0 0 139.489 128.667" overflow="visible" version="1.1" viewBox="0 0 139.489 128.667" xml:space="preserve"><g><linearGradient id="XMLID_4_" x1="64.286" x2="8.599" y1="118.272" y2="21.483" gradientUnits="userSpaceOnUse"><stop offset="0" style="stop-color:#fa7700"/><stop offset="1" style="stop-color:#fda904"/></linearGradient><polygon fill="url(#XMLID_4_)" points="9.746 23.433 9.746 103.956 67.443 123.661 67.443 43.281"/><linearGradient id="XMLID_5_" x1="65.522" x2="131.582" y1="38.395" y2="110.124" gradientUnits="userSpaceOnUse"><stop offset="0" style="stop-color:#fa7700"/><stop offset="1" style="stop-color:#fda904"/></linearGradient><polygon fill="url(#XMLID_5_)" points="67.443 43.281 129.394 24.569 129.744 105.161 67.443 123.661"/><linearGradient id="XMLID_6_" x1="108.962" x2="12.175" y1="13.312" y2="39.829" gradientUnits="userSpaceOnUse"><stop offset="0" style="stop-color:#fa7700"/><stop offset="1" style="stop-color:#fda904"/></linearGradient><polygon fill="url(#XMLID_6_)" points="9.746 23.433 71.271 5.005 129.394 24.569 67.585 43.281"/><polygon fill="#FFF" points="69.325 123.102 69.259 45.096 129.402 27.044 129.394 24.569 126.558 23.612 67.692 41.274 12.521 22.602 9.746 23.433 9.746 25.995 65.151 44.753 65.223 122.903 67.443 123.661" opacity=".3"/></g></svg>