<svg xmlns="http://www.w3.org/2000/svg" xmlns:xlink="http://www.w3.org/1999/xlink" id="Layer_1" width="139.489" height="128.666" enable-background="new 0 0 139.489 128.666" overflow="visible" version="1.1" viewBox="0 0 139.489 128.666" xml:space="preserve"><g><linearGradient id="XMLID_4_" x1="64.284" x2="8.598" y1="118.272" y2="21.483" gradientUnits="userSpaceOnUse"><stop offset="0" style="stop-color:#4591d6"/><stop offset="1" style="stop-color:#5ac0ff"/></linearGradient><polygon fill="url(#XMLID_4_)" points="9.745 23.433 9.745 103.955 67.442 123.66 67.442 43.281"/><linearGradient id="XMLID_5_" x1="65.522" x2="131.581" y1="38.395" y2="110.125" gradientUnits="userSpaceOnUse"><stop offset="0" style="stop-color:#4591d6"/><stop offset="1" style="stop-color:#5ac0ff"/></linearGradient><polygon fill="url(#XMLID_5_)" points="67.442 43.281 129.392 24.568 129.745 105.16 67.442 123.66"/><linearGradient id="XMLID_6_" x1="108.961" x2="12.175" y1="13.312" y2="39.829" gradientUnits="userSpaceOnUse"><stop offset="0" style="stop-color:#4591d6"/><stop offset="1" style="stop-color:#5ac0ff"/></linearGradient><polygon fill="url(#XMLID_6_)" points="9.745 23.433 71.27 5.006 129.392 24.568 67.583 43.281"/><polygon fill="#FFF" points="69.325 123.104 69.257 45.096 129.402 27.044 129.392 24.568 126.557 23.611 67.691 41.275 12.521 22.603 9.745 23.433 9.745 25.994 65.149 44.753 65.221 122.902 67.442 123.66" opacity=".3"/></g></svg>