<svg xmlns="http://www.w3.org/2000/svg" xmlns:xlink="http://www.w3.org/1999/xlink" id="Layer_1" width="122.666" height="70.666" enable-background="new 0 0 122.666 70.666" overflow="visible" version="1.1" viewBox="0 0 122.666 70.666" xml:space="preserve"><g><polygon fill="#0D69C8" points="31.939 7.729 11.402 26.384 11.59 62.937 92.609 62.937 111.264 43.718 111.264 8.107"/><linearGradient id="XMLID_10_" x1="86.506" x2="10.764" y1="62.213" y2="23.776" gradientUnits="userSpaceOnUse"><stop offset="0" style="stop-color:#1b3962"/><stop offset="1" style="stop-color:#0d69c8"/></linearGradient><polyline fill="url(#XMLID_10_)" points="11.59 26.761 92.609 26.761 92.609 62.937 11.968 62.937"/><linearGradient id="XMLID_11_" x1="110.371" x2="86.632" y1="39.99" y2="27.555" gradientUnits="userSpaceOnUse"><stop offset="0" style="stop-color:#1b3962"/><stop offset="1" style="stop-color:#0d69c8"/></linearGradient><polygon fill="url(#XMLID_11_)" points="111.074 8.107 92.609 26.761 92.609 62.937 111.074 43.341"/><linearGradient id="XMLID_12_" x1="141.352" x2="29.432" y1="-9.913" y2="28.524" gradientUnits="userSpaceOnUse"><stop offset="0" style="stop-color:#1b3962"/><stop offset="1" style="stop-color:#0d69c8"/></linearGradient><polygon fill="url(#XMLID_12_)" points="31.939 7.729 111.074 8.107 92.609 26.761 11.59 26.761"/><polygon fill="#FFF" points="12.815 25.536 91.951 25.347 108.908 7.824 111.074 8.107 93.081 26.666 11.59 26.761" opacity=".1"/><polygon fill="#FFF" points="91.898 26.348 91.903 62.418 93.316 62.513 93.316 26.336" opacity=".1"/></g></svg>