<svg xmlns="http://www.w3.org/2000/svg" xmlns:xlink="http://www.w3.org/1999/xlink" id="Layer_1" width="107" height="100" enable-background="new 0 0 107 100" overflow="visible" version="1.1" viewBox="0 0 107 100" xml:space="preserve"><g><g><defs><circle id="XMLID_1_" cx="53.018" cy="50.359" r="44.362"/></defs><linearGradient id="XMLID_10_" x1="-10.07" x2="79.93" y1="37.742" y2="55.742" gradientUnits="userSpaceOnUse"><stop offset="0" style="stop-color:#ffc10e"/><stop offset="1" style="stop-color:#f16422"/></linearGradient><use fill="url(#XMLID_10_)" xlink:href="#XMLID_1_"/><clipPath id="XMLID_11_"><use xlink:href="#XMLID_1_"/></clipPath><defs><filter id="Adobe_OpacityMaskFilter" width="100.296" height="85.939" x="2.491" y="-21.688" filterUnits="userSpaceOnUse"><feColorMatrix type="matrix" values="1 0 0 0 0 0 1 0 0 0 0 0 1 0 0 0 0 0 1 0"/></filter></defs><mask id="XMLID_12_" width="100.296" height="85.939" x="2.491" y="-21.688" maskUnits="userSpaceOnUse"><g clip-path="url(#XMLID_11_)" filter="url(#Adobe_OpacityMaskFilter)"><linearGradient id="XMLID_13_" x1="183.796" x2="237.959" y1="-380.721" y2="-337.126" gradientTransform="matrix(0.8962 0.4437 -0.4437 0.8962 -290.3355 261.1143)" gradientUnits="userSpaceOnUse"><stop offset="0" style="stop-color:#fff"/><stop offset="1" style="stop-color:#000"/></linearGradient><path fill="url(#XMLID_13_)" d="M100.946,51.074C87.835,77.557,57.063,89.049,32.218,76.746 C7.37,64.445-2.142,33.005,10.97,6.523c13.111-26.48,43.883-37.975,68.73-25.672C104.546-6.846,114.058,24.593,100.946,51.074z"/></g></mask><ellipse cx="52.639" cy="21.282" fill="#FFF" clip-path="url(#XMLID_11_)" mask="url(#XMLID_12_)" opacity=".45" rx="41.105" ry="51.666" transform="matrix(0.3991 0.9169 -0.9169 0.3991 51.147 -35.4765)"/></g><g><defs><circle id="XMLID_6_" cx="53.018" cy="50.359" r="44.362"/></defs><clipPath id="XMLID_14_"><use xlink:href="#XMLID_6_"/></clipPath><defs><filter id="Adobe_OpacityMaskFilter_1_" width="87.346" height="99.065" x="-12.828" y="-15.51" filterUnits="userSpaceOnUse"><feColorMatrix type="matrix" values="1 0 0 0 0 0 1 0 0 0 0 0 1 0 0 0 0 0 1 0"/></filter></defs><mask id="XMLID_15_" width="87.346" height="99.065" x="-12.828" y="-15.51" maskUnits="userSpaceOnUse"><g clip-path="url(#XMLID_14_)" filter="url(#Adobe_OpacityMaskFilter_1_)"><linearGradient id="XMLID_2_" x1="-94.234" x2="-40.071" y1="135.389" y2="178.983" gradientTransform="matrix(0.978 -0.2087 0.2087 0.978 75.1313 -127.7948)" gradientUnits="userSpaceOnUse"><stop offset="0" style="stop-color:#fff"/><stop offset="1" style="stop-color:#000"/></linearGradient><path fill="url(#XMLID_2_)" d="M87.212,27.38c6.166,28.899-10.816,57.016-37.932,62.801S-4.815,77.229-10.979,48.33 C-17.146,19.431-0.163-8.686,26.952-14.471S81.046-1.518,87.212,27.38z"/></g></mask><ellipse cx="30.845" cy="34.023" fill="#FFF" clip-path="url(#XMLID_14_)" mask="url(#XMLID_15_)" opacity=".3" rx="41.105" ry="51.667" transform="matrix(0.8822 0.4709 -0.4709 0.8822 19.657 -10.5168)"/></g><ellipse cx="36.081" cy="16.772" fill="#FFF" opacity=".7" rx="8.527" ry="4.939" transform="matrix(0.9343 -0.3565 0.3565 0.9343 -3.6086 13.9655)"/><ellipse cx="24.451" cy="24.504" fill="#FFF" opacity=".93" rx="3.119" ry="2.389" transform="matrix(0.6848 -0.7287 0.7287 0.6848 -10.1502 25.5399)"/></g></svg>