<svg xmlns="http://www.w3.org/2000/svg" xmlns:xlink="http://www.w3.org/1999/xlink" id="Layer_1" width="139.489" height="128.666" enable-background="new 0 0 139.489 128.666" overflow="visible" version="1.1" viewBox="0 0 139.489 128.666" xml:space="preserve"><g><linearGradient id="XMLID_4_" x1="64.284" x2="8.598" y1="118.272" y2="21.484" gradientUnits="userSpaceOnUse"><stop offset="0" style="stop-color:#a11c15"/><stop offset="1" style="stop-color:#ba3704"/></linearGradient><polygon fill="url(#XMLID_4_)" points="9.745 23.433 9.745 103.956 67.441 123.662 67.441 43.282"/><linearGradient id="XMLID_5_" x1="65.52" x2="131.58" y1="38.396" y2="110.125" gradientUnits="userSpaceOnUse"><stop offset="0" style="stop-color:#a11c15"/><stop offset="1" style="stop-color:#ba3704"/></linearGradient><polygon fill="url(#XMLID_5_)" points="67.441 43.282 129.393 24.569 129.744 105.16 67.441 123.662"/><linearGradient id="XMLID_6_" x1="108.961" x2="12.175" y1="13.313" y2="39.83" gradientUnits="userSpaceOnUse"><stop offset="0" style="stop-color:#a11c15"/><stop offset="1" style="stop-color:#ba3704"/></linearGradient><polygon fill="url(#XMLID_6_)" points="9.745 23.433 71.271 5.005 129.393 24.569 67.584 43.282"/><polygon fill="#FFF" points="69.324 123.103 69.258 45.096 129.401 27.044 129.393 24.569 126.557 23.612 67.69 41.274 12.521 22.603 9.745 23.433 9.745 25.995 65.15 44.754 65.221 122.903 67.441 123.662" opacity=".3"/></g></svg>