<svg xmlns="http://www.w3.org/2000/svg" xmlns:xlink="http://www.w3.org/1999/xlink" id="Layer_1" width="122.666" height="70.666" enable-background="new 0 0 122.666 70.666" overflow="visible" version="1.1" viewBox="0 0 122.666 70.666" xml:space="preserve"><g><linearGradient id="XMLID_11_" x1="11.402" x2="111.263" y1="35.333" y2="35.333" gradientUnits="userSpaceOnUse"><stop offset="0" style="stop-color:#cc0212"/><stop offset="1" style="stop-color:#ff5f06"/></linearGradient><polygon fill="url(#XMLID_11_)" points="31.939 7.729 11.402 26.383 11.59 62.937 92.609 62.937 111.263 43.718 111.263 8.108"/><linearGradient id="XMLID_12_" x1="86.507" x2="10.764" y1="62.213" y2="23.776" gradientUnits="userSpaceOnUse"><stop offset="0" style="stop-color:#cc0212"/><stop offset="1" style="stop-color:#ff5f06"/></linearGradient><polyline fill="url(#XMLID_12_)" points="11.59 26.76 92.609 26.76 92.609 62.937 11.968 62.937"/><linearGradient id="XMLID_13_" x1="110.372" x2="86.631" y1="39.991" y2="27.555" gradientUnits="userSpaceOnUse"><stop offset="0" style="stop-color:#cc0212"/><stop offset="1" style="stop-color:#ff5f06"/></linearGradient><polygon fill="url(#XMLID_13_)" points="111.074 8.108 92.609 26.76 92.609 62.937 111.074 43.341"/><linearGradient id="XMLID_14_" x1="108.6" x2="48.118" y1="5.123" y2="20.95" gradientUnits="userSpaceOnUse"><stop offset="0" style="stop-color:#cc0212"/><stop offset="1" style="stop-color:#ff5f06"/></linearGradient><polygon fill="url(#XMLID_14_)" points="31.939 7.729 111.074 8.108 92.609 26.76 11.59 26.76"/><polygon fill="#FFF" points="12.815 25.535 91.951 25.347 108.908 7.824 111.074 8.108 93.081 26.666 11.59 26.76" opacity=".1"/><polygon fill="#FFF" points="91.898 26.348 91.903 62.416 93.315 62.512 93.315 26.336" opacity=".1"/></g></svg>