<svg xmlns="http://www.w3.org/2000/svg" xmlns:xlink="http://www.w3.org/1999/xlink" id="Layer_1" width="122.666" height="70.666" enable-background="new 0 0 122.666 70.666" overflow="visible" version="1.1" viewBox="0 0 122.666 70.666" xml:space="preserve"><g><linearGradient id="XMLID_12_" x1="11.402" x2="111.263" y1="35.333" y2="35.333" gradientUnits="userSpaceOnUse"><stop offset="0" style="stop-color:#b0ff78"/><stop offset="1" style="stop-color:#00c400"/></linearGradient><polygon fill="url(#XMLID_12_)" points="31.939 7.73 11.402 26.383 11.59 62.936 92.61 62.936 111.263 43.717 111.263 8.107"/><linearGradient id="XMLID_13_" x1="86.507" x2="10.764" y1="62.213" y2="23.776" gradientUnits="userSpaceOnUse"><stop offset="0" style="stop-color:#00c109"/><stop offset="1" style="stop-color:#42ea42"/></linearGradient><polyline fill="url(#XMLID_13_)" points="11.59 26.76 92.61 26.76 92.61 62.936 11.968 62.936"/><linearGradient id="XMLID_14_" x1="110.373" x2="86.632" y1="39.99" y2="27.554" gradientUnits="userSpaceOnUse"><stop offset="0" style="stop-color:#00c109"/><stop offset="1" style="stop-color:#42ea42"/></linearGradient><polygon fill="url(#XMLID_14_)" points="111.075 8.107 92.61 26.76 92.61 62.936 111.075 43.341"/><linearGradient id="XMLID_15_" x1="108.601" x2="48.119" y1="5.123" y2="20.951" gradientUnits="userSpaceOnUse"><stop offset="0" style="stop-color:#00c109"/><stop offset="1" style="stop-color:#42ea42"/></linearGradient><polygon fill="url(#XMLID_15_)" points="31.94 7.73 111.075 8.107 92.61 26.76 11.59 26.76"/><linearGradient id="XMLID_16_" x1="11.59" x2="111.075" y1="17.292" y2="17.292" gradientUnits="userSpaceOnUse"><stop offset="0" style="stop-color:#b0ff78"/><stop offset="1" style="stop-color:#00c400"/></linearGradient><polygon fill="url(#XMLID_16_)" points="12.815 25.536 91.95 25.347 108.908 7.824 111.075 8.107 93.081 26.666 11.59 26.76" opacity=".1"/><polygon fill="#FFF" points="91.898 26.347 91.903 62.417 93.316 62.512 93.316 26.336" opacity=".1"/></g></svg>