<svg xmlns="http://www.w3.org/2000/svg" xmlns:xlink="http://www.w3.org/1999/xlink" id="Layer_1" width="107" height="100" enable-background="new 0 0 107 100" overflow="visible" version="1.1" viewBox="0 0 107 100" xml:space="preserve"><g><g><defs><circle id="XMLID_1_" cx="54.278" cy="50.093" r="44.363"/></defs><radialGradient id="XMLID_11_" cx="32.106" cy="33.757" r="68.531" gradientUnits="userSpaceOnUse"><stop offset="0" style="stop-color:#00c109"/><stop offset="1" style="stop-color:#0d6001"/></radialGradient><use fill="url(#XMLID_11_)" xlink:href="#XMLID_1_"/><clipPath id="XMLID_12_"><use xlink:href="#XMLID_1_"/></clipPath><defs><filter id="Adobe_OpacityMaskFilter" width="100.297" height="85.939" x="3.752" y="-21.954" filterUnits="userSpaceOnUse"><feColorMatrix type="matrix" values="1 0 0 0 0 0 1 0 0 0 0 0 1 0 0 0 0 0 1 0"/></filter></defs><mask id="XMLID_13_" width="100.297" height="85.939" x="3.752" y="-21.954" maskUnits="userSpaceOnUse"><g clip-path="url(#XMLID_12_)" filter="url(#Adobe_OpacityMaskFilter)"><linearGradient id="XMLID_14_" x1="184.809" x2="238.972" y1="-381.519" y2="-337.923" gradientTransform="matrix(0.8962 0.4437 -0.4437 0.8962 -290.3355 261.1143)" gradientUnits="userSpaceOnUse"><stop offset="0" style="stop-color:#fff"/><stop offset="1" style="stop-color:#000"/></linearGradient><path fill="url(#XMLID_14_)" d="M102.208,50.808C89.097,77.291,58.325,88.783,33.479,76.48C8.632,64.18-0.88,32.74,12.231,6.257 c13.111-26.48,43.883-37.975,68.729-25.672S115.319,24.328,102.208,50.808z"/></g></mask><ellipse cx="53.9" cy="21.016" fill="#FFF" clip-path="url(#XMLID_12_)" mask="url(#XMLID_13_)" opacity=".45" rx="41.105" ry="51.668" transform="matrix(0.3991 0.9169 -0.9169 0.3991 51.6616 -36.793)"/><g clip-path="url(#XMLID_12_)"><radialGradient id="XMLID_15_" cx="31.104" cy="27.121" r="53.01" gradientUnits="userSpaceOnUse"><stop offset="0" style="stop-color:#87609a"/><stop offset=".325" style="stop-color:#704e84"/><stop offset=".739" style="stop-color:#593c6d"/><stop offset="1" style="stop-color:#513565"/></radialGradient><circle cx="54.278" cy="50.093" r="44.363" fill="url(#XMLID_15_)"/></g></g><g><defs><circle id="XMLID_7_" cx="54.278" cy="50.093" r="44.363"/></defs><clipPath id="XMLID_16_"><use xlink:href="#XMLID_7_"/></clipPath><defs><filter id="Adobe_OpacityMaskFilter_1_" width="87.347" height="99.065" x="-11.567" y="-15.775" filterUnits="userSpaceOnUse"><feColorMatrix type="matrix" values="1 0 0 0 0 0 1 0 0 0 0 0 1 0 0 0 0 0 1 0"/></filter></defs><mask id="XMLID_17_" width="87.347" height="99.065" x="-11.567" y="-15.775" maskUnits="userSpaceOnUse"><g clip-path="url(#XMLID_16_)" filter="url(#Adobe_OpacityMaskFilter_1_)"><linearGradient id="XMLID_2_" x1="-92.946" x2="-38.783" y1="135.392" y2="178.986" gradientTransform="matrix(0.978 -0.2087 0.2087 0.978 75.1313 -127.7948)" gradientUnits="userSpaceOnUse"><stop offset="0" style="stop-color:#fff"/><stop offset="1" style="stop-color:#000"/></linearGradient><path fill="url(#XMLID_2_)" d="M88.474,27.115c6.164,28.899-10.816,57.016-37.934,62.801 C23.427,95.701-3.554,76.963-9.718,48.064C-15.884,19.166,1.099-8.952,28.214-14.737C55.327-20.522,82.308-1.784,88.474,27.115z"/></g></mask><ellipse cx="32.106" cy="33.757" fill="#FFF" clip-path="url(#XMLID_16_)" mask="url(#XMLID_17_)" opacity=".3" rx="41.105" ry="51.669" transform="matrix(0.8822 0.4709 -0.4709 0.8822 19.6802 -11.1422)"/></g><ellipse cx="37.343" cy="16.506" fill="#FFF" opacity=".7" rx="8.527" ry="4.939" transform="matrix(0.9343 -0.3565 0.3565 0.9343 -3.431 14.3979)"/><ellipse cx="25.713" cy="24.239" fill="#FFF" opacity=".93" rx="3.119" ry="2.389" transform="matrix(0.6848 -0.7287 0.7287 0.6848 -9.559 26.3756)"/></g></svg>