<svg xmlns="http://www.w3.org/2000/svg" xmlns:xlink="http://www.w3.org/1999/xlink" id="Layer_1" width="284" height="292" enable-background="new 0 0 284 292" overflow="visible" version="1.1" viewBox="0 0 284 292" xml:space="preserve"><linearGradient id="XMLID_6_" x1="67.336" x2="298.298" y1="245.273" y2="245.273" gradientTransform="matrix(-0.9965 -0.0835 -0.0835 0.9965 330.6945 13.8049)" gradientUnits="userSpaceOnUse"><stop offset="0" style="stop-color:#00bc00"/><stop offset="1" style="stop-color:#029902"/></linearGradient><linearGradient id="XMLID_7_" x1="38.69" x2="170.648" y1="122.056" y2="122.056" gradientTransform="matrix(-0.9965 -0.0835 -0.0835 0.9965 330.6945 13.8049)" gradientUnits="userSpaceOnUse"><stop offset="0" style="stop-color:#ffc10e"/><stop offset="1" style="stop-color:#f16422"/></linearGradient><linearGradient id="XMLID_8_" x1="18.773" x2="67.439" y1="228.357" y2="118.358" gradientUnits="userSpaceOnUse"><stop offset="0" style="stop-color:#0d69c8"/><stop offset="1" style="stop-color:#0683f4"/></linearGradient><path fill="url(#XMLID_8_)" d="M150.584,42.677L128.139,4.974l-0.833,21.347C107.652,26.55,63.075,42.44,35.7,82.251	C0.379,137.376,16.012,187.62,24.104,206.243l12.708-18.821l19.91,0.462c-8.185-21.389-10.634-54.996,9.461-85.016	c22.444-32.835,59.667-39.124,59.667-39.124l-0.754,19.378L150.584,42.677z"/><linearGradient id="XMLID_9_" x1="205.597" x2="97.596" y1="298.837" y2="207.504" gradientUnits="userSpaceOnUse"><stop offset="0" style="stop-color:#00bc00"/><stop offset="1" style="stop-color:#029902"/></linearGradient><path fill="url(#XMLID_9_)" d="M40.826,204.048l-21.43,38.29l18.904-9.951c10.025,16.905,46.074,47.564,94.239,51.366	c65.4,3.027,101.096-35.633,113.178-51.953l-22.652-1.595l-9.556-17.473c-14.431,17.782-42.311,36.706-78.357,34.314	c-39.658-3.021-63.716-32.113-63.716-32.113l17.16-9.035L40.826,204.048z"/><linearGradient id="XMLID_10_" x1="188.13" x2="254.797" y1="15.058" y2="219.726" gradientUnits="userSpaceOnUse"><stop offset="0" style="stop-color:#ffc10e"/><stop offset="1" style="stop-color:#f16422"/></linearGradient><path fill="url(#XMLID_10_)" d="M236.8,217.37l43.876-0.586l-18.071-11.396c9.63-17.136,18.155-63.684-2.635-107.297	c-30.078-58.152-81.406-69.736-101.582-72.039l9.946,20.416L157.979,63.48c22.616,3.606,52.944,18.289,68.896,50.702	c17.213,35.855,4.047,71.235,4.047,71.235l-16.404-10.342L236.8,217.37z"/></svg>