<svg xmlns="http://www.w3.org/2000/svg" xmlns:xlink="http://www.w3.org/1999/xlink" id="Layer_1" width="284" height="292" enable-background="new 0 0 284 292" overflow="visible" version="1.1" viewBox="0 0 284 292" xml:space="preserve"><linearGradient id="XMLID_7_" x1="196.49" x2="215.824" y1="289.988" y2="39.985" gradientTransform="matrix(0.9945 -0.1046 0.1046 0.9945 -15.0327 16.1423)" gradientUnits="userSpaceOnUse"><stop offset="0" style="stop-color:#0d69c8"/><stop offset="1" style="stop-color:#0683f4"/></linearGradient><path fill="url(#XMLID_7_)" d="M152.344,22.302l11.328,18.346L152.445,57.59c23.46,2.474,81.017,19.208,83.503,87.947	c0,0,2.52,65.02-68.8,86.941l-0.688-18.659l-22.408,40.834l25.176,34.409l-0.756-20.55c0,0,100.064-15.778,104.25-123.37	C266.989,44.001,183.758,24.1,152.344,22.302z"/><linearGradient id="XMLID_8_" x1="314.493" x2="333.827" y1="311.317" y2="61.315" gradientTransform="matrix(-0.9945 0.1046 -0.1046 -0.9945 421.7739 286.2596)" gradientUnits="userSpaceOnUse"><stop offset="0" style="stop-color:#ffc10e"/><stop offset="1" style="stop-color:#f16422"/></linearGradient><path fill="url(#XMLID_8_)" d="M134.813,271.231l-11.329-18.347l11.227-16.941c-23.459-2.473-81.016-19.208-83.502-87.946	c0,0-2.52-65.021,68.799-86.942l0.688,18.659l22.409-40.833l-25.176-34.41l0.755,20.55c0,0-100.064,15.778-104.25,123.37	C20.167,249.531,103.398,269.433,134.813,271.231z"/></svg>