<svg xmlns="http://www.w3.org/2000/svg" xmlns:xlink="http://www.w3.org/1999/xlink" width="401" height="390" enable-background="new 0 0 401 390" overflow="visible" version="1.1" viewBox="0 0 401 390" xml:space="preserve"><g id="Layer_1"><g><defs><filter id="Adobe_OpacityMaskFilter" width="179.451" height="219.357" x="7.362" y="46.15" filterUnits="userSpaceOnUse"><feColorMatrix type="matrix" values="1 0 0 0 0 0 1 0 0 0 0 0 1 0 0 0 0 0 1 0"/></filter></defs><mask id="XMLID_14_" width="179.451" height="219.357" x="7.362" y="46.15" maskUnits="userSpaceOnUse"><g filter="url(#Adobe_OpacityMaskFilter)"><linearGradient id="XMLID_15_" x1="60.369" x2="165.228" y1="216.895" y2="24.392" gradientUnits="userSpaceOnUse"><stop offset="0" style="stop-color:#fff"/><stop offset="1" style="stop-color:#000"/></linearGradient><polygon fill="url(#XMLID_15_)" points="156.575 45.695 57.977 72.303 32.934 125.515 14.153 199.073 37.626 253.852 68.931 266.37 83.017 266.37 131.531 203.771 148.75 164.642 122.143 164.642 157.354 129.428 197.267 114.561 211.351 87.955 197.267 37.874"/></g></mask><linearGradient id="XMLID_16_" x1="7.362" x2="186.814" y1="155.829" y2="155.829" gradientUnits="userSpaceOnUse"><stop offset="0" style="stop-color:#0d69c8"/><stop offset="1" style="stop-color:#0683f4"/></linearGradient><path fill="url(#XMLID_16_)" d="M186.813,114.217L135.73,79.294l31.581-33.144 C112.191,57.504,56.494,93.813,45.948,191.443l-25.986,2.736l-12.6,1.327l73.474,70.001l57.271-83.772l-36.111,3.248 C101.996,184.983,121.275,115.646,186.813,114.217z" mask="url(#XMLID_14_)"/><linearGradient id="XMLID_17_" x1="14.92" x2="35.754" y1="196.121" y2="209.955" gradientUnits="userSpaceOnUse"><stop offset="0" style="stop-color:#0d69c8"/><stop offset="1" style="stop-color:#0683f4"/></linearGradient><polygon fill="url(#XMLID_17_)" points="22.496 193.913 7.362 195.507 17.174 204.854 17.174 198.392"/><defs><filter id="Adobe_OpacityMaskFilter_1_" width="218.165" height="173.826" x="135.73" y="5.822" filterUnits="userSpaceOnUse"><feColorMatrix type="matrix" values="1 0 0 0 0 0 1 0 0 0 0 0 1 0 0 0 0 0 1 0"/></filter></defs><mask id="XMLID_18_" width="218.165" height="173.826" x="135.73" y="5.822" maskUnits="userSpaceOnUse"><g filter="url(#Adobe_OpacityMaskFilter_1_)"><linearGradient id="XMLID_1_" x1="117.447" x2="238.4" y1="66.043" y2="66.043" gradientUnits="userSpaceOnUse"><stop offset="0" style="stop-color:#0d69c8"/><stop offset="1" style="stop-color:#1b3962"/></linearGradient><polyline fill="url(#XMLID_1_)" points="214.481 -5.95 117.447 76.998 211.353 138.037 238.4 122.554"/><linearGradient id="XMLID_2_" x1="244.254" x2="349.112" y1="73.841" y2="206.871" gradientUnits="userSpaceOnUse"><stop offset="0" style="stop-color:#fff"/><stop offset="1" style="stop-color:#000"/></linearGradient><polygon fill="url(#XMLID_2_)" points="229.487 113.641 262.999 156.815 277.083 172.467 249.696 209.246 424.198 200.64 397.592 106.736 325.602 53.522 275.519 23.787 233.262 23.787 219.96 -11.427 197.267 -11.427 114.707 71.128 207.281 135.39 229.487 144.294"/></g></mask><linearGradient id="XMLID_3_" x1="135.731" x2="353.896" y1="92.735" y2="92.735" gradientUnits="userSpaceOnUse"><stop offset="0" style="stop-color:#0d69c8"/><stop offset="1" style="stop-color:#1b3962"/></linearGradient><path fill="url(#XMLID_3_)" d="M216.256,100.454c0,0,65.343,18.171,70.473,79.194l34.479-50.44 l32.688,31.143c-12.603-53.304-49.662-105.746-144.095-115.945l-4.064-38.583L135.73,79.294l83.778,57.274L216.256,100.454z" mask="url(#XMLID_18_)"/><defs><filter id="Adobe_OpacityMaskFilter_2_" width="218.165" height="173.826" x="48.15" y="215.074" filterUnits="userSpaceOnUse"><feColorMatrix type="matrix" values="1 0 0 0 0 0 1 0 0 0 0 0 1 0 0 0 0 0 1 0"/></filter></defs><mask id="XMLID_4_" width="218.165" height="173.826" x="48.15" y="215.074" maskUnits="userSpaceOnUse"><g filter="url(#Adobe_OpacityMaskFilter_2_)"><linearGradient id="XMLID_5_" x1="169.809" x2="25.823" y1="319.59" y2="258.553" gradientUnits="userSpaceOnUse"><stop offset="0" style="stop-color:#fff"/><stop offset="1" style="stop-color:#000"/></linearGradient><polygon fill="url(#XMLID_5_)" points="25.11 235.072 95.539 246.025 90.843 188.119 212.918 244.461 243.439 274.979 295.084 326.628 228.572 393.145 167.53 416.619 167.53 363.407 61.108 336.799 31.369 289.849"/></g></mask><path fill="#31A7FF" d="M182.539,258.151l3.252,36.111c0,0-65.344-18.168-70.472-79.188l-34.483,50.434 L48.15,234.369c12.601,53.302,49.66,105.745,144.098,115.947l4.063,38.584l70.005-73.472L182.539,258.151z" mask="url(#XMLID_4_)"/><defs><filter id="Adobe_OpacityMaskFilter_3_" width="179.451" height="219.361" x="215.232" y="129.208" filterUnits="userSpaceOnUse"><feColorMatrix type="matrix" values="1 0 0 0 0 0 1 0 0 0 0 0 1 0 0 0 0 0 1 0"/></filter></defs><mask id="XMLID_6_" width="179.451" height="219.361" x="215.232" y="129.208" maskUnits="userSpaceOnUse"><g filter="url(#Adobe_OpacityMaskFilter_3_)"><linearGradient id="XMLID_7_" x1="323.449" x2="202.94" y1="240.457" y2="354.705" gradientUnits="userSpaceOnUse"><stop offset="0" style="stop-color:#fff"/><stop offset="1" style="stop-color:#000"/></linearGradient><polygon fill="url(#XMLID_7_)" points="317.777 112.997 256.74 191.25 173.793 233.507 147.97 259.328 258.304 385.316 378.813 336.799 417.939 167.774"/></g></mask><linearGradient id="XMLID_8_" x1="215.232" x2="394.684" y1="238.889" y2="238.889" gradientUnits="userSpaceOnUse"><stop offset="0" style="stop-color:#0078a3"/><stop offset="1" style="stop-color:#00a0da"/></linearGradient><path fill="url(#XMLID_8_)" d="M321.208,129.208l-57.27,83.779l36.112-3.252 c0,0-19.277,69.339-84.818,70.771l51.083,34.923l-31.579,33.141c55.119-11.355,110.818-47.661,121.364-145.295l38.583-4.063 L321.208,129.208z" mask="url(#XMLID_6_)"/></g></g></svg>