<svg xmlns="http://www.w3.org/2000/svg" xmlns:xlink="http://www.w3.org/1999/xlink" id="Layer_1" width="313.178" height="322" enable-background="new 0 0 313.178 322" overflow="visible" version="1.1" viewBox="0 0 313.178 322" xml:space="preserve"><linearGradient id="XMLID_8_" x1="194.403" x2="339.059" y1="245.372" y2="245.372" gradientTransform="matrix(-0.9965 -0.0835 -0.0835 0.9965 361.04 -5.693)" gradientUnits="userSpaceOnUse"><stop offset="0" style="stop-color:#0d69c8"/><stop offset="1" style="stop-color:#0683f4"/></linearGradient><linearGradient id="XMLID_9_" x1="59.763" x2="197.643" y1="262.636" y2="262.636" gradientTransform="matrix(-0.9965 -0.0835 -0.0835 0.9965 361.04 -5.693)" gradientUnits="userSpaceOnUse"><stop offset="0" style="stop-color:#4591d6"/><stop offset="1" style="stop-color:#5ac0ff"/></linearGradient><linearGradient id="XMLID_10_" x1="39.171" x2="183.83" y1="125.375" y2="125.375" gradientTransform="matrix(-0.9965 -0.0835 -0.0835 0.9965 361.04 -5.693)" gradientUnits="userSpaceOnUse"><stop offset="0" style="stop-color:#5ac0ff"/><stop offset="1" style="stop-color:#92dbff"/></linearGradient><linearGradient id="XMLID_11_" x1="140.565" x2="83.554" y1="153.109" y2="56.939" gradientTransform="matrix(0.996 -0.0891 0.0891 0.996 -14.4262 14.84)" gradientUnits="userSpaceOnUse"><stop offset="0" style="stop-color:#143777"/><stop offset=".854" style="stop-color:#1d68aa"/></linearGradient><path fill="url(#XMLID_11_)" d="M165.073,50.738L142.79,12.932l-0.924,21.349C75.319,41.7,33.619,96.468,28.279,147.668	l18.936-9.693l17.826,14.897c10.159-71.305,75.16-81.092,75.16-81.092l-0.797,19.292L165.073,50.738z"/><linearGradient id="XMLID_12_" x1="106.045" x2="60.556" y1="199.703" y2="231.948" gradientTransform="matrix(0.996 -0.0891 0.0891 0.996 -14.4262 14.84)" gradientUnits="userSpaceOnUse"><stop offset="0" style="stop-color:#0d69c8"/><stop offset="1" style="stop-color:#0683f4"/></linearGradient><path fill="url(#XMLID_12_)" d="M44.369,154.639L6.562,176.922l21.349,0.925c7.419,66.546,62.187,108.247,113.386,113.587	l-9.692-18.937l14.896-17.826c-71.305-10.158-81.092-75.16-81.092-75.16l19.292,0.797L44.369,154.639z"/><linearGradient id="XMLID_13_" x1="230.6" x2="201.808" y1="265.898" y2="218.104" gradientTransform="matrix(0.996 -0.0891 0.0891 0.996 -14.4262 14.84)" gradientUnits="userSpaceOnUse"><stop offset="0" style="stop-color:#4591d6"/><stop offset="1" style="stop-color:#5ac0ff"/></linearGradient><path fill="url(#XMLID_13_)" d="M149.601,275.285l22.284,37.807l0.925-21.349c66.545-7.42,108.247-62.188,113.587-113.387	l-18.937,9.692l-17.826-14.897c-10.159,71.305-75.16,81.093-75.16,81.093l0.797-19.293L149.601,275.285z"/><linearGradient id="XMLID_14_" x1="295.199" x2="227.251" y1="106.338" y2="108.642" gradientTransform="matrix(0.996 -0.0891 0.0891 0.996 -14.4262 14.84)" gradientUnits="userSpaceOnUse"><stop offset="0" style="stop-color:#5ac0ff"/><stop offset="1" style="stop-color:#92dbff"/></linearGradient><path fill="url(#XMLID_14_)" d="M269.203,171.303l37.807-22.283l-21.35-0.927c-7.42-66.544-62.188-108.246-113.387-113.585	l9.692,18.936L167.069,71.27c71.305,10.158,81.092,75.16,81.092,75.16l-19.292-0.797L269.203,171.303z"/></svg>