<svg xmlns="http://www.w3.org/2000/svg" xmlns:xlink="http://www.w3.org/1999/xlink" id="Layer_1" width="263.986" height="263.987" enable-background="new 0 0 263.986 263.987" overflow="visible" version="1.1" viewBox="0 0 263.986 263.987" xml:space="preserve"><g><circle cx="131.993" cy="131.994" r="122.169" fill="#FFF" stroke="#7C86C1" stroke-width="1.637"/><g><linearGradient id="XMLID_5_" x1="40.746" x2="298.289" y1="153.692" y2="152.928" gradientTransform="matrix(0.7071 0.7071 -0.7071 0.7071 166.1357 -134.7245)" gradientUnits="userSpaceOnUse"><stop offset="0" style="stop-color:#5c85c4"/><stop offset="1" style="stop-color:#22579f"/></linearGradient><path fill="url(#XMLID_5_)" d="M131.992,13.692c-31.417,0-60.956,12.174-83.255,34.273c0.778,0.778,82.494,82.495,83.255,83.256 c0.761-0.761,82.477-82.476,83.256-83.256C192.949,25.866,163.409,13.692,131.992,13.692z"/><path fill="#FFF" d="M131.992,13.148c-30.419,0-60.828,11.601-84.036,34.809l84.036,84.036l83.265-83.264l0,0l0,0l0,0 l0.772-0.772C192.825,24.754,162.404,13.148,131.992,13.148L131.992,13.148z M49.503,47.96 c11.068-10.871,23.906-19.313,38.177-25.1c7.02-2.847,14.361-5.022,21.819-6.466c7.388-1.43,14.956-2.156,22.493-2.156 c7.535,0,15.102,0.726,22.49,2.156c7.459,1.445,14.8,3.621,21.821,6.468c14.273,5.788,27.112,14.229,38.178,25.098l-82.489,82.488 L49.503,47.96L49.503,47.96z"/></g><g><linearGradient id="XMLID_6_" x1="41.835" x2="299.382" y1="153.866" y2="153.102" gradientTransform="matrix(0.7071 0.7071 -0.7071 0.7071 166.1357 -134.7245)" gradientUnits="userSpaceOnUse"><stop offset="0" style="stop-color:#5c85c4"/><stop offset="1" style="stop-color:#22579f"/></linearGradient><path fill="url(#XMLID_6_)" d="M132.764,131.993c0.761,0.761,82.478,82.479,83.257,83.258c22.1-22.3,34.273-51.84,34.273-83.257 c0,0,0-0.001,0-0.001c-0.001-31.417-12.174-60.956-34.273-83.254C215.245,49.514,133.525,131.231,132.764,131.993z"/><path fill="#FFF" d="M216.03,47.957l-83.266,83.264l0,0l0,0l0,0l-0.772,0.772l0,0l84.038,84.039v-0.001l0,0l0,0 c0.258-0.258,0.513-0.516,0.768-0.774l0,0v-0.001l0,0c22.693-23.105,34.042-53.185,34.042-83.262 C250.839,101.578,239.236,71.163,216.03,47.957L216.03,47.957z M133.536,131.993l82.49-82.489 c10.87,11.066,19.312,23.905,25.099,38.178c2.847,7.02,5.023,14.361,6.467,21.82c1.43,7.388,2.155,14.955,2.155,22.492 c0,7.536-0.726,15.104-2.155,22.491c-1.444,7.459-3.62,14.8-6.467,21.821c-5.788,14.271-14.229,27.11-25.099,38.178 L133.536,131.993L133.536,131.993z"/></g><g><linearGradient id="XMLID_7_" x1="42.187" x2="299.731" y1="272.524" y2="271.76" gradientTransform="matrix(0.7071 0.7071 -0.7071 0.7071 166.1357 -134.7245)" gradientUnits="userSpaceOnUse"><stop offset="0" style="stop-color:#5c85c4"/><stop offset="1" style="stop-color:#22579f"/></linearGradient><path fill="url(#XMLID_7_)" d="M48.737,216.021c22.299,22.1,51.839,34.273,83.257,34.273c31.417,0,60.957-12.173,83.255-34.272 c-0.779-0.779-82.496-82.497-83.257-83.258C131.231,133.525,49.517,215.242,48.737,216.021z"/><path fill="#FFF" d="M131.992,131.993l-84.036,84.038c0.258,0.258,0.516,0.514,0.775,0.769l0,0l0,0l0,0 c23.105,22.694,53.185,34.043,83.262,34.043c30.078,0,60.156-11.348,83.261-34.042l0,0l0,0l0,0 c0.26-0.255,0.518-0.511,0.775-0.769L131.992,131.993L131.992,131.993z M49.503,216.028l82.489-82.491l82.49,82.492 c-11.067,10.87-23.905,19.312-38.177,25.099c-7.02,2.848-14.362,5.023-21.82,6.468c-7.388,1.43-14.956,2.155-22.492,2.155 c-7.536,0-15.103-0.726-22.491-2.155c-7.459-1.444-14.801-3.62-21.821-6.468C73.408,235.339,60.569,226.898,49.503,216.028 L49.503,216.028z"/></g><g><linearGradient id="XMLID_8_" x1="41.096" x2="298.637" y1="272.35" y2="271.586" gradientTransform="matrix(0.7071 0.7071 -0.7071 0.7071 166.1357 -134.7245)" gradientUnits="userSpaceOnUse"><stop offset="0" style="stop-color:#5c85c4"/><stop offset="1" style="stop-color:#22579f"/></linearGradient><path fill="url(#XMLID_8_)" d="M13.748,131.993c0,30.124,11.413,60.242,34.218,83.257c0.78-0.78,82.494-82.495,83.255-83.256 c-0.761-0.761-82.475-82.476-83.255-83.255C25.161,71.751,13.748,101.869,13.748,131.993z"/><path fill="#FFF" d="M47.956,47.957c-23.206,23.206-34.809,53.621-34.809,84.036c0,30.078,11.347,60.156,34.041,83.262l0,0l0,0 l0,0c0.255,0.26,0.511,0.518,0.769,0.775l0.772-0.771l0,0l0,0l0,0l83.264-83.266L47.956,47.957L47.956,47.957z M47.959,214.483 c-44.887-45.715-44.887-119.265,0-164.979l82.489,82.489L47.959,214.483L47.959,214.483z"/></g><circle cx="131.993" cy="131.994" r="34.314" fill="#82ABE0" stroke="#FFF" stroke-width="3.274"/></g></svg>