<svg xmlns="http://www.w3.org/2000/svg" xmlns:xlink="http://www.w3.org/1999/xlink" id="Layer_1" width="532.09" height="521.91" enable-background="new 0 0 532.09 521.91" overflow="visible" version="1.1" viewBox="0 0 532.09 521.91" xml:space="preserve"><g><g><g><polygon fill="#314D89" points="268.318 24.354 275.991 41.128 284.276 41.15 268.318 6.272 252.176 41.066 260.557 41.091"/><polygon fill="#314D89" points="268.318 492.471 260.557 475.738 252.176 475.757 268.318 510.552 284.276 475.675 275.991 475.694"/><rect width="7.616" height="450.897" x="264.659" y="33.092" fill="#314D89"/></g><g><polygon fill="#314D89" points="34.167 258.32 50.94 250.645 50.965 242.36 16.084 258.32 50.88 274.462 50.903 266.084"/><polygon fill="#314D89" points="502.282 258.32 485.551 266.084 485.569 274.462 520.364 258.32 485.487 242.36 485.509 250.645"/><rect width="450.897" height="7.616" x="42.904" y="254.363" fill="#314D89"/></g></g><rect width="360.515" height="360.514" x="86.825" y="76.646" fill="none" stroke="#1D68AA" stroke-dasharray="5.076" stroke-width="2.538"/></g></svg>