<svg xmlns="http://www.w3.org/2000/svg" xmlns:xlink="http://www.w3.org/1999/xlink" id="Layer_1" width="296.667" height="202.667" enable-background="new 0 0 296.667 202.667" overflow="visible" version="1.1" viewBox="0 0 296.667 202.667" xml:space="preserve"><g><g><linearGradient id="XMLID_22_" x1="53.92" x2="1.073" y1="193.892" y2="132.787" gradientUnits="userSpaceOnUse"><stop offset="0" style="stop-color:#4591d6"/><stop offset="1" style="stop-color:#5ac0ff"/></linearGradient><polygon fill="url(#XMLID_22_)" points="8.87 145.706 54.117 146.095 55.209 191.354 9.885 191.001"/><linearGradient id="XMLID_23_" x1="55.526" x2="86.905" y1="159.541" y2="212.389" gradientUnits="userSpaceOnUse"><stop offset="0" style="stop-color:#4591d6"/><stop offset="1" style="stop-color:#5ac0ff"/></linearGradient><polygon fill="url(#XMLID_23_)" points="54.117 146.095 62.042 138.167 63.105 183.383 55.209 191.354"/><linearGradient id="XMLID_24_" x1="68.904" x2="23.764" y1="120.311" y2="149.487" gradientUnits="userSpaceOnUse"><stop offset="0" style="stop-color:#4591d6"/><stop offset="1" style="stop-color:#5ac0ff"/></linearGradient><polygon fill="url(#XMLID_24_)" points="16.761 137.785 8.87 145.706 54.117 146.095 62.042 138.167"/><polygon fill="#FFF" points="55.823 190.799 54.71 146.211 62.046 138.957 62.031 138.303 60.855 138.29 53.593 145.484 9.374 145.173 8.973 145.573 8.991 146.486 53.403 146.872 54.522 191.418 55.209 191.425" opacity=".3"/></g><g><linearGradient id="XMLID_25_" x1="117.139" x2="47.087" y1="188.185" y2="107.189" gradientUnits="userSpaceOnUse"><stop offset="0" style="stop-color:#4591d6"/><stop offset="1" style="stop-color:#5ac0ff"/></linearGradient><polygon fill="url(#XMLID_25_)" points="64.957 117.798 110.203 118.186 111.294 191.354 65.97 191.001"/><linearGradient id="XMLID_26_" x1="109.852" x2="159.055" y1="142.622" y2="225.491" gradientUnits="userSpaceOnUse"><stop offset="0" style="stop-color:#4591d6"/><stop offset="1" style="stop-color:#5ac0ff"/></linearGradient><polygon fill="url(#XMLID_26_)" points="110.203 118.186 118.128 110.259 119.191 183.383 111.294 191.354"/><linearGradient id="XMLID_27_" x1="124.99" x2="79.85" y1="92.401" y2="121.578" gradientUnits="userSpaceOnUse"><stop offset="0" style="stop-color:#4591d6"/><stop offset="1" style="stop-color:#5ac0ff"/></linearGradient><polygon fill="url(#XMLID_27_)" points="72.846 109.877 64.957 117.798 110.203 118.186 118.128 110.259"/><polygon fill="#FFF" points="111.908 190.799 110.795 118.301 118.13 111.049 118.117 110.396 116.94 110.381 109.679 117.576 65.458 117.265 65.058 117.664 65.076 118.579 109.49 118.963 110.606 191.418 111.294 191.425" opacity=".3"/></g><g><linearGradient id="XMLID_28_" x1="180.259" x2="93.242" y1="182.56" y2="81.947" gradientUnits="userSpaceOnUse"><stop offset="0" style="stop-color:#4591d6"/><stop offset="1" style="stop-color:#5ac0ff"/></linearGradient><polygon fill="url(#XMLID_28_)" points="121.042 90.279 166.289 90.669 167.382 191.354 122.056 191.001"/><linearGradient id="XMLID_29_" x1="164.204" x2="230.982" y1="125.94" y2="238.41" gradientUnits="userSpaceOnUse"><stop offset="0" style="stop-color:#4591d6"/><stop offset="1" style="stop-color:#5ac0ff"/></linearGradient><polygon fill="url(#XMLID_29_)" points="166.289 90.669 174.215 82.742 175.278 183.383 167.382 191.354"/><linearGradient id="XMLID_30_" x1="181.076" x2="135.936" y1="64.883" y2="94.059" gradientUnits="userSpaceOnUse"><stop offset="0" style="stop-color:#4591d6"/><stop offset="1" style="stop-color:#5ac0ff"/></linearGradient><polygon fill="url(#XMLID_30_)" points="128.931 82.358 121.042 90.279 166.289 90.669 174.215 82.742"/><polygon fill="#FFF" points="167.994 190.799 166.881 90.781 174.218 83.531 174.203 82.876 173.027 82.862 165.767 90.056 121.544 89.745 121.142 90.146 121.162 91.061 165.576 91.445 166.693 191.418 167.382 191.425" opacity=".3"/></g><g><linearGradient id="XMLID_31_" x1="245.141" x2="136.906" y1="175.523" y2="50.376" gradientUnits="userSpaceOnUse"><stop offset="0" style="stop-color:#4591d6"/><stop offset="1" style="stop-color:#5ac0ff"/></linearGradient><polygon fill="url(#XMLID_31_)" points="177.127 55.86 222.373 56.249 223.466 191.354 178.141 191.001"/><linearGradient id="XMLID_32_" x1="218.116" x2="306.878" y1="105.074" y2="254.569" gradientUnits="userSpaceOnUse"><stop offset="0" style="stop-color:#4591d6"/><stop offset="1" style="stop-color:#5ac0ff"/></linearGradient><polygon fill="url(#XMLID_32_)" points="222.373 56.249 230.298 48.322 231.363 183.383 223.466 191.354"/><linearGradient id="XMLID_33_" x1="237.16" x2="192.021" y1="30.466" y2="59.641" gradientUnits="userSpaceOnUse"><stop offset="0" style="stop-color:#4591d6"/><stop offset="1" style="stop-color:#5ac0ff"/></linearGradient><polygon fill="url(#XMLID_33_)" points="185.017 47.941 177.127 55.86 222.373 56.249 230.298 48.322"/><polygon fill="#FFF" points="224.078 190.799 222.966 56.363 230.302 49.113 230.287 48.458 229.111 48.443 221.849 55.638 177.628 55.328 177.228 55.728 177.246 56.642 221.66 57.026 222.777 191.418 223.466 191.425" opacity=".3"/></g><g><linearGradient id="XMLID_34_" x1="310.309" x2="180.169" y1="168.257" y2="17.783" gradientUnits="userSpaceOnUse"><stop offset="0" style="stop-color:#4591d6"/><stop offset="1" style="stop-color:#5ac0ff"/></linearGradient><polygon fill="url(#XMLID_34_)" points="233.214 20.327 278.458 20.717 279.552 191.354 234.228 191.001"/><linearGradient id="XMLID_35_" x1="271.961" x2="383.417" y1="83.533" y2="271.248" gradientUnits="userSpaceOnUse"><stop offset="0" style="stop-color:#4591d6"/><stop offset="1" style="stop-color:#5ac0ff"/></linearGradient><polygon fill="url(#XMLID_35_)" points="278.458 20.717 286.386 12.789 287.449 183.383 279.552 191.354"/><linearGradient id="XMLID_36_" x1="293.247" x2="248.107" y1="-5.07" y2="24.106" gradientUnits="userSpaceOnUse"><stop offset="0" style="stop-color:#4591d6"/><stop offset="1" style="stop-color:#5ac0ff"/></linearGradient><polygon fill="url(#XMLID_36_)" points="241.101 12.406 233.214 20.327 278.458 20.717 286.386 12.789"/><polygon fill="#FFF" points="280.166 190.799 279.052 20.83 286.388 13.579 286.373 12.924 285.197 12.911 277.937 20.106 233.714 19.792 233.314 20.194 233.333 21.11 277.746 21.493 278.863 191.418 279.552 191.425" opacity=".3"/></g></g></svg>