<svg xmlns="http://www.w3.org/2000/svg" xmlns:xlink="http://www.w3.org/1999/xlink" id="Layer_1" width="480.684" height="305.687" enable-background="new 0 0 480.684 305.687" overflow="visible" version="1.1" viewBox="0 0 480.684 305.687" xml:space="preserve"><g><linearGradient id="XMLID_2_" x1="173.809" x2="311.755" y1="83.263" y2="249.553" gradientUnits="userSpaceOnUse"><stop offset="0" style="stop-color:#ffc10e"/><stop offset=".488" style="stop-color:#f66f19"/><stop offset="1" style="stop-color:#ec1c24"/></linearGradient><path fill="url(#XMLID_2_)" d="M350.533,86.397C210.565,302.489,17.803,284.071,17.803,284.071s265.201,44.203,401.486-165.752 l50.337,30.697L432.793,6.593L295.283,61.845L350.533,86.397z"/><g><circle cx="350.533" cy="145.331" r="22.1" fill="#FFF" opacity=".48"/><circle cx="350.533" cy="145.331" r="11.459" fill="#FFF"/></g><g><circle cx="294.054" cy="199.354" r="16.78" fill="#FFF" opacity=".48"/><circle cx="294.056" cy="199.354" r="8.7" fill="#FFF"/></g><g><path fill="#FFF" d="M247.861,239.683c0,7.449-6.036,13.486-13.482,13.486c-7.448,0-13.484-6.037-13.484-13.486 c0-7.444,6.036-13.484,13.484-13.484C241.825,226.198,247.861,232.238,247.861,239.683z" opacity=".48"/><circle cx="234.377" cy="239.683" r="6.991" fill="#FFF"/></g><g><circle cx="172.5" cy="265.658" r="9.392" fill="#FFF" opacity=".48"/><circle cx="172.501" cy="265.658" r="4.869" fill="#FFF"/></g></g></svg>