<svg xmlns="http://www.w3.org/2000/svg" xmlns:xlink="http://www.w3.org/1999/xlink" id="Layer_1" width="480.684" height="305.687" enable-background="new 0 0 480.684 305.687" overflow="visible" version="1.1" viewBox="0 0 480.684 305.687" xml:space="preserve"><linearGradient id="XMLID_2_" x1="191.738" x2="299.45" y1="103.842" y2="228.561" gradientUnits="userSpaceOnUse"><stop offset="0" style="stop-color:#ffed9f"/><stop offset="1" style="stop-color:#f8d000"/></linearGradient><path fill="url(#XMLID_2_)" d="M348.409,92.466C216.099,296.734,33.885,279.324,33.885,279.324s250.689,41.781,379.518-156.683	l47.584,29.015L426.168,17.028L296.182,69.255L348.409,92.466z"/><g><circle cx="337.305" cy="162.28" r="17.224" fill="#FFF" opacity=".48"/><circle cx="337.305" cy="162.28" r="8.93" fill="#FFF"/></g><g><circle cx="385.333" cy="99.643" r="20.891" fill="#FFF" opacity=".48"/><circle cx="385.333" cy="99.643" r="10.832" fill="#FFF"/></g><g><path fill="#FFF" d="M290.423,211.718c0,7.354-5.964,13.316-13.319,13.316c-7.354,0-13.318-5.962-13.318-13.316 c0-7.357,5.964-13.321,13.318-13.321C284.459,198.396,290.423,204.36,290.423,211.718z" opacity=".48"/><circle cx="277.104" cy="211.718" r="6.906" fill="#FFF"/></g><g><circle cx="217.339" cy="247.517" r="9.362" fill="#FFF" opacity=".48"/><circle cx="217.339" cy="247.517" r="4.855" fill="#FFF"/></g><g><circle cx="159.405" cy="267.309" r="6.824" fill="#FFF" opacity=".48"/><circle cx="159.406" cy="267.309" r="3.537" fill="#FFF"/></g></svg>