<svg xmlns="http://www.w3.org/2000/svg" xmlns:xlink="http://www.w3.org/1999/xlink" id="Layer_1" width="476" height="260" enable-background="new 0 0 476 260" overflow="visible" version="1.1" viewBox="0 0 476 260" xml:space="preserve"><g><path fill="none" stroke="#8BC53F" stroke-width="1.988" d="M34.839,281.557"/><g><linearGradient id="XMLID_21_" x1="140.74" x2="22.644" y1="135.682" y2="97.557" gradientUnits="userSpaceOnUse"><stop offset="0" style="stop-color:#1d68aa"/><stop offset="1" style="stop-color:#143777"/></linearGradient><polygon fill="url(#XMLID_21_)" points="15.207 93.175 157.017 93.175 157.712 142.692 14.509 142.692"/><linearGradient id="XMLID_22_" x1="152.832" x2="230.951" y1="115.916" y2="150.699" gradientUnits="userSpaceOnUse"><stop offset=".005" style="stop-color:#4084c1"/><stop offset="1" style="stop-color:#b0cce5"/></linearGradient><polygon fill="url(#XMLID_22_)" points="157.017 93.175 237.559 157.572 157.712 142.692"/><linearGradient id="XMLID_23_" x1="14.509" x2="237.559" y1="150.133" y2="150.133" gradientUnits="userSpaceOnUse"><stop offset=".005" style="stop-color:#4084c1"/><stop offset="1" style="stop-color:#b0cce5"/></linearGradient><polygon fill="url(#XMLID_23_)" points="14.509 142.692 157.712 142.692 237.559 157.572"/><polygon fill="#9ACEE2" points="157.673 141.483 157.675 142.692 155.567 142.692 236.146 158.675 236.979 156.875"/></g><g><linearGradient id="XMLID_24_" x1="322.684" x2="404.975" y1="159.678" y2="108.072" gradientUnits="userSpaceOnUse"><stop offset="0" style="stop-color:#0d69c8"/><stop offset="1" style="stop-color:#1b3962"/></linearGradient><polygon fill="url(#XMLID_24_)" points="317.995 93.175 459.804 93.175 460.501 142.692 317.299 142.692"/><linearGradient id="XMLID_25_" x1="314.845" x2="246.558" y1="119.61" y2="160.47" gradientUnits="userSpaceOnUse"><stop offset=".005" style="stop-color:#4084c1"/><stop offset="1" style="stop-color:#b0cce5"/></linearGradient><polygon fill="url(#XMLID_25_)" points="317.995 93.175 237.559 157.572 317.299 142.692"/><linearGradient id="XMLID_26_" x1="237.559" x2="460.501" y1="150.133" y2="150.133" gradientUnits="userSpaceOnUse"><stop offset=".005" style="stop-color:#4084c1"/><stop offset="1" style="stop-color:#b0cce5"/></linearGradient><polygon fill="url(#XMLID_26_)" points="460.501 142.692 237.559 157.572 317.299 142.692"/><polygon fill="#9ACEE2" points="317.312 142.67 317.321 141.845 238.2 156.212 239.017 158.019 320.292 142.681"/></g><g><linearGradient id="XMLID_27_" x1="237.235" x2="236.305" y1="66.431" y2="133.384" gradientUnits="userSpaceOnUse"><stop offset=".005" style="stop-color:#4084c1"/><stop offset="1" style="stop-color:#b0cce5"/></linearGradient><polygon fill="url(#XMLID_27_)" points="158.063 67.53 236.95 157.572 316.377 67.53"/><linearGradient id="XMLID_28_" x1="159.087" x2="313" y1="-.619" y2="88.107" gradientUnits="userSpaceOnUse"><stop offset="0" style="stop-color:#1d68aa"/><stop offset="1" style="stop-color:#143777"/></linearGradient><polygon fill="url(#XMLID_28_)" points="159.915 20.149 158.054 67.53 316.367 67.53 314.739 20.364"/><polygon fill="#9ACEE2" points="159.873 67.548 158.054 67.548 158.099 68.605 236.427 157.984 237.78 156.533"/><polygon fill="#9ACEE2" points="316.362 67.509 316.362 67.509 315.437 67.524 236.85 156.94 238.199 158.395 316.329 69.041"/></g><g><linearGradient id="XMLID_29_" x1="144.422" x2="130.826" y1="200.024" y2="244.522" gradientUnits="userSpaceOnUse"><stop offset="0" style="stop-color:#0d69c8"/><stop offset="1" style="stop-color:#1b3962"/></linearGradient><polygon fill="url(#XMLID_29_)" points="69.761 241.261 210.64 241.261 211.337 191.746 68.132 191.746"/><linearGradient id="XMLID_30_" x1="68.132" x2="237.559" y1="174.659" y2="174.659" gradientUnits="userSpaceOnUse"><stop offset=".005" style="stop-color:#4084c1"/><stop offset="1" style="stop-color:#b0cce5"/></linearGradient><polygon fill="url(#XMLID_30_)" points="68.132 191.746 237.559 157.572 211.337 191.746"/><linearGradient id="XMLID_31_" x1="210.64" x2="237.559" y1="199.416" y2="199.416" gradientUnits="userSpaceOnUse"><stop offset=".005" style="stop-color:#4084c1"/><stop offset="1" style="stop-color:#b0cce5"/></linearGradient><polygon fill="url(#XMLID_31_)" points="210.64 241.261 237.559 157.572 211.337 191.746"/><polygon fill="#9ACEE2" points="236.245 156.382 209.772 191.746 211.212 191.746 211.228 198.459 211.235 193.812 238.219 156.602"/></g><g><linearGradient id="XMLID_32_" x1="261.743" x2="359.721" y1="198.659" y2="223.307" gradientUnits="userSpaceOnUse"><stop offset="0" style="stop-color:#0d69c8"/><stop offset="1" style="stop-color:#1b3962"/></linearGradient><polygon fill="url(#XMLID_32_)" points="261.427 241.261 402.306 241.261 403.932 191.746 260.729 191.746"/><linearGradient id="XMLID_33_" x1="237.559" x2="403.932" y1="174.659" y2="174.659" gradientUnits="userSpaceOnUse"><stop offset=".005" style="stop-color:#4084c1"/><stop offset="1" style="stop-color:#b0cce5"/></linearGradient><polygon fill="url(#XMLID_33_)" points="403.932 191.746 260.729 191.746 237.559 157.572"/><linearGradient id="XMLID_34_" x1="237.559" x2="261.427" y1="199.416" y2="199.416" gradientUnits="userSpaceOnUse"><stop offset=".005" style="stop-color:#4084c1"/><stop offset="1" style="stop-color:#b0cce5"/></linearGradient><polygon fill="url(#XMLID_34_)" points="261.427 241.261 237.559 157.572 260.729 191.746"/><polygon fill="#9ACEE2" points="260.808 191.746 262.042 191.746 238.812 157.053 236.835 157.232 260.784 195.144 260.865 199.784"/></g></g></svg>