<svg xmlns="http://www.w3.org/2000/svg" xmlns:xlink="http://www.w3.org/1999/xlink" id="Layer_1" width="208" height="122" enable-background="new 0 0 208 122" overflow="visible" version="1.1" viewBox="0 0 208 122" xml:space="preserve"><g><g><linearGradient id="XMLID_23_" x1="9.533" x2="109.394" y1="85.391" y2="85.391" gradientUnits="userSpaceOnUse"><stop offset="0" style="stop-color:#cc0212"/><stop offset="1" style="stop-color:#ff5f06"/></linearGradient><polygon fill="url(#XMLID_23_)" points="30.07 57.787 9.533 76.44 9.721 112.994 90.74 112.994 109.394 93.775 109.394 58.166"/><linearGradient id="XMLID_24_" x1="84.638" x2="8.894" y1="112.27" y2="73.834" gradientUnits="userSpaceOnUse"><stop offset="0" style="stop-color:#cc0212"/><stop offset="1" style="stop-color:#ff5f06"/></linearGradient><polyline fill="url(#XMLID_24_)" points="9.721 76.817 90.74 76.817 90.74 112.994 10.098 112.994"/><linearGradient id="XMLID_25_" x1="108.502" x2="84.761" y1="90.048" y2="77.612" gradientUnits="userSpaceOnUse"><stop offset="0" style="stop-color:#cc0212"/><stop offset="1" style="stop-color:#ff5f06"/></linearGradient><polygon fill="url(#XMLID_25_)" points="109.205 58.166 90.74 76.817 90.74 112.994 109.205 93.398"/><linearGradient id="XMLID_26_" x1="106.731" x2="46.249" y1="55.18" y2="71.007" gradientUnits="userSpaceOnUse"><stop offset="0" style="stop-color:#cc0212"/><stop offset="1" style="stop-color:#ff5f06"/></linearGradient><polygon fill="url(#XMLID_26_)" points="30.07 57.787 109.205 58.166 90.74 76.817 9.721 76.817"/><polygon fill="#FFF" points="10.946 75.593 90.082 75.404 107.039 57.882 109.205 58.166 91.211 76.724 9.721 76.817" opacity=".1"/><polygon fill="#FFF" points="90.029 76.405 90.033 112.474 91.446 112.569 91.446 76.394" opacity=".1"/></g><g><polygon fill="#0D69C8" points="120.506 58.067 99.969 76.721 100.156 113.274 181.176 113.274 199.83 94.057 199.83 58.445"/><linearGradient id="XMLID_27_" x1="175.073" x2="99.331" y1="112.551" y2="74.114" gradientUnits="userSpaceOnUse"><stop offset="0" style="stop-color:#0d69c8"/><stop offset="1" style="stop-color:#0683f4"/></linearGradient><polyline fill="url(#XMLID_27_)" points="100.156 77.099 181.176 77.099 181.176 113.274 100.535 113.274"/><linearGradient id="XMLID_28_" x1="198.939" x2="175.198" y1="90.328" y2="77.892" gradientUnits="userSpaceOnUse"><stop offset="0" style="stop-color:#0d69c8"/><stop offset="1" style="stop-color:#0683f4"/></linearGradient><polygon fill="url(#XMLID_28_)" points="199.642 58.445 181.176 77.099 181.176 113.274 199.642 93.679"/><linearGradient id="XMLID_29_" x1="197.167" x2="136.685" y1="55.461" y2="71.288" gradientUnits="userSpaceOnUse"><stop offset="0" style="stop-color:#0683f4"/><stop offset="1" style="stop-color:#2ca5ff"/></linearGradient><polygon fill="url(#XMLID_29_)" points="120.506 58.067 199.642 58.445 181.176 77.099 100.156 77.099"/><polygon fill="#FFF" points="101.383 75.873 180.518 75.685 197.475 58.162 199.642 58.445 181.648 77.004 100.156 77.099" opacity=".1"/><polygon fill="#FFF" points="180.465 76.686 180.47 112.755 181.883 112.851 181.883 76.675" opacity=".1"/></g><g><linearGradient id="XMLID_30_" x1="9.018" x2="108.878" y1="38.192" y2="38.192" gradientUnits="userSpaceOnUse"><stop offset="0" style="stop-color:#ffc10e"/><stop offset="1" style="stop-color:#f16422"/></linearGradient><polygon fill="url(#XMLID_30_)" points="29.555 10.589 9.018 29.242 9.205 65.796 90.225 65.796 108.878 46.577 108.878 10.966"/><linearGradient id="XMLID_31_" x1="4.989" x2="116.054" y1="54.877" y2="37.073" gradientUnits="userSpaceOnUse"><stop offset="0" style="stop-color:#ffc10e"/><stop offset="1" style="stop-color:#f16422"/></linearGradient><polyline fill="url(#XMLID_31_)" points="9.205 29.619 90.225 29.619 90.225 65.796 9.583 65.796"/><linearGradient id="XMLID_32_" x1="57.174" x2="132.632" y1="78.764" y2="6.698" gradientUnits="userSpaceOnUse"><stop offset="0" style="stop-color:#ffc10e"/><stop offset="1" style="stop-color:#f16422"/></linearGradient><polygon fill="url(#XMLID_32_)" points="108.689 10.966 90.225 29.619 90.225 65.796 108.689 46.199"/><linearGradient id="XMLID_33_" x1="9.968" x2="154.099" y1="25.977" y2="9.02" gradientUnits="userSpaceOnUse"><stop offset="0" style="stop-color:#ffc10e"/><stop offset="1" style="stop-color:#f16422"/></linearGradient><polygon fill="url(#XMLID_33_)" points="29.555 10.589 108.689 10.966 90.225 29.619 9.205 29.619"/><polygon fill="#FFF" points="10.432 28.396 89.566 28.206 106.523 10.683 108.689 10.966 90.696 29.525 9.205 29.619" opacity=".1"/><polygon fill="#FFF" points="89.514 29.206 89.519 65.276 90.932 65.372 90.932 29.195" opacity=".1"/></g><g><linearGradient id="XMLID_34_" x1="100.301" x2="200.162" y1="38.76" y2="38.76" gradientUnits="userSpaceOnUse"><stop offset="0" style="stop-color:#b0ff78"/><stop offset="1" style="stop-color:#00c400"/></linearGradient><polygon fill="url(#XMLID_34_)" points="120.838 11.157 100.301 29.811 100.488 66.363 181.509 66.363 200.162 47.145 200.162 11.534"/><linearGradient id="XMLID_35_" x1="175.406" x2="99.663" y1="65.64" y2="27.203" gradientUnits="userSpaceOnUse"><stop offset="0" style="stop-color:#00c109"/><stop offset="1" style="stop-color:#42ea42"/></linearGradient><polyline fill="url(#XMLID_35_)" points="100.488 30.188 181.509 30.188 181.509 66.363 100.867 66.363"/><linearGradient id="XMLID_36_" x1="199.272" x2="175.531" y1="43.417" y2="30.982" gradientUnits="userSpaceOnUse"><stop offset="0" style="stop-color:#00c109"/><stop offset="1" style="stop-color:#42ea42"/></linearGradient><polygon fill="url(#XMLID_36_)" points="199.974 11.534 181.509 30.188 181.509 66.363 199.974 46.769"/><linearGradient id="XMLID_37_" x1="197.5" x2="137.017" y1="8.55" y2="24.378" gradientUnits="userSpaceOnUse"><stop offset="0" style="stop-color:#00c109"/><stop offset="1" style="stop-color:#42ea42"/></linearGradient><polygon fill="url(#XMLID_37_)" points="120.839 11.157 199.974 11.534 181.509 30.188 100.488 30.188"/><linearGradient id="XMLID_38_" x1="100.488" x2="199.974" y1="20.719" y2="20.719" gradientUnits="userSpaceOnUse"><stop offset="0" style="stop-color:#b0ff78"/><stop offset="1" style="stop-color:#00c400"/></linearGradient><polygon fill="url(#XMLID_38_)" points="101.715 28.963 180.85 28.774 197.807 11.251 199.974 11.534 181.98 30.093 100.488 30.188" opacity=".1"/><polygon fill="#FFF" points="180.797 29.774 180.802 65.845 182.215 65.939 182.215 29.764" opacity=".1"/></g></g></svg>