<svg xmlns="http://www.w3.org/2000/svg" xmlns:xlink="http://www.w3.org/1999/xlink" id="Layer_1" width="224.667" height="181.333" enable-background="new 0 0 224.667 181.333" overflow="visible" version="1.1" viewBox="0 0 224.667 181.333" xml:space="preserve"><g><g><polygon fill="#0D69C8" points="37.428 111.568 16.892 130.22 17.08 166.774 98.099 166.774 116.752 147.556 116.752 111.945"/><linearGradient id="XMLID_19_" x1="91.996" x2="16.253" y1="166.05" y2="127.614" gradientUnits="userSpaceOnUse"><stop offset="0" style="stop-color:#1b3962"/><stop offset="1" style="stop-color:#0d69c8"/></linearGradient><polyline fill="url(#XMLID_19_)" points="17.08 130.597 98.099 130.597 98.099 166.774 17.457 166.774"/><linearGradient id="XMLID_20_" x1="115.861" x2="92.12" y1="143.828" y2="131.392" gradientUnits="userSpaceOnUse"><stop offset="0" style="stop-color:#1b3962"/><stop offset="1" style="stop-color:#0d69c8"/></linearGradient><polygon fill="url(#XMLID_20_)" points="116.564 111.945 98.099 130.597 98.099 166.774 116.564 147.179"/><linearGradient id="XMLID_21_" x1="146.841" x2="34.922" y1="93.925" y2="132.362" gradientUnits="userSpaceOnUse"><stop offset="0" style="stop-color:#1b3962"/><stop offset="1" style="stop-color:#0d69c8"/></linearGradient><polygon fill="url(#XMLID_21_)" points="37.429 111.568 116.564 111.945 98.099 130.597 17.08 130.597"/><polygon fill="#FFF" points="18.305 129.374 97.44 129.185 114.398 111.661 116.564 111.945 98.571 130.503 17.08 130.597" opacity=".1"/><polygon fill="#FFF" points="97.387 130.185 97.392 166.255 98.806 166.351 98.806 130.173" opacity=".1"/></g><g><polygon fill="#0077E2" points="37.428 65.216 16.892 83.87 17.08 120.423 98.099 120.423 116.752 101.206 116.752 65.594"/><linearGradient id="XMLID_22_" x1="91.996" x2="16.253" y1="119.7" y2="81.264" gradientUnits="userSpaceOnUse"><stop offset="0" style="stop-color:#0d69c8"/><stop offset="1" style="stop-color:#0683f4"/></linearGradient><polyline fill="url(#XMLID_22_)" points="17.08 84.248 98.099 84.248 98.099 120.423 17.457 120.423"/><linearGradient id="XMLID_23_" x1="115.861" x2="92.121" y1="97.477" y2="85.041" gradientUnits="userSpaceOnUse"><stop offset="0" style="stop-color:#0d69c8"/><stop offset="1" style="stop-color:#0683f4"/></linearGradient><polygon fill="url(#XMLID_23_)" points="116.564 65.594 98.099 84.248 98.099 120.423 116.564 100.828"/><linearGradient id="XMLID_24_" x1="114.09" x2="53.608" y1="62.61" y2="78.437" gradientUnits="userSpaceOnUse"><stop offset="0" style="stop-color:#0683f4"/><stop offset="1" style="stop-color:#2ca5ff"/></linearGradient><polygon fill="url(#XMLID_24_)" points="37.429 65.216 116.564 65.594 98.099 84.248 17.08 84.248"/><polygon fill="#FFF" points="18.305 83.023 97.44 82.834 114.398 65.311 116.564 65.594 98.571 84.153 17.08 84.248" opacity=".1"/><polygon fill="#FFF" points="97.387 83.834 97.392 119.904 98.806 120 98.806 83.823" opacity=".1"/></g><g><polygon fill="#5AC0FF" points="37.428 18.867 16.892 37.52 17.08 74.073 98.099 74.073 116.752 54.854 116.752 19.244"/><linearGradient id="XMLID_25_" x1="91.996" x2="16.253" y1="73.349" y2="34.912" gradientUnits="userSpaceOnUse"><stop offset="0" style="stop-color:#5ac0ff"/><stop offset="1" style="stop-color:#92dbff"/></linearGradient><polyline fill="url(#XMLID_25_)" points="17.08 37.896 98.099 37.896 98.099 74.073 17.457 74.073"/><linearGradient id="XMLID_26_" x1="115.861" x2="92.121" y1="51.127" y2="38.691" gradientUnits="userSpaceOnUse"><stop offset="0" style="stop-color:#5ac0ff"/><stop offset="1" style="stop-color:#92dbff"/></linearGradient><polygon fill="url(#XMLID_26_)" points="116.564 19.244 98.099 37.896 98.099 74.073 116.564 54.478"/><linearGradient id="XMLID_27_" x1="114.089" x2="53.608" y1="16.259" y2="32.086" gradientUnits="userSpaceOnUse"><stop offset="0" style="stop-color:#5ac0ff"/><stop offset="1" style="stop-color:#92dbff"/></linearGradient><polygon fill="url(#XMLID_27_)" points="37.429 18.867 116.564 19.244 98.099 37.896 17.08 37.896"/><polygon fill="#FFF" points="18.305 36.672 97.44 36.484 114.398 18.96 116.564 19.244 98.571 37.802 17.08 37.896" opacity=".1"/><polygon fill="#FFF" points="97.387 37.485 97.392 73.554 98.806 73.649 98.806 37.472" opacity=".1"/></g><g><polygon fill="#0D69C8" points="129.001 111.001 108.464 129.656 108.652 166.208 189.671 166.208 208.325 146.99 208.325 111.379"/><linearGradient id="XMLID_28_" x1="183.569" x2="107.825" y1="165.486" y2="127.049" gradientUnits="userSpaceOnUse"><stop offset="0" style="stop-color:#1b3962"/><stop offset="1" style="stop-color:#0d69c8"/></linearGradient><polyline fill="url(#XMLID_28_)" points="108.652 130.033 189.671 130.033 189.671 166.208 109.029 166.208"/><linearGradient id="XMLID_29_" x1="207.433" x2="183.694" y1="143.262" y2="130.828" gradientUnits="userSpaceOnUse"><stop offset="0" style="stop-color:#1b3962"/><stop offset="1" style="stop-color:#0d69c8"/></linearGradient><polygon fill="url(#XMLID_29_)" points="208.136 111.379 189.671 130.033 189.671 166.208 208.136 146.613"/><linearGradient id="XMLID_30_" x1="238.413" x2="126.494" y1="93.359" y2="131.796" gradientUnits="userSpaceOnUse"><stop offset="0" style="stop-color:#1b3962"/><stop offset="1" style="stop-color:#0d69c8"/></linearGradient><polygon fill="url(#XMLID_30_)" points="129.001 111.001 208.136 111.379 189.671 130.033 108.652 130.033"/><polygon fill="#FFF" points="109.876 128.808 189.012 128.619 205.97 111.096 208.136 111.379 190.142 129.938 108.652 130.033" opacity=".1"/><polygon fill="#FFF" points="188.959 129.62 188.964 165.69 190.378 165.785 190.378 129.608" opacity=".1"/></g><g><polygon fill="#0077E2" points="129.001 64.652 108.464 83.305 108.652 119.858 189.671 119.858 208.325 100.639 208.325 65.029"/><linearGradient id="XMLID_31_" x1="183.569" x2="107.826" y1="119.135" y2="80.698" gradientUnits="userSpaceOnUse"><stop offset="0" style="stop-color:#0d69c8"/><stop offset="1" style="stop-color:#0683f4"/></linearGradient><polyline fill="url(#XMLID_31_)" points="108.652 83.681 189.671 83.681 189.671 119.858 109.029 119.858"/><linearGradient id="XMLID_32_" x1="207.433" x2="183.693" y1="96.911" y2="84.476" gradientUnits="userSpaceOnUse"><stop offset="0" style="stop-color:#0d69c8"/><stop offset="1" style="stop-color:#0683f4"/></linearGradient><polygon fill="url(#XMLID_32_)" points="208.136 65.029 189.671 83.681 189.671 119.858 208.136 100.262"/><linearGradient id="XMLID_33_" x1="205.661" x2="145.18" y1="62.044" y2="77.871" gradientUnits="userSpaceOnUse"><stop offset="0" style="stop-color:#0683f4"/><stop offset="1" style="stop-color:#2ca5ff"/></linearGradient><polygon fill="url(#XMLID_33_)" points="129.001 64.652 208.136 65.029 189.671 83.681 108.652 83.681"/><polygon fill="#FFF" points="109.876 82.458 189.012 82.269 205.97 64.746 208.136 65.029 190.142 83.587 108.652 83.681" opacity=".1"/><polygon fill="#FFF" points="188.959 83.269 188.964 119.339 190.378 119.435 190.378 83.258" opacity=".1"/></g><g><polygon fill="#5AC0FF" points="129.001 18.867 108.464 37.52 108.652 74.073 189.671 74.073 208.325 54.854 208.325 19.244"/><linearGradient id="XMLID_34_" x1="183.569" x2="107.825" y1="73.349" y2="34.912" gradientUnits="userSpaceOnUse"><stop offset="0" style="stop-color:#5ac0ff"/><stop offset="1" style="stop-color:#92dbff"/></linearGradient><polyline fill="url(#XMLID_34_)" points="108.652 37.896 189.671 37.896 189.671 74.073 109.029 74.073"/><linearGradient id="XMLID_35_" x1="207.434" x2="183.693" y1="51.126" y2="38.691" gradientUnits="userSpaceOnUse"><stop offset="0" style="stop-color:#5ac0ff"/><stop offset="1" style="stop-color:#92dbff"/></linearGradient><polygon fill="url(#XMLID_35_)" points="208.136 19.244 189.671 37.896 189.671 74.073 208.136 54.478"/><linearGradient id="XMLID_36_" x1="205.662" x2="145.181" y1="16.26" y2="32.087" gradientUnits="userSpaceOnUse"><stop offset="0" style="stop-color:#5ac0ff"/><stop offset="1" style="stop-color:#92dbff"/></linearGradient><polygon fill="url(#XMLID_36_)" points="129.001 18.867 208.136 19.244 189.671 37.896 108.652 37.896"/><polygon fill="#FFF" points="109.876 36.672 189.012 36.484 205.97 18.96 208.136 19.244 190.142 37.802 108.652 37.896" opacity=".1"/><polygon fill="#FFF" points="188.959 37.485 188.964 73.554 190.378 73.649 190.378 37.472" opacity=".1"/></g></g></svg>