<svg xmlns="http://www.w3.org/2000/svg" xmlns:xlink="http://www.w3.org/1999/xlink" id="Layer_1" width="305" height="304" enable-background="new 0 0 305 304" overflow="visible" version="1.1" viewBox="0 0 305 304" xml:space="preserve"><rect width="305" height="301" x="5" y="-7" fill="none"/><g><linearGradient id="XMLID_4_" x1="9.396" x2="295.842" y1="150.762" y2="150.762" gradientUnits="userSpaceOnUse"><stop offset=".011" style="stop-color:#470009"/><stop offset="1" style="stop-color:#160103"/></linearGradient><path fill="url(#XMLID_4_)" d="M152.619,7.537C73.518,7.537,9.396,71.661,9.396,150.762c0,78.67,63.431,142.516,141.937,143.21 C91.538,293.28,43.281,244.604,43.281,184.646c0-60.387,48.952-109.339,109.338-109.339c60.387,0,109.338,48.952,109.338,109.339 c0,60.389-48.951,109.342-109.338,109.342l0,0c79.101,0,143.223-64.124,143.223-143.226C295.842,71.661,231.72,7.537,152.619,7.537 z"/><linearGradient id="XMLID_5_" x1="47.807" x2="259.615" y1="188.082" y2="188.082" gradientUnits="userSpaceOnUse"><stop offset=".011" style="stop-color:#a11c15"/><stop offset="1" style="stop-color:#65040b"/></linearGradient><path fill="url(#XMLID_5_)" d="M153.709,82.178c-58.486,0-105.902,47.415-105.902,105.903c0,55.867,43.259,101.627,98.104,105.618 c-40.455-3.405-72.23-37.317-72.23-78.654c0-43.596,35.344-78.941,78.942-78.941c43.596,0,78.938,35.346,78.938,78.941 c0,43.417-35.048,78.641-78.395,78.934c0.181,0.003,0.362,0.009,0.543,0.009c58.492,0,105.906-47.415,105.906-105.906 C259.615,129.593,212.201,82.178,153.709,82.178z"/><path fill="#FA7700" d="M152.622,143.199c-41.489,0-75.125,33.875-75.125,75.666c0,41.789,33.636,75.667,75.125,75.667 c41.486,0,75.12-33.878,75.12-75.667C227.742,177.074,194.108,143.199,152.622,143.199z M152.619,293.987 c-27.137,0-49.139-22.001-49.139-49.139s22.002-49.14,49.139-49.14c27.139,0,49.139,22.002,49.139,49.14 S179.758,293.987,152.619,293.987z"/><linearGradient id="XMLID_6_" x1="107.301" x2="197.938" y1="248.668" y2="248.668" gradientUnits="userSpaceOnUse"><stop offset="0" style="stop-color:#ffe783"/><stop offset="1" style="stop-color:#f8d000"/></linearGradient><circle cx="152.619" cy="248.668" r="45.318" fill="url(#XMLID_6_)"/></g></svg>