<svg xmlns="http://www.w3.org/2000/svg" xmlns:xlink="http://www.w3.org/1999/xlink" id="Layer_1" width="100" height="100" enable-background="new 0 0 100 100" overflow="visible" version="1.1" viewBox="0 0 100 100" xml:space="preserve"><g><g><path fill="#E3BB95" d="M19.575,11.94c-1.435,0-2.602,1.167-2.602,2.602v73.164c0,1.435,1.167,2.603,2.602,2.603h64.351 c1.435,0,2.603-1.168,2.603-2.603V14.542c0-1.435-1.168-2.602-2.603-2.602H19.575z"/><path fill="#270F00" d="M83.925,11.231H19.574c-1.826,0-3.311,1.485-3.311,3.311v73.164c0,1.826,1.485,3.313,3.311,3.313h64.351 c1.826,0,3.311-1.486,3.311-3.313V14.542C87.236,12.716,85.751,11.231,83.925,11.231L83.925,11.231z M17.682,14.542 c0-1.045,0.847-1.892,1.892-1.892h64.351c1.045,0,1.892,0.847,1.892,1.892v73.164l0,0l0,0c0,1.045-0.847,1.894-1.892,1.894H19.574 c-1.045,0-1.892-0.849-1.892-1.894V14.542L17.682,14.542L17.682,14.542z"/></g><g><linearGradient id="XMLID_5_" x1="78.936" x2="25.519" y1="92.519" y2="21.615" gradientUnits="userSpaceOnUse"><stop offset="0" style="stop-color:#a26325"/><stop offset="1" style="stop-color:#c9974f"/></linearGradient><path fill="url(#XMLID_5_)" d="M16.075,11.94c-1.435,0-2.602,1.167-2.602,2.602v73.164c0,1.435,1.167,2.603,2.602,2.603h63.351 c1.435,0,2.603-1.168,2.603-2.603V14.542c0-1.435-1.168-2.602-2.603-2.602H16.075z"/><path fill="#270F00" d="M79.425,11.231H16.074c-1.826,0-3.311,1.485-3.311,3.311v73.164c0,1.826,1.485,3.313,3.311,3.313h63.351 c1.826,0,3.311-1.486,3.311-3.313V14.542C82.736,12.716,81.251,11.231,79.425,11.231L79.425,11.231z M14.182,14.542 c0-1.045,0.847-1.892,1.892-1.892h63.351c1.045,0,1.892,0.847,1.892,1.892v73.164l0,0l0,0c0,1.045-0.847,1.894-1.892,1.894H16.074 c-1.045,0-1.892-0.849-1.892-1.894V14.542L14.182,14.542L14.182,14.542z"/></g><linearGradient id="XMLID_6_" x1="14.182" x2="23.202" y1="51.113" y2="51.113" gradientUnits="userSpaceOnUse"><stop offset="0" style="stop-color:#2f1600"/><stop offset=".042" style="stop-color:#46290c"/><stop offset=".105" style="stop-color:#6f4c21"/><stop offset="1" style="stop-color:#2f1600"/></linearGradient><path fill="url(#XMLID_6_)" d="M23.202,12.627h-7.127c-1.045,0-1.893,0.848-1.893,1.893v73.187c0,1.045,0.848,1.893,1.893,1.893 h7.127V12.627z"/><rect width="1.632" height="76.972" x="23.149" y="12.627" fill="#E3BB95"/><g opacity=".2"><path fill="#FFF" d="M79.425,12.649H16.075c-1.045,0-1.893,0.848-1.893,1.893v2c0-1.045,0.848-1.893,1.893-1.893h63.351 c1.045,0,1.893,0.848,1.893,1.893v-2C81.318,13.497,80.47,12.649,79.425,12.649z"/></g><g opacity=".2"><path fill="#FFF" d="M16.075,89.32h63.35c1.045,0,1.893-0.848,1.893-1.893v-2c0,1.045-0.848,1.893-1.893,1.893h-63.35 c-1.045,0-1.893-0.848-1.893-1.893v2C14.183,88.473,15.03,89.32,16.075,89.32z"/></g><g opacity=".2"><path d="M27.987,12.249v52.826c0,0,6.613-7.975,7.533-9.084c0.927,1.105,7.606,9.067,7.606,9.067V12.189L27.987,12.249z"/><path d="M43.835,11.477l-1.425,0.006l-13.72,0.054l-1.413,0.005v1.414v36.873v13.279v3.935l2.512-3.028l5.734-6.916l5.806,6.921 l2.506,2.987v-3.899V12.902V11.477L43.835,11.477z M28.696,12.956l13.72-0.054v50.206l0,0l0,0l-6.9-8.225l-6.82,8.225V49.829 V12.956L28.696,12.956L28.696,12.956z"/></g><g><linearGradient id="XMLID_7_" x1="35.557" x2="35.557" y1="8.469" y2="69.27" gradientUnits="userSpaceOnUse"><stop offset="0" style="stop-color:#a7ec75"/><stop offset=".446" style="stop-color:#9be566"/><stop offset="1" style="stop-color:#88da4e"/></linearGradient><path fill="url(#XMLID_7_)" d="M27.987,9.749v52.826c0,0,6.613-7.974,7.533-9.084c0.927,1.105,7.606,9.067,7.606,9.067V9.689 L27.987,9.749z"/><path fill="#3C8009" d="M43.835,8.977L42.41,8.983L28.69,9.037l-1.413,0.005v1.414v36.873v13.279v3.935l2.512-3.029l5.734-6.915 l5.806,6.921l2.506,2.988v-3.899V10.402V8.977L43.835,8.977z M28.696,10.456l13.72-0.054v50.206l0,0l0,0l-6.9-8.225l-6.82,8.225 V47.329V10.456L28.696,10.456L28.696,10.456z"/></g><g><linearGradient id="XMLID_8_" x1="35.557" x2="35.557" y1="9.502" y2="66.202" gradientUnits="userSpaceOnUse"><stop offset="0" style="stop-color:#cefbad"/><stop offset=".033" style="stop-color:#c0f69e"/><stop offset=".097" style="stop-color:#9ae878"/><stop offset=".11" style="stop-color:#92e56f"/><stop offset="1" style="stop-color:#25be4c"/></linearGradient><path fill="url(#XMLID_8_)" d="M28.933,10.692c0,0.465,0,48.074,0,49.26c0.738-0.89,6.583-7.938,6.583-7.938 s5.926,7.064,6.664,7.944c0-1.261,0-48.854,0-49.319C41.729,10.641,29.38,10.69,28.933,10.692z"/><path fill="#CEFBAD" d="M42.416,10.402l-13.72,0.054v36.873v12.538l0,0v0.268l0,0v0.473l0.302-0.364l0,0l0.171-0.207l0,0 l6.347-7.654l6.427,7.661l0,0l0.169,0.201l0,0l0.304,0.363V10.402L42.416,10.402z M29.169,10.927l12.774-0.05v48.432l-6.065-7.229 l-0.364-0.435l-0.362,0.437l-5.983,7.216V47.329V10.927L29.169,10.927z"/></g></g></svg>