<svg xmlns="http://www.w3.org/2000/svg" xmlns:xlink="http://www.w3.org/1999/xlink" id="Layer_1" width="110" height="100" enable-background="new 0 0 110 100" overflow="visible" version="1.1" viewBox="0 0 110 100" xml:space="preserve"><g><linearGradient id="XMLID_11_" x1="103.424" x2="24.55" y1="62.939" y2="85.981" gradientUnits="userSpaceOnUse"><stop offset="0" style="stop-color:#bebab6"/><stop offset="1" style="stop-color:#f2f1f0"/></linearGradient><path fill="url(#XMLID_11_)" stroke="#AFAFAF" stroke-width="1.468" d="M104.777,75.83c1.083,0.191,1.139,0.697,0.125,1.123 l-26.27,11.336c-1.015,0.426-2.731,0.623-3.816,0.438l-69.61-14.27c-1.084-0.186-1.114-0.609-0.066-0.941l28.803-8.154 c1.049-0.332,2.793-0.447,3.875-0.254L104.777,75.83z"/><g><path fill="#006B33" d="M74.665,9.647l-0.412,0.165l-12.017,4.823l-0.938,0.376l-0.003,1.011l-0.214,62.815l-0.004,1.24 l1.216,0.237l14.635,2.859l0.435,0.085l0.412-0.165l12.017-4.822l0.938-0.376l0.003-1.011l0.215-62.815l0.004-1.239l-1.216-0.238 L75.1,9.732L74.665,9.647L74.665,9.647z M62.581,78.842l0.214-62.815l12.017-4.823l14.635,2.86l0,0l0,0l-0.215,62.815 l-12.016,4.822L62.581,78.842L62.581,78.842L62.581,78.842z"/></g><g><path fill="#2F5581" d="M52.892,27.487l-0.412,0.165l-11.452,4.596l-0.938,0.376l-0.003,1.011l-0.142,41.536l-0.004,1.24 l1.217,0.237l14.636,2.857l0.434,0.085l0.412-0.165l11.452-4.596l0.938-0.376l0.003-1.011l0.142-41.535l0.004-1.24l-1.217-0.237 l-14.636-2.858L52.892,27.487L52.892,27.487z M41.445,75.176l0.142-41.536l11.452-4.596l14.636,2.858l0,0l0,0l-0.142,41.535 l-11.452,4.596L41.445,75.176L41.445,75.176L41.445,75.176z"/></g><g><linearGradient id="XMLID_12_" x1="44.166" x2="23.848" y1="79.607" y2="38.159" gradientUnits="userSpaceOnUse"><stop offset="0" style="stop-color:#be0000"/><stop offset=".05" style="stop-color:#c30707"/><stop offset=".34" style="stop-color:#db2a2a"/><stop offset=".495" style="stop-color:#e43838"/><stop offset=".662" style="stop-color:#da2929"/><stop offset=".981" style="stop-color:#c00303"/><stop offset="1" style="stop-color:#be0000"/></linearGradient><polygon fill="url(#XMLID_12_)" points="20.342 47.886 20.258 72.08 35.72 75.099 47.846 70.232 47.928 46.039 32.467 43.02"/><path fill="#7C1212" d="M32.393,42.242l-0.412,0.165L20.53,47.002l-0.937,0.376l-0.004,1.011l-0.08,23.069l-0.004,1.24 l1.217,0.237l14.637,2.857l0.435,0.085l0.411-0.165l11.451-4.596l0.938-0.376l0.003-1.011l0.078-23.068l0.004-1.24l-1.217-0.237 l-14.635-2.857L32.393,42.242L32.393,42.242z M21.009,71.463l0.08-23.069l11.451-4.595l14.635,2.857l0,0l0,0l-0.078,23.068 L35.646,74.32L21.009,71.463L21.009,71.463L21.009,71.463z"/></g><g><g><polygon fill="#D60000" points="35.725 51.251 47.176 46.656 47.098 69.724 35.646 74.32"/><linearGradient id="XMLID_13_" x1="21.09" x2="47.176" y1="47.525" y2="47.525" gradientUnits="userSpaceOnUse"><stop offset="0" style="stop-color:#be0000"/><stop offset=".05" style="stop-color:#c30707"/><stop offset=".34" style="stop-color:#db2a2a"/><stop offset=".495" style="stop-color:#e43838"/></linearGradient><polygon fill="url(#XMLID_13_)" points="21.09 48.394 32.541 43.798 47.176 46.656 35.725 51.251"/><linearGradient id="XMLID_14_" x1="37.662" x2="18.913" y1="80.318" y2="42.071" gradientUnits="userSpaceOnUse"><stop offset="0" style="stop-color:#be0000"/><stop offset=".05" style="stop-color:#c30707"/><stop offset=".34" style="stop-color:#db2a2a"/><stop offset=".495" style="stop-color:#e43838"/></linearGradient><polygon fill="url(#XMLID_14_)" points="35.725 51.251 35.646 74.32 21.01 71.462 21.09 48.394"/></g><polygon fill="#EE6060" points="21.09 48.394 35.725 51.251 35.646 74.32 34.158 74.007 34.244 52.601 21.087 50.039"/><polygon fill="#EE6060" points="35.725 52.712 45.9 48.57 45.904 47.166 35.725 51.251"/></g><g><g><linearGradient id="XMLID_15_" x1="53.814" x2="103.565" y1="38.676" y2="139.177" gradientUnits="userSpaceOnUse"><stop offset="0" style="stop-color:#458fd4"/><stop offset="1" style="stop-color:#5abeff"/></linearGradient><polygon fill="url(#XMLID_15_)" points="56.223 36.498 67.676 31.902 67.533 73.437 56.082 78.033"/><linearGradient id="XMLID_16_" x1="41.588" x2="67.676" y1="32.77" y2="32.77" gradientUnits="userSpaceOnUse"><stop offset="0" style="stop-color:#458fd4"/><stop offset="1" style="stop-color:#5abeff"/></linearGradient><polygon fill="url(#XMLID_16_)" points="41.588 33.64 53.039 29.044 67.676 31.902 56.223 36.498"/><linearGradient id="XMLID_17_" x1="53.68" x2="46.533" y1="77.188" y2="45.702" gradientUnits="userSpaceOnUse"><stop offset="0" style="stop-color:#458fd4"/><stop offset="1" style="stop-color:#5abeff"/></linearGradient><polygon fill="url(#XMLID_17_)" points="56.223 36.498 56.082 78.033 41.445 75.175 41.588 33.64"/></g><polygon fill="#66CDF6" points="41.588 33.64 56.223 36.498 56.082 78.033 54.379 77.701 54.654 38.039 41.582 35.414"/><polygon fill="#66CDF6" points="55.295 38.199 65.114 34.32 65.114 32.529 55.223 36.498"/></g><g><g><linearGradient id="XMLID_18_" x1="100.418" x2="37.918" y1="95.174" y2="-77.827" gradientUnits="userSpaceOnUse"><stop offset="0" style="stop-color:#2fd352"/><stop offset="1" style="stop-color:#0a813a"/></linearGradient><polygon fill="url(#XMLID_18_)" points="77.432 18.885 89.448 14.063 89.233 76.878 77.217 81.701"/><linearGradient id="XMLID_19_" x1="69.79" x2="91.621" y1="15.878" y2="13.003" gradientUnits="userSpaceOnUse"><stop offset="0" style="stop-color:#25be4c"/><stop offset="1" style="stop-color:#51d56d"/></linearGradient><polygon fill="url(#XMLID_19_)" points="62.796 16.026 74.813 11.204 89.448 14.063 77.432 18.885"/><linearGradient id="XMLID_20_" x1="76.789" x2="62.732" y1="81.234" y2="14.142" gradientUnits="userSpaceOnUse"><stop offset="0" style="stop-color:#25be4c"/><stop offset="1" style="stop-color:#51d56d"/></linearGradient><polygon fill="url(#XMLID_20_)" points="77.432 18.885 77.217 81.701 62.581 78.841 62.796 16.026"/></g><polygon fill="#6BE77D" points="62.796 16.026 77.432 18.885 77.229 81.742 75.563 81.324 75.813 20.323 62.792 17.724"/><polygon fill="#6BE77D" points="77.432 18.885 89.448 14.063 89.443 15.494 77.427 20.597"/></g></g></svg>