<svg xmlns="http://www.w3.org/2000/svg" xmlns:xlink="http://www.w3.org/1999/xlink" id="Layer_1" width="100.001" height="100.001" enable-background="new 0 0 100.001 100.001" overflow="visible" version="1.1" viewBox="0 0 100.001 100.001" xml:space="preserve"><g><linearGradient id="XMLID_22_" x1="21.165" x2="28.904" y1="80.063" y2="86.48" gradientUnits="userSpaceOnUse"><stop offset="0" style="stop-color:#979797"/><stop offset=".074" style="stop-color:#b0b0b0"/><stop offset=".165" style="stop-color:#c8c8c8"/><stop offset=".262" style="stop-color:#d9d9d9"/><stop offset=".368" style="stop-color:#e3e3e3"/><stop offset=".5" style="stop-color:#e6e6e6"/><stop offset=".632" style="stop-color:#e3e3e3"/><stop offset=".738" style="stop-color:#d9d9d9"/><stop offset=".835" style="stop-color:#c8c8c8"/><stop offset=".926" style="stop-color:#b0b0b0"/><stop offset="1" style="stop-color:#979797"/></linearGradient><path fill="url(#XMLID_22_)" stroke="#727272" stroke-width=".946" d="M26.3,91.04c-1.266,1.467-3.48,1.631-4.948,0.365 l-2.875-2.484c-1.467-1.266-1.63-3.48-0.365-4.947L24.73,76.3c1.266-1.467,3.48-1.631,4.947-0.365l2.875,2.484 c1.468,1.266,1.631,3.48,0.365,4.947L26.3,91.04z"/><linearGradient id="XMLID_23_" x1="70.551" x2="78.666" y1="87.425" y2="80.442" gradientUnits="userSpaceOnUse"><stop offset="0" style="stop-color:#979797"/><stop offset=".074" style="stop-color:#b0b0b0"/><stop offset=".165" style="stop-color:#c8c8c8"/><stop offset=".262" style="stop-color:#d9d9d9"/><stop offset=".368" style="stop-color:#e3e3e3"/><stop offset=".5" style="stop-color:#e6e6e6"/><stop offset=".632" style="stop-color:#e3e3e3"/><stop offset=".738" style="stop-color:#d9d9d9"/><stop offset=".835" style="stop-color:#c8c8c8"/><stop offset=".926" style="stop-color:#b0b0b0"/><stop offset="1" style="stop-color:#979797"/></linearGradient><path fill="url(#XMLID_23_)" stroke="#727272" stroke-width=".946" d="M74.127,91.04c1.267,1.467,3.481,1.631,4.948,0.365 l2.875-2.484c1.467-1.266,1.631-3.48,0.365-4.947L75.698,76.3c-1.265-1.467-3.48-1.631-4.947-0.365l-2.876,2.484 c-1.467,1.266-1.63,3.48-0.365,4.947L74.127,91.04z"/><g><linearGradient id="XMLID_24_" x1="11.394" x2="78.818" y1="10.88" y2="83.821" gradientUnits="userSpaceOnUse"><stop offset="0" style="stop-color:#f69f32"/><stop offset="1" style="stop-color:#ef6422"/></linearGradient><path fill="url(#XMLID_24_)" d="M11.057,52.902c0,21.604,17.576,39.179,39.18,39.179c21.604,0,39.181-17.575,39.181-39.179 c0-21.604-17.576-39.181-39.181-39.181C28.633,13.722,11.057,31.298,11.057,52.902z"/><path fill="#964B0E" d="M50.236,13.223c-5.356,0-10.553,1.049-15.445,3.119c-4.725,1.998-8.969,4.859-12.612,8.503 c-3.644,3.644-6.505,7.887-8.503,12.612c-2.07,4.893-3.119,10.09-3.119,15.445c0,5.356,1.049,10.553,3.119,15.446 c1.998,4.725,4.859,8.968,8.503,12.612c3.643,3.643,7.887,6.504,12.612,8.503c4.892,2.068,10.089,3.117,15.445,3.117 c5.357,0,10.553-1.049,15.446-3.117c4.725-1.999,8.969-4.86,12.613-8.503c3.644-3.645,6.505-7.888,8.503-12.612 c2.069-4.894,3.118-10.09,3.118-15.446c0-5.355-1.049-10.553-3.118-15.445c-1.998-4.726-4.859-8.969-8.503-12.612 c-3.644-3.644-7.888-6.505-12.613-8.503C60.789,14.271,55.592,13.223,50.236,13.223L50.236,13.223z M11.557,52.902 c0-21.361,17.317-38.68,38.679-38.68c21.363,0,38.681,17.318,38.681,38.68l0,0l0,0c0,21.363-17.318,38.679-38.681,38.679 C28.874,91.581,11.557,74.266,11.557,52.902L11.557,52.902L11.557,52.902z"/></g><g opacity=".1"><path fill="#3F3F3F" d="M50.237,89.581c-21.026,0-38.122-16.779-38.654-37.679c-0.009,0.333-0.025,0.665-0.025,1 c0,21.362,17.317,38.679,38.68,38.679s38.681-17.316,38.681-38.679c0-0.335-0.018-0.667-0.025-1 C88.36,72.802,71.263,89.581,50.237,89.581z"/></g><g opacity=".3"><path fill="#FFF" d="M50.237,16.222c21.026,0,38.122,16.782,38.655,37.682c0.008-0.334,0.025-0.666,0.025-1.001 c0-21.362-17.318-38.681-38.681-38.681s-38.68,17.318-38.68,38.681c0,0.335,0.017,0.667,0.025,1.001 C12.115,33.004,29.21,16.222,50.237,16.222z"/></g><linearGradient id="XMLID_25_" x1="50.237" x2="50.237" y1="85.79" y2="12.089" gradientUnits="userSpaceOnUse"><stop offset="0" style="stop-color:#ffb05a"/><stop offset="1" style="stop-color:#db5926"/></linearGradient><circle cx="50.237" cy="52.903" r="30.792" fill="url(#XMLID_25_)"/><g><linearGradient id="XMLID_26_" x1="49.137" x2="52.201" y1="18.685" y2="114.008" gradientUnits="userSpaceOnUse"><stop offset="0" style="stop-color:#fff"/><stop offset="1" style="stop-color:#adcee0"/></linearGradient><path fill="url(#XMLID_26_)" d="M24.802,52.902c0,14.024,11.41,25.435,25.435,25.435c14.025,0,25.436-11.41,25.436-25.435 c0-14.025-11.41-25.436-25.436-25.436C36.212,27.467,24.802,38.877,24.802,52.902z"/><path fill="#FFF" d="M50.236,26.59c-14.531,0-26.311,11.78-26.311,26.312c0,14.531,11.78,26.313,26.311,26.313 c14.532,0,26.313-11.781,26.313-26.313C76.549,38.37,64.768,26.59,50.236,26.59L50.236,26.59z M50.236,77.461 c-6.559,0-12.726-2.555-17.364-7.193c-4.639-4.639-7.193-10.806-7.193-17.365s2.554-12.727,7.193-17.365 c4.638-4.639,10.805-7.192,17.364-7.192c6.56,0,12.727,2.554,17.366,7.192c4.639,4.639,7.193,10.806,7.193,17.365 s-2.554,12.727-7.193,17.365C62.963,74.906,56.796,77.461,50.236,77.461L50.236,77.461z"/></g><path fill="#727272" d="M33.333,17.399c0,0-5.782,10.064-18.063,16.549c-5.646-0.248,7.88-11.987,7.88-11.987 S31.33,15.212,33.333,17.399z" opacity=".2"/><path fill="#727272" d="M66.058,16.566c0,0,5.783,10.064,18.063,16.548c5.647-0.248-7.88-11.986-7.88-11.986 S68.062,14.379,66.058,16.566z" opacity=".2"/><g><g><linearGradient id="XMLID_27_" x1="8.918" x2="25.697" y1="27.23" y2="11.772" gradientTransform="matrix(0.9549 -0.0483 -0.0557 0.9399 -1.2082 0.4395)" gradientUnits="userSpaceOnUse"><stop offset="0" style="stop-color:#979797"/><stop offset=".074" style="stop-color:#b0b0b0"/><stop offset=".165" style="stop-color:#c8c8c8"/><stop offset=".262" style="stop-color:#d9d9d9"/><stop offset=".368" style="stop-color:#e3e3e3"/><stop offset=".5" style="stop-color:#e6e6e6"/><stop offset=".632" style="stop-color:#e3e3e3"/><stop offset=".738" style="stop-color:#d9d9d9"/><stop offset=".835" style="stop-color:#c8c8c8"/><stop offset=".926" style="stop-color:#b0b0b0"/><stop offset="1" style="stop-color:#979797"/></linearGradient><path fill="url(#XMLID_27_)" stroke="#727272" stroke-width="1.5" d="M31.076,11.189c-5.041-4.752-13.469-4.605-19.44,0.547 c-5.97,5.153-7.347,13.47-3.383,19.151L31.076,11.189z"/><g><linearGradient id="XMLID_28_" x1="12.188" x2="33.59" y1="33.465" y2="14.52" gradientTransform="matrix(0.9549 -0.0483 -0.0557 0.9399 -1.2082 0.4395)" gradientUnits="userSpaceOnUse"><stop offset="0" style="stop-color:#979797"/><stop offset=".074" style="stop-color:#b0b0b0"/><stop offset=".165" style="stop-color:#c8c8c8"/><stop offset=".262" style="stop-color:#d9d9d9"/><stop offset=".368" style="stop-color:#e3e3e3"/><stop offset=".5" style="stop-color:#e6e6e6"/><stop offset=".632" style="stop-color:#e3e3e3"/><stop offset=".738" style="stop-color:#d9d9d9"/><stop offset=".835" style="stop-color:#c8c8c8"/><stop offset=".926" style="stop-color:#b0b0b0"/><stop offset="1" style="stop-color:#979797"/></linearGradient><path fill="url(#XMLID_28_)" d="M25.009,9.582L7.632,24.58c-0.827,0.713-1.346,1.719-1.423,2.759 c-0.069,0.931,0.216,1.816,0.801,2.494l2.638,3.042c1.285,1.488,3.657,1.558,5.286,0.153L32.312,18.03 c0.828-0.714,1.346-1.72,1.422-2.76c0.068-0.93-0.216-1.815-0.802-2.493l-2.638-3.042C29.01,8.245,26.639,8.176,25.009,9.582z"/><path fill="#727272" d="M27.671,7.819c-1.139,0-2.259,0.424-3.152,1.194L7.142,24.012c-0.917,0.792-1.505,1.866-1.656,3.025 c-0.158,1.221,0.181,2.389,0.956,3.287l2.64,3.044c0.78,0.904,1.943,1.424,3.189,1.424c1.139,0,2.258-0.424,3.152-1.194 l17.378-14.998c0.918-0.792,1.506-1.867,1.656-3.026c0.158-1.221-0.182-2.388-0.958-3.286l-2.638-3.042 c0.001,0,0.001,0.001,0.002,0.001C30.08,8.339,28.916,7.819,27.671,7.819L27.671,7.819z M6.949,27.62 c-0.003-0.885,0.4-1.807,1.172-2.473l17.376-14.998c0.643-0.554,1.424-0.83,2.173-0.83c0.785,0,1.535,0.303,2.057,0.907 l2.636,3.041c0.422,0.488,0.627,1.096,0.63,1.722c0.003,0.886-0.4,1.807-1.173,2.473L14.444,32.461 c-0.644,0.555-1.424,0.83-2.173,0.83c-0.785,0-1.535-0.303-2.056-0.906l-2.637-3.041C7.156,28.854,6.951,28.246,6.949,27.62 L6.949,27.62z"/></g></g><linearGradient id="XMLID_29_" x1="23.848" x2="8.251" y1="10.169" y2="24.135" gradientUnits="userSpaceOnUse"><stop offset="0" style="stop-color:#979797"/><stop offset=".074" style="stop-color:#b0b0b0"/><stop offset=".165" style="stop-color:#c8c8c8"/><stop offset=".262" style="stop-color:#d9d9d9"/><stop offset=".368" style="stop-color:#e3e3e3"/><stop offset=".5" style="stop-color:#e6e6e6"/><stop offset=".632" style="stop-color:#e3e3e3"/><stop offset=".738" style="stop-color:#d9d9d9"/><stop offset=".835" style="stop-color:#c8c8c8"/><stop offset=".926" style="stop-color:#b0b0b0"/><stop offset="1" style="stop-color:#979797"/></linearGradient><path fill="url(#XMLID_29_)" d="M30.851,11.934c-4.805-4.528-12.836-4.389-18.527,0.521C6.634,17.366,5.322,25.291,9.1,30.706 L30.851,11.934z"/><g><linearGradient id="XMLID_30_" x1="30.91" x2="9.934" y1="11.55" y2="30.256" gradientUnits="userSpaceOnUse"><stop offset="0" style="stop-color:#7f7f7f"/><stop offset=".011" style="stop-color:#848484"/><stop offset=".094" style="stop-color:#a2a2a2"/><stop offset=".181" style="stop-color:#bababa"/><stop offset=".274" style="stop-color:#cbcbcb"/><stop offset=".374" style="stop-color:#d5d5d5"/><stop offset=".5" style="stop-color:#d8d8d8"/><stop offset=".643" style="stop-color:#d5d5d5"/><stop offset=".758" style="stop-color:#cbcbcb"/><stop offset=".863" style="stop-color:#bababa"/><stop offset=".962" style="stop-color:#a2a2a2"/><stop offset="1" style="stop-color:#979797"/></linearGradient><path fill="url(#XMLID_30_)" d="M32.365,13.267c1.019,1.18,0.775,3.058-0.543,4.195L14.445,32.46 c-1.318,1.137-3.211,1.104-4.229-0.076l-2.637-3.041c-1.019-1.18-0.774-3.059,0.544-4.195l17.376-14.998 c1.318-1.137,3.212-1.104,4.229,0.076L32.365,13.267z"/></g></g><g><g><linearGradient id="XMLID_31_" x1="-56.12" x2="-39.342" y1="23.888" y2="8.429" gradientTransform="matrix(-0.9549 -0.0483 0.0557 0.9399 39.2903 0.4395)" gradientUnits="userSpaceOnUse"><stop offset="0" style="stop-color:#979797"/><stop offset=".074" style="stop-color:#b0b0b0"/><stop offset=".165" style="stop-color:#c8c8c8"/><stop offset=".262" style="stop-color:#d9d9d9"/><stop offset=".368" style="stop-color:#e3e3e3"/><stop offset=".5" style="stop-color:#e6e6e6"/><stop offset=".632" style="stop-color:#e3e3e3"/><stop offset=".738" style="stop-color:#d9d9d9"/><stop offset=".835" style="stop-color:#c8c8c8"/><stop offset=".926" style="stop-color:#b0b0b0"/><stop offset="1" style="stop-color:#979797"/></linearGradient><path fill="url(#XMLID_31_)" stroke="#727272" stroke-width="1.5" d="M68.925,11.189c5.041-4.752,13.469-4.605,19.439,0.547 c5.971,5.153,7.348,13.47,3.383,19.151L68.925,11.189z"/><g><linearGradient id="XMLID_32_" x1="-52.85" x2="-31.449" y1="30.122" y2="11.177" gradientTransform="matrix(-0.9549 -0.0483 0.0557 0.9399 39.2903 0.4395)" gradientUnits="userSpaceOnUse"><stop offset="0" style="stop-color:#979797"/><stop offset=".074" style="stop-color:#b0b0b0"/><stop offset=".165" style="stop-color:#c8c8c8"/><stop offset=".262" style="stop-color:#d9d9d9"/><stop offset=".368" style="stop-color:#e3e3e3"/><stop offset=".5" style="stop-color:#e6e6e6"/><stop offset=".632" style="stop-color:#e3e3e3"/><stop offset=".738" style="stop-color:#d9d9d9"/><stop offset=".835" style="stop-color:#c8c8c8"/><stop offset=".926" style="stop-color:#b0b0b0"/><stop offset="1" style="stop-color:#979797"/></linearGradient><path fill="url(#XMLID_32_)" d="M72.051,8.579c-0.929,0.069-1.762,0.48-2.346,1.157l0.002-0.001l-2.638,3.041 c-0.586,0.679-0.871,1.564-0.803,2.493c0.076,1.04,0.595,2.046,1.423,2.761l17.377,14.998c1.63,1.405,4.001,1.337,5.287-0.153 l2.635-3.04c0.587-0.68,0.872-1.565,0.803-2.496c-0.076-1.041-0.595-2.046-1.423-2.759L74.992,9.582 C74.163,8.867,73.091,8.501,72.051,8.579z"/><path fill="#727272" d="M72.328,7.819c-1.247,0-2.41,0.521-3.192,1.428l-2.634,3.037c-0.778,0.9-1.118,2.067-0.959,3.289 c0.151,1.158,0.739,2.232,1.656,3.024l17.377,14.999c0.894,0.77,2.012,1.194,3.152,1.194c1.246,0,2.409-0.52,3.191-1.427 l2.635-3.038c0.777-0.9,1.117-2.067,0.959-3.29c-0.15-1.159-0.738-2.233-1.655-3.025L75.481,9.014H75.48l-0.001-0.001 C74.585,8.244,73.466,7.819,72.328,7.819L72.328,7.819z M67.005,14.989c0.002-0.625,0.208-1.233,0.629-1.722l2.638-3.041 c0.52-0.604,1.27-0.907,2.055-0.907c0.749,0,1.529,0.276,2.173,0.83l17.376,14.998c0.772,0.666,1.176,1.587,1.173,2.473 c-0.002,0.626-0.207,1.234-0.63,1.724l-2.637,3.041c-0.521,0.604-1.271,0.906-2.056,0.906c-0.749,0-1.529-0.275-2.172-0.83 L68.179,17.462C67.407,16.796,67.002,15.875,67.005,14.989L67.005,14.989z"/></g></g><linearGradient id="XMLID_33_" x1="-38.071" x2="-53.668" y1="10.169" y2="24.135" gradientTransform="matrix(-1 0 0 1 38.082 0)" gradientUnits="userSpaceOnUse"><stop offset="0" style="stop-color:#979797"/><stop offset=".074" style="stop-color:#b0b0b0"/><stop offset=".165" style="stop-color:#c8c8c8"/><stop offset=".262" style="stop-color:#d9d9d9"/><stop offset=".368" style="stop-color:#e3e3e3"/><stop offset=".5" style="stop-color:#e6e6e6"/><stop offset=".632" style="stop-color:#e3e3e3"/><stop offset=".738" style="stop-color:#d9d9d9"/><stop offset=".835" style="stop-color:#c8c8c8"/><stop offset=".926" style="stop-color:#b0b0b0"/><stop offset="1" style="stop-color:#979797"/></linearGradient><path fill="url(#XMLID_33_)" d="M69.15,11.934c4.805-4.528,12.836-4.389,18.527,0.521c5.688,4.911,7.001,12.836,3.223,18.251 L69.15,11.934z"/><g><linearGradient id="XMLID_34_" x1="-31.009" x2="-51.984" y1="11.55" y2="30.256" gradientTransform="matrix(-1 0 0 1 38.082 0)" gradientUnits="userSpaceOnUse"><stop offset="0" style="stop-color:#7f7f7f"/><stop offset=".011" style="stop-color:#848484"/><stop offset=".094" style="stop-color:#a2a2a2"/><stop offset=".181" style="stop-color:#bababa"/><stop offset=".274" style="stop-color:#cbcbcb"/><stop offset=".374" style="stop-color:#d5d5d5"/><stop offset=".5" style="stop-color:#d8d8d8"/><stop offset=".643" style="stop-color:#d5d5d5"/><stop offset=".758" style="stop-color:#cbcbcb"/><stop offset=".863" style="stop-color:#bababa"/><stop offset=".962" style="stop-color:#a2a2a2"/><stop offset="1" style="stop-color:#979797"/></linearGradient><path fill="url(#XMLID_34_)" d="M67.635,13.267c-1.019,1.18-0.774,3.058,0.544,4.195L85.556,32.46 c1.318,1.137,3.211,1.104,4.229-0.076l2.637-3.041c1.019-1.18,0.775-3.059-0.543-4.195L74.501,10.149 c-1.318-1.137-3.212-1.104-4.229,0.076L67.635,13.267z"/></g></g><linearGradient id="XMLID_35_" x1="50.147" x2="50.147" y1="56.926" y2="49.675" gradientUnits="userSpaceOnUse"><stop offset="0" style="stop-color:#fcb111"/><stop offset="1" style="stop-color:#ef6422"/></linearGradient><circle cx="50.146" cy="52.812" r="2.427" fill="url(#XMLID_35_)"/><linearGradient id="XMLID_36_" x1="50.36" x2="50.36" y1="68.067" y2="27.498" gradientUnits="userSpaceOnUse"><stop offset=".005" style="stop-color:#3f3f3f"/><stop offset=".357" style="stop-color:#424242"/><stop offset=".629" style="stop-color:#4c4b4b"/><stop offset=".873" style="stop-color:#5c5a59"/><stop offset="1" style="stop-color:#686564"/></linearGradient><path fill="url(#XMLID_36_)" d="M53.985,57.632c0,0.553-0.448,1-1,1h-5.25c-0.552,0-1-0.447-1-1V32.465 c0-0.552,0.448-1,1-1h5.25c0.552,0,1,0.448,1,1V57.632z" opacity=".5"/><linearGradient id="XMLID_37_" x1="50.36" x2="50.36" y1="67.067" y2="26.498" gradientUnits="userSpaceOnUse"><stop offset=".005" style="stop-color:#3f3f3f"/><stop offset=".357" style="stop-color:#424242"/><stop offset=".629" style="stop-color:#4c4b4b"/><stop offset=".873" style="stop-color:#5c5a59"/><stop offset="1" style="stop-color:#686564"/></linearGradient><path fill="url(#XMLID_37_)" d="M53.985,56.632c0,0.553-0.448,1-1,1h-5.25c-0.552,0-1-0.447-1-1V31.465c0-0.552,0.448-1,1-1h5.25 c0.552,0,1,0.448,1,1V56.632z"/><linearGradient id="XMLID_38_" x1="23.208" x2="23.208" y1="65.748" y2="31.153" gradientTransform="matrix(0.6143 -0.7891 0.7891 0.6143 6.3344 51.1894)" gradientUnits="userSpaceOnUse"><stop offset=".005" style="stop-color:#3f3f3f"/><stop offset=".357" style="stop-color:#424242"/><stop offset=".629" style="stop-color:#4c4b4b"/><stop offset=".873" style="stop-color:#5c5a59"/><stop offset="1" style="stop-color:#686564"/></linearGradient><path fill="url(#XMLID_38_)" d="M67.561,64.847c0.437,0.34,0.515,0.969,0.175,1.404l-3.225,4.143 c-0.34,0.436-0.967,0.514-1.404,0.174L46.406,57.565c-0.436-0.338-0.514-0.967-0.175-1.402l3.225-4.143 c0.34-0.436,0.968-0.515,1.403-0.176L67.561,64.847z" opacity=".5"/><linearGradient id="XMLID_39_" x1="24.392" x2="24.392" y1="64.827" y2="30.232" gradientTransform="matrix(0.6143 -0.7891 0.7891 0.6143 6.3344 51.1894)" gradientUnits="userSpaceOnUse"><stop offset=".005" style="stop-color:#3f3f3f"/><stop offset=".357" style="stop-color:#424242"/><stop offset=".629" style="stop-color:#4c4b4b"/><stop offset=".873" style="stop-color:#5c5a59"/><stop offset="1" style="stop-color:#686564"/></linearGradient><path fill="url(#XMLID_39_)" d="M67.561,63.347c0.437,0.34,0.515,0.969,0.175,1.404l-3.225,4.143 c-0.34,0.436-0.967,0.514-1.404,0.174L46.406,56.065c-0.436-0.338-0.514-0.967-0.175-1.402l3.225-4.143 c0.34-0.436,0.968-0.515,1.403-0.176L67.561,63.347z"/><defs><filter id="Adobe_OpacityMaskFilter" width="52.624" height="52.625" x="23.925" y="26.59" filterUnits="userSpaceOnUse"><feColorMatrix type="matrix" values="1 0 0 0 0 0 1 0 0 0 0 0 1 0 0 0 0 0 1 0"/></filter></defs><mask id="XMLID_40_" width="52.624" height="52.625" x="23.925" y="26.59" maskUnits="userSpaceOnUse"><g filter="url(#Adobe_OpacityMaskFilter)"><linearGradient id="XMLID_41_" x1="18.162" x2="45.162" y1="18.075" y2="65.075" gradientUnits="userSpaceOnUse"><stop offset="0" style="stop-color:#fff"/><stop offset="1" style="stop-color:#000"/></linearGradient><path fill="url(#XMLID_41_)" d="M79.847,36.798c0,0-23,44-71.5,31.5s-21.5-53.5-7.5-53.5s70-2,70,0S79.847,36.798,79.847,36.798z"/></g></mask><path fill="#727272" d="M76.785,8.684c0,0,2.719,5.057,6.639,8.298s9.555,6.409,10.053,6.409 c0.004,1.239-0.561,3.336-0.561,3.336S80.027,13.821,74.267,9.965c-1.069-0.937-1.623-1.274-1.623-1.274S74.992,8.367,76.785,8.684 z" opacity=".22"/><path fill="#727272" d="M23.568,8.581c0,0-2.721,5.057-6.64,8.298s-9.554,6.41-10.054,6.41 c-0.003,1.239,0.562,3.335,0.562,3.335s12.89-12.906,18.648-16.762c1.069-0.937,1.622-1.274,1.622-1.274S25.359,8.265,23.568,8.581 z" opacity=".22"/></g></svg>