<svg xmlns="http://www.w3.org/2000/svg" xmlns:xlink="http://www.w3.org/1999/xlink" id="Layer_1" width="100.001" height="100" enable-background="new 0 0 100.001 100" overflow="visible" version="1.1" viewBox="0 0 100.001 100" xml:space="preserve"><g><g><linearGradient id="XMLID_10_" x1="50.001" x2="50.001" y1="-4.2" y2="105.111" gradientUnits="userSpaceOnUse"><stop offset="0" style="stop-color:#e6e6e6"/><stop offset="1" style="stop-color:#979797"/></linearGradient><path fill="url(#XMLID_10_)" d="M6.243,50.001c0,24.127,19.63,43.756,43.758,43.756c24.127,0,43.757-19.629,43.757-43.756 c0-24.128-19.629-43.758-43.757-43.758C25.873,6.243,6.243,25.874,6.243,50.001z"/><path fill="#727272" d="M50,5.494c-6.008,0-11.837,1.177-17.325,3.498c-5.3,2.242-10.06,5.451-14.147,9.538 c-4.086,4.086-7.295,8.846-9.537,14.146C6.67,38.166,5.493,43.994,5.493,50.002c0,6.008,1.177,11.837,3.498,17.323 c2.242,5.301,5.451,10.061,9.537,14.147c4.087,4.087,8.847,7.295,14.147,9.537c5.488,2.321,11.317,3.498,17.325,3.498 c6.008,0,11.837-1.177,17.325-3.498c5.3-2.242,10.059-5.45,14.146-9.537s7.296-8.847,9.538-14.147 c2.321-5.487,3.498-11.315,3.498-17.323c0-6.009-1.177-11.837-3.498-17.326c-2.242-5.3-5.451-10.06-9.538-14.146 c-4.087-4.087-8.846-7.296-14.146-9.538C61.837,6.671,56.008,5.494,50,5.494L50,5.494z M6.993,50.002 C6.993,26.249,26.247,6.994,50,6.994c23.752,0,43.007,19.254,43.007,43.008l0,0l0,0c0,23.752-19.255,43.006-43.007,43.006 C26.247,93.008,6.993,73.754,6.993,50.002L6.993,50.002L6.993,50.002z"/></g><g><linearGradient id="XMLID_11_" x1="50.001" x2="50.001" y1="6.248" y2="103.688" gradientUnits="userSpaceOnUse"><stop offset="0" style="stop-color:#e6e6e6"/><stop offset="1" style="stop-color:#979797"/></linearGradient><circle cx="50.001" cy="50.001" r="41.715" fill="url(#XMLID_11_)"/></g><g><linearGradient id="XMLID_12_" x1="50" x2="50" y1="88.365" y2="-1.404" gradientUnits="userSpaceOnUse"><stop offset="0" style="stop-color:#e6e6e6"/><stop offset="1" style="stop-color:#7f7f7f"/></linearGradient><circle cx="50" cy="50.001" r="33.593" fill="url(#XMLID_12_)"/></g><g opacity=".7"><path fill="#FFF" d="M20.091,50.001c0,16.492,13.417,29.91,29.91,29.91s29.91-13.418,29.91-29.91 c0-16.493-13.417-29.91-29.91-29.91S20.091,33.508,20.091,50.001z"/><path fill="#B4D6EF" d="M50,19.341c-16.933,0-30.66,13.727-30.66,30.661c0,16.932,13.727,30.659,30.66,30.659 s30.661-13.728,30.661-30.659C80.661,33.068,66.933,19.341,50,19.341L50,19.341z M50,79.162c-7.789,0-15.111-3.032-20.619-8.541 c-5.508-5.508-8.541-12.829-8.541-20.618s3.033-15.112,8.541-20.62c5.507-5.508,12.83-8.541,20.619-8.541 s15.112,3.033,20.62,8.541s8.541,12.831,8.541,20.62c0,7.788-3.033,15.11-8.541,20.618C65.112,76.129,57.789,79.162,50,79.162 L50,79.162z"/></g><linearGradient id="XMLID_13_" x1="42.014" x2="66.685" y1="30.942" y2="90.887" gradientUnits="userSpaceOnUse"><stop offset="0" style="stop-color:#a0c0e9"/><stop offset="1" style="stop-color:#6294d5"/></linearGradient><path fill="url(#XMLID_13_)" d="M60.696,53.919l16.739-3.596l-16.74-3.594c-0.372-1.145-0.918-2.207-1.605-3.164l4.284-6.625 l-6.568,4.246c-0.978-0.764-2.078-1.373-3.269-1.793l-3.546-16.516l-3.5,16.299c-1.333,0.381-2.567,0.99-3.657,1.789l-6.226-4.025 l3.99,6.174c-0.881,1.107-1.565,2.377-1.995,3.762l-16.058,3.447l16.058,3.447c0.43,1.385,1.114,2.654,1.995,3.762l-3.991,6.174 l6.227-4.025c1.09,0.799,2.324,1.41,3.657,1.789l3.5,16.299l3.546-16.514c1.19-0.42,2.291-1.031,3.269-1.795l6.567,4.246 l-4.282-6.625C59.778,56.126,60.323,55.062,60.696,53.919z M49.675,60.136c-5.419,0-9.813-4.393-9.813-9.813 s4.394-9.813,9.813-9.813c5.418,0,9.811,4.393,9.811,9.813S55.093,60.136,49.675,60.136z"/><g><polygon fill="#3D55A3" points="42.156 53.865 37.839 23.41 57.524 47.044"/><linearGradient id="XMLID_14_" x1="56.037" x2="36.99" y1="49.423" y2="21.83" gradientTransform="matrix(1.1098 -0.0487 -0.0487 1.0216 -8.7969 4.0182)" gradientUnits="userSpaceOnUse"><stop offset=".005" style="stop-color:#0060b5"/><stop offset=".425" style="stop-color:#2970b7"/><stop offset=".792" style="stop-color:#477bb8"/><stop offset="1" style="stop-color:#527fb8"/></linearGradient><polygon fill="url(#XMLID_14_)" points="43.505 52.818 39.063 26.011 55.96 47.291"/></g><g><polygon fill="#8E0000" points="42.086 53.707 61.771 77.341 57.455 46.886"/><linearGradient id="XMLID_15_" x1="50.471" x2="72.717" y1="45.587" y2="68.017" gradientTransform="matrix(1.1098 -0.0487 -0.0487 1.0216 -8.7969 4.0182)" gradientUnits="userSpaceOnUse"><stop offset=".005" style="stop-color:#e43838"/><stop offset=".334" style="stop-color:#da2929"/><stop offset=".962" style="stop-color:#c00303"/><stop offset="1" style="stop-color:#be0000"/></linearGradient><polygon fill="url(#XMLID_15_)" points="43.412 53.416 60.425 73.841 56.694 47.521"/></g><linearGradient id="XMLID_16_" x1="46.858" x2="53.143" y1="50.492" y2="50.492" gradientUnits="userSpaceOnUse"><stop offset="0" style="stop-color:#e6e6e6"/><stop offset="1" style="stop-color:#979797"/></linearGradient><circle cx="50" cy="50.492" r="3.142" fill="url(#XMLID_16_)"/><defs><filter id="Adobe_OpacityMaskFilter" width="61.32" height="61.321" x="19.341" y="19.341" filterUnits="userSpaceOnUse"><feColorMatrix type="matrix" values="1 0 0 0 0 0 1 0 0 0 0 0 1 0 0 0 0 0 1 0"/></filter></defs><mask id="XMLID_17_" width="61.32" height="61.321" x="19.341" y="19.341" maskUnits="userSpaceOnUse"><g filter="url(#Adobe_OpacityMaskFilter)"><linearGradient id="XMLID_18_" x1="36.858" x2="50.754" y1="6.862" y2="50.688" gradientUnits="userSpaceOnUse"><stop offset="0" style="stop-color:#fff"/><stop offset="1" style="stop-color:#000"/></linearGradient><path fill="url(#XMLID_18_)" d="M85.134,28.421c0,0-24.433,40.162-72.229,33.596c-3.818-14.66-1.833-26.725-1.833-26.725 l15.729-20.461l19.546-5.65l13.744,2.29l11.758,5.803l8.704,6.566L85.134,28.421z"/></g></mask><g mask="url(#XMLID_17_)" opacity=".7"><circle cx="50.001" cy="50.001" r="30.66" fill="#FFF"/></g></g></svg>