<svg xmlns="http://www.w3.org/2000/svg" xmlns:svg="http://www.w3.org/2000/svg" style="overflow:visible" id="Layer_1" width="86.41" height="86.41" enable-background="new 0 0 100 110" overflow="visible" version="1.1" viewBox="0 0 86.41 86.41" xml:space="preserve"><metadata id="metadata57"/><g id="g5" transform="translate(8.501,-28.278)"><g id="g7"><g id="g9"><g id="g11"><radialGradient id="XMLID_4_" cx="33.47" cy="75.352" r="52.53" gradientUnits="userSpaceOnUse"><stop style="stop-color:#fff254" id="stop14" offset="0"/><stop style="stop-color:#f9bc21" id="stop16" offset="1"/></radialGradient><path id="path18" d="m -7.68,71.482 c 0,23.371 19.014,42.385 42.384,42.385 23.371,0 42.385,-19.014 42.385,-42.385 0,-23.371 -19.013,-42.385 -42.384,-42.385 -23.371,0 -42.385,19.014 -42.385,42.385 z" style="fill:url(#XMLID_4_)"/><path id="path20" d="m 34.704,28.278 c -5.832,0 -11.49,1.142 -16.818,3.396 -5.145,2.176 -9.765,5.291 -13.733,9.258 -3.967,3.968 -7.082,8.588 -9.258,13.733 -2.254,5.328 -3.396,10.985 -3.396,16.817 0,5.832 1.142,11.49 3.396,16.818 2.176,5.146 5.291,9.766 9.258,13.733 3.968,3.968 8.588,7.083 13.733,9.259 5.328,2.254 10.986,3.396 16.818,3.396 5.832,0 11.49,-1.142 16.818,-3.396 5.145,-2.176 9.765,-5.291 13.733,-9.259 3.967,-3.968 7.082,-8.588 9.258,-13.733 2.254,-5.328 3.396,-10.986 3.396,-16.818 0,-5.832 -1.142,-11.489 -3.396,-16.817 C 72.337,49.519 69.222,44.899 65.255,40.932 61.287,36.965 56.667,33.85 51.522,31.674 46.194,29.42 40.536,28.278 34.704,28.278 l 0,0 z M -6.86,71.482 c 0,-22.955 18.609,-41.563 41.564,-41.563 22.955,0 41.564,18.608 41.564,41.563 l 0,0 0,0 c 0,22.955 -18.609,41.565 -41.564,41.565 -22.955,0 -41.564,-18.609 -41.564,-41.565 l 0,0 0,0 z" style="fill:#cc7e29"/></g><path id="path22" d="M 12.489,90.615" style="fill:none;stroke:#727272;stroke-width:.54710001"/><path id="path24" d="M 45.314,49.311" style="fill:none;stroke:#666;stroke-width:1.64129996"/></g><defs id="defs26"><filter id="Adobe_OpacityMaskFilter" width="76.947" height="76.947" x="-3.775" y="29.773" color-interpolation-filters="sRGB" filterUnits="userSpaceOnUse"><feColorMatrix id="feColorMatrix29" type="matrix" values="1 0 0 0 0 0 1 0 0 0 0 0 1 0 0 0 0 0 1 0"/></filter></defs><mask id="XMLID_5_" width="76.947" height="76.947" x="-3.775" y="29.773" maskUnits="userSpaceOnUse"><g id="g32" style="filter:url(#Adobe_OpacityMaskFilter)"><radialGradient id="XMLID_6_" cx="33.699" cy="46.654" r="59.721" gradientUnits="userSpaceOnUse"><stop style="stop-color:#fff" id="stop35" offset="0"/><stop style="stop-color:#000" id="stop37" offset="1"/></radialGradient><circle id="circle39" cx="34.484" cy="64.32" r="44.755" d="m 79.239002,64.32 c 0,24.717504 -20.037496,44.755 -44.755001,44.755 C 9.7664966,109.075 -10.271,89.037504 -10.271,64.32 c 0,-24.717505 20.0374966,-44.755001 44.755001,-44.755001 24.717505,0 44.755001,20.037496 44.755001,44.755001 z" style="opacity:.7;fill:url(#XMLID_6_)"/></g></mask><circle id="circle41" cx="34.699" cy="68.246" r="38.474" d="M 73.173,68.246002 C 73.173,89.494605 55.947604,106.72 34.699001,106.72 c -21.248603,0 -38.4739987,-17.225395 -38.4739987,-38.473998 0,-21.248603 17.2253957,-38.473999 38.4739987,-38.473999 21.248603,0 38.473999,17.225396 38.473999,38.473999 z" mask="url(#XMLID_5_)" style="opacity:.56999984;fill:#fff"/></g><polygon id="polygon43" points="40.882 57.652 41.541 54.975 67.686 59.668 66.601 64.038" style="fill:#3f3f3f;stroke:#3f3f3f;stroke-width:2.18829989;stroke-linecap:round;stroke-linejoin:round"/><polygon id="polygon45" points="29.209 57.558 28.642 54.86 2.35 58.646 3.285 63.049" style="fill:#3f3f3f;stroke:#3f3f3f;stroke-width:2.18829989;stroke-linecap:round;stroke-linejoin:round"/><circle id="circle47" cx="18.343" cy="68.1" r="4.336" d="m 22.679,68.099998 c 0,2.394707 -1.941293,4.336 -4.336,4.336 -2.394706,0 -4.336,-1.941293 -4.336,-4.336 0,-2.394706 1.941294,-4.335999 4.336,-4.335999 2.394707,0 4.336,1.941293 4.336,4.335999 z" style="fill:#3f3f3f;stroke:#3f3f3f;stroke-width:2.18829989;stroke-linecap:round;stroke-linejoin:round"/><circle id="circle49" cx="50.865" cy="68.6" r="4.336" d="m 55.201002,68.599998 c 0,2.394707 -1.941294,4.336 -4.336,4.336 -2.394707,0 -4.336,-1.941293 -4.336,-4.336 0,-2.394706 1.941293,-4.335999 4.336,-4.335999 2.394706,0 4.336,1.941293 4.336,4.335999 z" style="fill:#3f3f3f;stroke:#3f3f3f;stroke-width:2.18829989;stroke-linecap:round;stroke-linejoin:round"/><path id="path51" d="m 21.342,97.104 c 0,0 12.098,-15.92 26.5,0.33" style="fill:none;stroke:#606060;stroke-width:3.5;stroke-linecap:round"/></g></svg>