<svg xmlns="http://www.w3.org/2000/svg" xmlns:xlink="http://www.w3.org/1999/xlink" id="Layer_1" width="100.001" height="100" enable-background="new 0 0 100.001 100" overflow="visible" version="1.1" viewBox="0 0 100.001 100" xml:space="preserve"><g><g><g><g><radialGradient id="XMLID_4_" cx="48.085" cy="54.777" r="52.491" gradientUnits="userSpaceOnUse"><stop offset="0" style="stop-color:#fff254"/><stop offset="1" style="stop-color:#f9bc21"/></radialGradient><path fill="url(#XMLID_4_)" d="M6.964,50.91c0,23.354,19,42.354,42.354,42.354s42.354-19,42.354-42.354 c0-23.354-19-42.353-42.354-42.353S6.964,27.556,6.964,50.91z"/><g><path fill="#E2963B" d="M49.317,7.768c-5.824,0-11.474,1.141-16.794,3.391c-5.137,2.173-9.751,5.283-13.713,9.245 c-3.961,3.961-7.072,8.575-9.245,13.712c-2.25,5.32-3.391,10.971-3.391,16.795c0,5.823,1.141,11.474,3.391,16.794 c2.173,5.137,5.284,9.751,9.245,13.713c3.962,3.961,8.576,7.071,13.713,9.245c5.32,2.25,10.97,3.391,16.794,3.391 c5.824,0,11.474-1.141,16.794-3.391c5.137-2.174,9.751-5.284,13.713-9.245c3.961-3.962,7.072-8.576,9.245-13.713 c2.25-5.32,3.391-10.971,3.391-16.794c0-5.824-1.141-11.475-3.391-16.795c-2.173-5.137-5.284-9.751-9.245-13.712 c-3.962-3.962-8.576-7.072-13.713-9.245C60.792,8.909,55.141,7.768,49.317,7.768L49.317,7.768z M7.753,50.911 c0-22.955,18.609-41.563,41.564-41.563s41.564,18.608,41.564,41.563l0,0l0,0c0,22.954-18.609,41.563-41.564,41.563 S7.753,73.865,7.753,50.911L7.753,50.911L7.753,50.911z"/></g></g><path fill="none" stroke="#727272" stroke-width=".547" d="M27.102,70.043"/><path fill="none" stroke="#666" stroke-width="1.641" d="M59.927,28.738"/><path fill="none" stroke="#606060" stroke-linecap="round" stroke-width="3.283" d="M22.395,63.14c0,0-2.695,13.15,25.39,13.15 s26.512-13.403,26.512-13.403"/></g><defs><filter id="Adobe_OpacityMaskFilter" width="76.947" height="76.947" x="10.591" y="9.437" filterUnits="userSpaceOnUse"><feColorMatrix type="matrix" values="1 0 0 0 0 0 1 0 0 0 0 0 1 0 0 0 0 0 1 0"/></filter></defs><mask id="XMLID_5_" width="76.947" height="76.947" x="10.591" y="9.437" maskUnits="userSpaceOnUse"><g filter="url(#Adobe_OpacityMaskFilter)"><radialGradient id="XMLID_6_" cx="48.065" cy="26.318" r="59.721" gradientUnits="userSpaceOnUse"><stop offset="0" style="stop-color:#fff"/><stop offset="1" style="stop-color:#000"/></radialGradient><circle cx="48.849" cy="43.984" r="44.755" fill="url(#XMLID_6_)" opacity=".7"/></g></mask><circle cx="49.064" cy="47.91" r="38.474" fill="#FFF" mask="url(#XMLID_5_)" opacity=".57"/><path fill="#8A5C29" stroke="#8A5C29" stroke-linecap="round" stroke-linejoin="round" stroke-width="2.188" d="M55.287,35.855 c0,0,19.116-13.13,23.79,8.322l2.28-1.17c-4.673-21.452-23.789-8.322-23.789-8.322L55.287,35.855z"/><path fill="#3F3F3F" stroke="#3F3F3F" stroke-linecap="round" stroke-linejoin="round" stroke-width="2.188" d="M55.287,34.761 c0,0,19.116-13.131,23.79,8.322l2.28-1.17c-4.673-21.453-23.789-8.322-23.789-8.322L55.287,34.761z"/><path fill="#8A5C29" stroke="#8A5C29" stroke-linecap="round" stroke-linejoin="round" stroke-width="2.188" d="M42.249,35.507 c0,0-19.914-11.885-23.211,9.821l-2.351-1.022c3.296-21.705,23.211-9.82,23.211-9.82L42.249,35.507z"/><path fill="#3F3F3F" stroke="#3F3F3F" stroke-linecap="round" stroke-linejoin="round" stroke-width="2.188" d="M42.249,34.414 c0,0-19.914-11.885-23.211,9.82l-2.351-1.021c3.296-21.705,23.211-9.82,23.211-9.82L42.249,34.414z"/><ellipse cx="24.192" cy="54.703" fill="#F97575" stroke="#F97575" stroke-linecap="round" stroke-linejoin="round" stroke-width="2.188" rx="10.72" ry="2.732"/><ellipse cx="73.487" cy="54.703" fill="#F97575" stroke="#F97575" stroke-linecap="round" stroke-linejoin="round" stroke-width="2.188" rx="10.72" ry="2.732"/><circle cx="32.956" cy="45.028" r="4.336" fill="#3F3F3F" stroke="#3F3F3F" stroke-linecap="round" stroke-linejoin="round" stroke-width="2.188"/><circle cx="65.478" cy="45.028" r="4.336" fill="#3F3F3F" stroke="#3F3F3F" stroke-linecap="round" stroke-linejoin="round" stroke-width="2.188"/></g><ellipse cx="24.023" cy="54.023" fill="#E95C5C" stroke="#E95C5C" stroke-linecap="round" stroke-linejoin="round" stroke-width="2.188" rx="9.557" ry="1.566"/><ellipse cx="73.487" cy="54.023" fill="#E95C5C" stroke="#E95C5C" stroke-linecap="round" stroke-linejoin="round" stroke-width="2.188" rx="9.557" ry="1.566"/></g></svg>