<svg xmlns="http://www.w3.org/2000/svg" xmlns:xlink="http://www.w3.org/1999/xlink" id="Layer_1" width="106" height="106" enable-background="new 0 0 106 106" overflow="visible" version="1.1" viewBox="0 0 106 106" xml:space="preserve"><g><g><linearGradient id="XMLID_4_" x1="32.951" x2="54.064" y1="38.457" y2="64.938" gradientUnits="userSpaceOnUse"><stop offset="0" style="stop-color:#5a3d1c"/><stop offset=".495" style="stop-color:#8b5c29"/><stop offset="1" style="stop-color:#5a3d1c"/></linearGradient><path fill="url(#XMLID_4_)" d="M64.765,18.792c0,0-48.414,49.369-48.896,49.86c-0.435,0.146-0.516,0.8-0.863,3.812l-1.856,16.117 c-0.004,0.038-0.006,0.076-0.006,0.113c0,0.264,0.105,0.518,0.295,0.704c0.218,0.214,0.521,0.314,0.823,0.273L33.317,87.1 c0.217-0.029,0.42-0.132,0.574-0.288l49.138-50.108c2.977-3.035,2.93-7.926-0.106-10.903l-7.254-7.114 C72.633,15.709,67.742,15.757,64.765,18.792z"/><path fill="#895C29" d="M70.27,15.502c-2.361,0-4.566,0.923-6.21,2.6l-5.021,5.118c0,0-0.001,0.001-0.002,0.002L14.921,68.212 c-0.307,0.313-0.502,0.719-0.552,1.154l-2.2,19.103c-0.07,0.604,0.144,1.208,0.579,1.635c0.37,0.363,0.867,0.563,1.379,0.563 c0.088,0,0.177-0.006,0.266-0.018l19.056-2.572c0.435-0.058,0.837-0.26,1.145-0.573l44.118-44.989l5.021-5.121 c1.621-1.652,2.502-3.845,2.479-6.174c-0.023-2.328-0.946-4.502-2.601-6.124l-7.252-7.114c-0.001,0-0.001,0-0.002-0.001 C74.726,16.382,72.564,15.502,70.27,15.502L70.27,15.502z M61.829,23.195l3.641-3.711c1.311-1.337,3.056-2.008,4.801-2.008 c1.701,0,3.404,0.638,4.708,1.915l7.253,7.114c1.341,1.315,2.012,3.065,2.008,4.816c-0.003,1.696-0.64,3.393-1.915,4.692 l-5.021,5.121L33.185,86.122l-19.056,2.572l0,0l0,0l2.2-19.102l42.736-43.58l0,0l0.356-0.363v0l1.025-1.045l0,0l0,0l0,0 l1.024-1.044l0,0L61.829,23.195L61.829,23.195L61.829,23.195z M60.447,24.604c0.154,0.153,0.318,0.313,0.488,0.48L60.447,24.604 L60.447,24.604z M60.935,25.083l0.456,0.447C61.235,25.377,61.082,25.228,60.935,25.083L60.935,25.083z"/></g><rect width="63.011" height="23.607" x="15.311" y="43.559" fill="#F9B406" transform="matrix(0.7002 -0.714 0.714 0.7002 -25.4907 50.0263)"/><rect width="63.011" height="5.542" x="8.862" y="46.267" fill="#FFC943" transform="matrix(0.7002 -0.714 0.714 0.7002 -22.9084 43.5251)"/><rect width="63.011" height="5.52" x="21.768" y="58.935" fill="#CE800D" transform="matrix(0.7002 -0.714 0.714 0.7002 -28.0757 56.535)"/><linearGradient id="XMLID_5_" x1="83.058" x2="69.247" y1="38.105" y2="23.307" gradientUnits="userSpaceOnUse"><stop offset="0" style="stop-color:#972b28"/><stop offset="1" style="stop-color:#e25656"/></linearGradient><path fill="url(#XMLID_5_)" d="M82.232,26.504c2.64,2.589,2.683,6.868,0.093,9.508l-5.021,5.121 c-3.254-3.19-12.695-12.448-16.855-16.529l5.021-5.121c2.59-2.641,6.868-2.682,9.509-0.093L82.232,26.504z"/><linearGradient id="XMLID_6_" x1="36.009" x2="89.696" y1="85.718" y2="85.718" gradientUnits="userSpaceOnUse"><stop offset=".005" style="stop-color:#a37b16"/><stop offset="1" style="stop-color:#5a3d1c"/></linearGradient><polygon fill="url(#XMLID_6_)" points="89.696 90.462 36.009 90.462 45.705 80.974 89.696 80.974"/></g></svg>