<svg xmlns="http://www.w3.org/2000/svg" xmlns:xlink="http://www.w3.org/1999/xlink" id="Layer_1" width="106" height="106" enable-background="new 0 0 106 106" overflow="visible" version="1.1" viewBox="0 0 106 106" xml:space="preserve"><g><g><linearGradient id="XMLID_12_" x1="19.313" x2="95.441" y1="15.387" y2="99.416" gradientUnits="userSpaceOnUse"><stop offset="0" style="stop-color:#6295d6"/><stop offset="1" style="stop-color:#355787"/></linearGradient><path fill="url(#XMLID_12_)" d="M22.043,14.226c-4.183,0-7.585,3.402-7.585,7.584v60.678c0,4.182,3.403,7.584,7.585,7.584h55.622 l13.113-13.113V21.811c0-4.182-3.402-7.584-7.584-7.584H22.043z"/><path fill="#3A7C06" d="M83.194,13.752H22.043c-4.444,0-8.059,3.615-8.059,8.059v60.677c0,4.444,3.615,8.06,8.059,8.06h55.426 h0.393l0.277-0.278l12.836-12.836l0.278-0.277v-0.393V21.812C91.253,17.368,87.638,13.752,83.194,13.752L83.194,13.752z M14.932,21.812c0-3.927,3.183-7.111,7.111-7.111h61.151c3.927,0,7.111,3.184,7.111,7.111v54.952l0,0l0,0L77.469,89.6H22.043 c-3.928,0-7.111-3.185-7.111-7.111V21.812L14.932,21.812L14.932,21.812z"/></g><g><linearGradient id="XMLID_13_" x1="19.622" x2="94.991" y1="15.729" y2="98.919" gradientUnits="userSpaceOnUse"><stop offset="0" style="stop-color:#25bf4c"/><stop offset="1" style="stop-color:#017731"/></linearGradient><path fill="url(#XMLID_13_)" d="M90.305,76.763V21.811c0-3.926-3.184-7.11-7.11-7.11H22.043c-3.928,0-7.111,3.184-7.111,7.11 v60.678c0,3.927,3.184,7.11,7.111,7.11h55.426L90.305,76.763z"/></g><linearGradient id="XMLID_14_" x1="75.495" x2="30.502" y1="88.394" y2="67.047" gradientUnits="userSpaceOnUse"><stop offset="0" style="stop-color:#25bf4c"/><stop offset="1" style="stop-color:#017731"/></linearGradient><path fill="url(#XMLID_14_)" d="M75.636,88.796c-4.511,0-22.05,0-46.034,0V67.784c0-1.309,1.061-2.37,2.37-2.37h41.294 c1.309,0,2.37,1.062,2.37,2.37V88.796z"/><linearGradient id="XMLID_15_" x1="35.522" x2="77.869" y1="67.38" y2="94.558" gradientUnits="userSpaceOnUse"><stop offset="0" style="stop-color:#fff"/><stop offset="1" style="stop-color:#7c7c7c"/></linearGradient><path fill="url(#XMLID_15_)" d="M74.689,89.27c-4.511,0-20.155,0-44.139,0V68.732c0-1.31,1.061-2.37,2.369-2.37h39.398 c1.31,0,2.371,1.061,2.371,2.37V89.27z"/><linearGradient id="XMLID_16_" x1="53.574" x2="29.542" y1="30.347" y2="58.411" gradientUnits="userSpaceOnUse"><stop offset="0" style="stop-color:#25bf4c"/><stop offset="1" style="stop-color:#017731"/></linearGradient><path fill="url(#XMLID_16_)" d="M80.903,46.264c0,1.309-1.061,2.37-2.37,2.37H26.705c-1.309,0-2.37-1.062-2.37-2.37v-30.48 c15.979,0,47.029,0,56.568,0V46.264z"/><linearGradient id="XMLID_17_" x1="28.287" x2="80.076" y1="14.736" y2="48.749" gradientUnits="userSpaceOnUse"><stop offset="0" style="stop-color:#fff"/><stop offset="1" style="stop-color:#7c7c7c"/></linearGradient><path fill="url(#XMLID_17_)" d="M79.955,45.316c0,1.309-1.061,2.371-2.369,2.371H27.654c-1.31,0-2.371-1.062-2.371-2.371V14.836 c15.979,0,45.132,0,54.672,0V45.316z"/><linearGradient id="XMLID_18_" x1="48.399" x2="38.919" y1="87.817" y2="75.493" gradientUnits="userSpaceOnUse"><stop offset="0" style="stop-color:#327a29"/><stop offset="1" style="stop-color:#233c17"/></linearGradient><path fill="url(#XMLID_18_)" stroke="#3A7C06" stroke-width=".711" d="M48.422,84.54c0,1.309-1.062,2.37-2.371,2.37h-6.686 c-1.31,0-2.37-1.062-2.37-2.37V76.3c0-1.309,1.061-2.369,2.37-2.369h6.686c1.31,0,2.371,1.061,2.371,2.369V84.54z"/><linearGradient id="XMLID_19_" x1="52.619" x2="52.619" y1="28.763" y2="35.399" gradientUnits="userSpaceOnUse"><stop offset="0" style="stop-color:#6dc386"/><stop offset=".902" style="stop-color:#39a15e"/></linearGradient><path fill="url(#XMLID_19_)" stroke="#EAEAEA" stroke-width=".474" d="M77.515,32.508c0,1.31-1.061,2.371-2.369,2.371H30.092 c-1.31,0-2.37-1.061-2.37-2.371V31.23c0-1.309,1.061-2.37,2.37-2.37h45.054c1.309,0,2.369,1.062,2.369,2.37V32.508z"/><linearGradient id="XMLID_20_" x1="52.619" x2="52.619" y1="19.993" y2="26.866" gradientUnits="userSpaceOnUse"><stop offset="0" style="stop-color:#6dc386"/><stop offset=".902" style="stop-color:#39a15e"/></linearGradient><path fill="url(#XMLID_20_)" stroke="#EAEAEA" stroke-width=".474" d="M77.515,23.569c0,1.309-1.061,2.37-2.369,2.37H30.092 c-1.31,0-2.37-1.061-2.37-2.37v-1.278c0-1.309,1.061-2.37,2.37-2.37h45.054c1.309,0,2.369,1.062,2.369,2.37V23.569z"/><linearGradient id="XMLID_21_" x1="52.619" x2="52.619" y1="38.007" y2="43.932" gradientUnits="userSpaceOnUse"><stop offset="0" style="stop-color:#6dc386"/><stop offset=".902" style="stop-color:#39a15e"/></linearGradient><path fill="url(#XMLID_21_)" stroke="#EAEAEA" stroke-width=".474" d="M77.515,41.447c0,1.31-1.061,2.37-2.369,2.37H30.092 c-1.31,0-2.37-1.061-2.37-2.37v-1.279c0-1.309,1.061-2.37,2.37-2.37h45.054c1.309,0,2.369,1.061,2.369,2.37V41.447z"/><path fill="#D2EFF9" d="M25.677,14.7c0,0-9.836-1.877-10.745,7.11c0,6.004,0,60.678,0,60.678s-0.039,3.74,2.69,5.567 c0,0-1.367-2.053-1.367-5.549c0-2.488,0-60.795,0-60.795S16.078,15.43,25.677,14.7z" opacity=".6"/><linearGradient id="XMLID_22_" x1="74.918" x2="90.305" y1="53.036" y2="53.036" gradientUnits="userSpaceOnUse"><stop offset="0" style="stop-color:#27447d"/><stop offset="1" style="stop-color:#1c2958"/></linearGradient><path fill="url(#XMLID_22_)" d="M87.891,16.474c0,0,0.774,2.415,0.774,5.336c0,2.923,0,54.119,0,54.119 L76.577,88.491l-1.658,1.107h2.551l12.836-12.836V21.811C90.305,21.811,90.367,18.95,87.891,16.474z" opacity=".3"/></g></svg>