<svg xmlns="http://www.w3.org/2000/svg" xmlns:xlink="http://www.w3.org/1999/xlink" id="Layer_1" width="106" height="106" enable-background="new 0 0 106 106" overflow="visible" version="1.1" viewBox="0 0 106 106" xml:space="preserve"><g><g><linearGradient id="XMLID_3_" x1="36.407" x2="57.52" y1="38.713" y2="65.195" gradientUnits="userSpaceOnUse"><stop offset="0" style="stop-color:#5a3d1c"/><stop offset=".495" style="stop-color:#8b5c29"/><stop offset="1" style="stop-color:#5a3d1c"/></linearGradient><path fill="url(#XMLID_3_)" d="M73.65,16.745c-2.064,0.021-3.993,0.838-5.429,2.304v0l-49.14,50.11 c-0.154,0.156-0.251,0.359-0.276,0.577l-2.2,19.103c-0.004,0.038-0.006,0.076-0.006,0.113c0,0.264,0.105,0.518,0.295,0.704 c0.218,0.214,0.521,0.314,0.823,0.273l19.057-2.573c0.218-0.029,0.421-0.133,0.575-0.289l49.136-50.107 c2.977-3.035,2.93-7.926-0.106-10.903l-7.254-7.114C77.66,17.505,75.714,16.725,73.65,16.745z"/><path fill="#895C29" d="M73.726,15.76c-2.361,0-4.567,0.923-6.21,2.599l-4.985,5.083c-0.013,0.012-0.025,0.025-0.038,0.038 L18.376,68.469c-0.307,0.313-0.501,0.719-0.551,1.154l-2.2,19.103c-0.07,0.604,0.144,1.208,0.579,1.635 c0.37,0.363,0.867,0.564,1.38,0.564c0.088,0,0.177-0.006,0.265-0.019l19.057-2.572c0.435-0.059,0.836-0.261,1.144-0.574 l44.119-44.989l5.021-5.12c1.621-1.653,2.502-3.846,2.479-6.174c-0.023-2.328-0.946-4.503-2.601-6.125l-7.252-7.114 c-0.001,0-0.001,0-0.002-0.001C78.183,16.64,76.021,15.76,73.726,15.76L73.726,15.76z M65.284,23.452l3.642-3.712 c1.311-1.337,3.055-2.007,4.801-2.007c1.702,0,3.404,0.637,4.708,1.914l7.253,7.114c1.341,1.314,2.012,3.065,2.008,4.815 c-0.003,1.697-0.64,3.394-1.915,4.693l-5.021,5.12L36.641,86.379h0.001l-19.057,2.572l0,0l0,0l2.2-19.102l42.736-43.581l0,0 l0.357-0.364l0,0l1.023-1.044l0.946,0.926c-0.337-0.33-0.656-0.642-0.945-0.926l0,0l0,0l1.025-1.045l0,0L65.284,23.452 L65.284,23.452L65.284,23.452z"/></g><rect width="63.011" height="23.608" x="18.767" y="43.815" fill="#F9B406" transform="matrix(0.7002 -0.714 0.714 0.7002 -24.6374 52.5701)"/><rect width="63.01" height="5.542" x="12.318" y="46.523" fill="#FFC943" transform="matrix(0.7002 -0.714 0.714 0.7002 -22.0556 46.0695)"/><rect width="63.011" height="5.52" x="25.224" y="59.191" fill="#CE800D" transform="matrix(0.7002 -0.714 0.714 0.7002 -27.2223 59.0789)"/><linearGradient id="XMLID_4_" x1="86.513" x2="72.703" y1="38.359" y2="23.563" gradientUnits="userSpaceOnUse"><stop offset="0" style="stop-color:#972b28"/><stop offset="1" style="stop-color:#e25656"/></linearGradient><path fill="url(#XMLID_4_)" d="M85.688,26.76c2.64,2.589,2.683,6.868,0.093,9.508l-5.021,5.121 c-3.254-3.19-12.695-12.449-16.855-16.529l5.021-5.121c2.589-2.641,6.868-2.682,9.509-0.093L85.688,26.76z"/></g></svg>