<svg xmlns="http://www.w3.org/2000/svg" xmlns:xlink="http://www.w3.org/1999/xlink" id="Layer_1" width="106" height="106" enable-background="new 0 0 106 106" overflow="visible" version="1.1" viewBox="0 0 106 106" xml:space="preserve"><g><defs><filter id="Adobe_OpacityMaskFilter" width="71.373" height="69.751" x="5.234" y="18.114" filterUnits="userSpaceOnUse"><feColorMatrix type="matrix" values="1 0 0 0 0 0 1 0 0 0 0 0 1 0 0 0 0 0 1 0"/></filter></defs><mask id="XMLID_19_" width="71.373" height="69.751" x="5.234" y="18.114" maskUnits="userSpaceOnUse"><g filter="url(#Adobe_OpacityMaskFilter)"><linearGradient id="XMLID_20_" x1="7.385" x2="25.399" y1="15.776" y2="41.848" gradientUnits="userSpaceOnUse"><stop offset="0" style="stop-color:#fff"/><stop offset="1" style="stop-color:#000"/></linearGradient><path fill="url(#XMLID_20_)" d="M-14.755,52.284c0,0,32.946,13.273,73.358-30.931c-14.459-9.481-33.064-10.311-33.064-10.311 L8.168,13.371l-15.963,15L-14.755,52.284z"/></g></mask><g mask="url(#XMLID_19_)" opacity=".61"><path fill="#FFF" d="M13.62,19.061c-4.102,0-7.438,3.337-7.438,7.438v53c0,1.98,0.776,3.845,2.186,5.249 s3.276,2.175,5.256,2.167l54.6-0.123c4.101-0.014,7.437-3.382,7.437-7.508V37.499c0-4.102-3.337-7.438-7.438-7.438H49.82 c-3.199,0-7.677-1.349-9.631-3.605c-1.5-1.734-6.734-7.394-11.064-7.394H13.62z"/><path fill="#8B5C29" d="M29.125,18.114H13.62c-2.233,0-4.337,0.874-5.924,2.461c-1.588,1.588-2.462,3.692-2.462,5.925v53 c0,4.612,3.752,8.365,8.365,8.365c0.014,0,0.039,0,0.072-0.001l54.553-0.124c2.235-0.007,4.34-0.899,5.93-2.511 c1.582-1.604,2.453-3.715,2.453-5.945V37.499c0-4.624-3.762-8.386-8.387-8.386H49.821c-3.351,0-7.349-1.471-8.913-3.278 C38.898,23.514,33.729,18.114,29.125,18.114L29.125,18.114z M7.13,26.5c0-3.57,2.921-6.49,6.49-6.49h15.505 c3.57,0,8.227,4.614,10.35,7.066c2.119,2.449,6.776,3.933,10.347,3.933H68.22c3.569,0,6.49,2.92,6.49,6.49v41.785l0,0l0,0 c0,3.568-2.921,6.548-6.49,6.561L13.62,85.968c-0.007,0.002-0.014,0.002-0.021,0.002c-3.56,0-6.469-2.906-6.469-6.47V26.5 L7.13,26.5L7.13,26.5z M13.745,87.86c0.039-0.003,0.082-0.007,0.129-0.014C13.831,87.853,13.788,87.857,13.745,87.86L13.745,87.86 z"/></g><g><linearGradient id="XMLID_5_" x1="337.716" x2="337.716" y1="135.405" y2="220.228" gradientUnits="userSpaceOnUse"><stop offset="0" style="stop-color:#f9c553"/><stop offset=".773" style="stop-color:#f8b54b"/><stop offset="1" style="stop-color:#f06422"/></linearGradient></g><defs><filter id="Adobe_OpacityMaskFilter_3_" width="92.108" height="38.212" x="7.13" y="47.756" filterUnits="userSpaceOnUse"><feColorMatrix type="matrix" values="1 0 0 0 0 0 1 0 0 0 0 0 1 0 0 0 0 0 1 0"/></filter></defs><mask id="XMLID_6_" width="92.108" height="38.212" x="7.13" y="47.756" maskUnits="userSpaceOnUse"><g filter="url(#Adobe_OpacityMaskFilter_3_)"><linearGradient id="XMLID_7_" x1="42.21" x2="62.813" y1="28.462" y2="58.282" gradientUnits="userSpaceOnUse"><stop offset="0" style="stop-color:#fff"/><stop offset="1" style="stop-color:#000"/></linearGradient><path fill="url(#XMLID_7_)" d="M12.83,69.704c0,0,50.604,8.404,91.016-35.8c-14.457-9.481-50.723-5.441-50.723-5.441 l-17.37,2.328l-15.963,15L12.83,69.704z"/></g></mask><g mask="url(#XMLID_6_)" opacity=".8"><path fill="#FFF" d="M40.957,48.704c-5.129,0-8.249,3.959-8.28,3.998c-0.054,0.101-11.336,18.742-15.516,26.027 c-1.43,2.492-3.139,3.818-5.079,3.941c-0.961,0.061-1.84-0.197-2.618-0.576c1.64,2.775,3.435,2.916,3.533,2.92l60.752,0.004 c4.831,0,6.696-2.611,6.772-2.723c0.144-0.225,15.846-24.844,17.458-29.532c0.421-1.226,0.417-2.19-0.013-2.868 c-0.645-1.02-2.106-1.195-2.121-1.197L40.957,48.704z"/><path fill="#FFF38E" d="M95.946,47.756c0,0-49.302,0-54.989,0c-5.688,0-9.031,4.369-9.031,4.369S20.573,70.879,16.339,78.259 c-1.508,2.629-3.109,3.475-4.547,3.475c-2.599,0-4.662-2.767-4.662-2.767c0.192,0.657,0.4,1.253,0.619,1.792l0,0 c0.33,0.814,0.686,1.502,1.049,2.08l0,0c1.958,3.115,4.176,3.124,4.176,3.124l60.773,0.005c5.457,0,7.557-3.138,7.557-3.138 s15.903-24.908,17.57-29.759c0.254-0.738,0.362-1.375,0.363-1.924C99.248,48.091,95.946,47.756,95.946,47.756L95.946,47.756z M33.479,53.22c0.414-0.49,3.188-3.568,7.477-3.568H95.81c0.326,0.06,1.061,0.279,1.358,0.757 c0.328,0.526,0.134,1.405-0.087,2.048c-1.305,3.795-12.938,22.4-17.348,29.311c-0.169,0.225-1.853,2.305-5.986,2.305 l-60.704-0.004c-0.085-0.012-0.474-0.083-1.005-0.443c1.653-0.076,3.947-0.939,5.946-4.421 C21.987,72.223,32.527,54.794,33.479,53.22L33.479,53.22z M79.742,81.757c0.004-0.006,0.008-0.011,0.008-0.011 s-0.001,0.001-0.003,0.004C79.746,81.751,79.744,81.754,79.742,81.757L79.742,81.757z M79.707,81.81 c0.014-0.022,0.008-0.013,0.021-0.035c0,0,0.002-0.001,0.004-0.004C79.724,81.784,79.714,81.797,79.707,81.81L79.707,81.81z"/></g><g><g><linearGradient id="XMLID_8_" x1="53.185" x2="53.185" y1="19.555" y2="84.471" gradientUnits="userSpaceOnUse"><stop offset="0" style="stop-color:#f9c553"/><stop offset=".613" style="stop-color:#f8b54b"/><stop offset="1" style="stop-color:#f48935"/></linearGradient><path fill="url(#XMLID_8_)" d="M95.946,47.756c0,0-9.84,0-21.234,0V37.499c0-3.57-2.921-6.49-6.49-6.49H49.82 c-3.569,0-8.227-1.483-10.348-3.933c-2.121-2.451-6.778-7.066-10.348-7.066H13.62c-3.569,0-6.49,2.92-6.49,6.49v53 c0,3.111,2.219,5.72,5.152,6.332c0.427,0.13,0.693,0.132,0.693,0.132h0.549c0.032,0.001,0.064,0.005,0.096,0.005l1.95-0.005 l58.179,0.005c5.457,0,7.557-3.139,7.557-3.139s15.903-24.907,17.57-29.758C100.542,48.221,95.946,47.756,95.946,47.756z"/></g><g><linearGradient id="XMLID_9_" x1="40.92" x2="40.92" y1="23.145" y2="110.407" gradientUnits="userSpaceOnUse"><stop offset="0" style="stop-color:#fff38e"/><stop offset=".324" style="stop-color:#f7e379"/><stop offset="1" style="stop-color:#f0d14d"/></linearGradient><path fill="url(#XMLID_9_)" d="M13.62,19.061c-4.102,0-7.438,3.337-7.438,7.438v53c0,1.98,0.776,3.845,2.186,5.249 s3.276,2.175,5.256,2.167l54.6-0.123c4.101-0.014,7.437-3.382,7.437-7.508V37.499c0-4.102-3.337-7.438-7.438-7.438H49.82 c-3.199,0-7.677-1.349-9.631-3.605c-1.5-1.734-6.734-7.394-11.064-7.394H13.62z"/><g><path fill="#A37B16" d="M29.125,18.114H13.62c-2.233,0-4.337,0.874-5.924,2.461c-1.588,1.588-2.462,3.692-2.462,5.925v53 c0,4.612,3.752,8.365,8.365,8.365c0.014,0,0.039,0,0.072-0.001l54.553-0.124c2.235-0.007,4.34-0.899,5.93-2.511 c1.582-1.604,2.453-3.715,2.453-5.945V37.499c0-4.624-3.762-8.386-8.387-8.386H49.821c-3.351,0-7.349-1.471-8.913-3.278 C38.898,23.514,33.729,18.114,29.125,18.114L29.125,18.114z M7.13,26.5c0-3.57,2.921-6.49,6.49-6.49h15.505 c3.57,0,8.227,4.614,10.35,7.066c2.119,2.449,6.776,3.933,10.347,3.933H68.22c3.569,0,6.49,2.92,6.49,6.49v41.785l0,0l0,0 c0,3.568-2.921,6.548-6.49,6.561L13.62,85.968c-0.007,0.002-0.014,0.002-0.021,0.002c-3.56,0-6.469-2.906-6.469-6.47V26.5 L7.13,26.5L7.13,26.5z M13.745,87.86c0.039-0.003,0.082-0.007,0.129-0.014C13.831,87.853,13.788,87.857,13.745,87.86 L13.745,87.86z"/></g></g><g><g><path fill="#FFF8B8" d="M29.178,20.01c-0.017,0-0.035,0-0.053,0c-3.232,0.043-16.242,0.043-16.242,0.043 s-4.805,0.418-5.753,5.078c0,7.149,0,53.724,0,53.724s0.025,7.113,6.49,7.113c6.467,0,60.731-0.238,60.731-0.238l0.147-49.871 c0,0-0.957-4.002-5.464-4.797c-5.305,0-19.214-0.053-19.214-0.053s-4.685-0.195-6.697-1.442c0,0-2.881-1.096-6.678-5.588 C36.446,23.979,32.402,20.01,29.178,20.01L29.178,20.01z M29.125,21.432h0.053c2.114,0,5.231,2.559,6.228,3.52 c3.542,4.172,6.404,5.593,7.07,5.885c2.297,1.349,6.775,1.571,7.285,1.593l0.027,0.001h0.027 c0.138,0.001,13.741,0.052,19.085,0.053c3.013,0.584,3.974,2.959,4.175,3.575l-0.143,48.255 c-8.589,0.037-53.509,0.232-59.313,0.232c-2.105,0-3.536-0.893-4.376-2.727c-0.668-1.459-0.692-2.954-0.692-2.969V25.285 c0.737-3.229,3.941-3.751,4.41-3.81c1.094,0,13.109-0.002,16.182-0.043C29.138,21.432,29.131,21.432,29.125,21.432 L29.125,21.432z M13.012,21.469c0,0,0.001,0,0.002,0C13.013,21.469,13.012,21.469,13.012,21.469L13.012,21.469z M73.119,36.201 l-0.003-0.011c-0.001-0.001-0.001-0.002-0.001-0.003C73.117,36.193,73.118,36.198,73.119,36.201L73.119,36.201z"/></g></g><g><linearGradient id="XMLID_10_" x1="53.878" x2="53.878" y1="46.993" y2="82.812" gradientUnits="userSpaceOnUse"><stop offset="0" style="stop-color:#fff38e"/><stop offset=".871" style="stop-color:#f7e379"/><stop offset="1" style="stop-color:#f0d14d"/></linearGradient><path fill="url(#XMLID_10_)" d="M40.957,48.704c-5.129,0-8.249,3.959-8.28,3.998c-0.054,0.101-11.336,18.742-15.516,26.027 c-1.43,2.492-3.139,3.818-5.079,3.941c-0.961,0.061-1.84-0.197-2.618-0.576c1.64,2.775,3.435,2.916,3.533,2.92l60.752,0.004 c4.831,0,6.696-2.611,6.772-2.723c0.144-0.225,15.846-24.844,17.458-29.532c0.421-1.226,0.417-2.19-0.013-2.868 c-0.645-1.02-2.106-1.195-2.121-1.197L40.957,48.704z"/><g><path fill="#FFF8B8" d="M95.946,47.756c0,0-49.302,0-54.989,0c-5.688,0-9.031,4.369-9.031,4.369S20.573,70.879,16.339,78.259 c-1.508,2.629-3.109,3.475-4.547,3.475c-2.599,0-4.662-2.767-4.662-2.767c0.192,0.657,0.4,1.253,0.619,1.792l0,0 c0.33,0.814,0.686,1.502,1.049,2.08l0,0c1.958,3.115,4.176,3.124,4.176,3.124l60.773,0.005c5.457,0,7.557-3.138,7.557-3.138 s15.903-24.908,17.57-29.759c0.254-0.738,0.362-1.375,0.363-1.924C99.248,48.091,95.946,47.756,95.946,47.756L95.946,47.756z M33.479,53.22c0.414-0.49,3.188-3.568,7.477-3.568H95.81c0.326,0.06,1.061,0.279,1.358,0.757 c0.328,0.526,0.134,1.405-0.087,2.048c-1.305,3.795-12.938,22.4-17.348,29.311c-0.169,0.225-1.853,2.305-5.986,2.305 l-60.704-0.004c-0.085-0.012-0.474-0.083-1.005-0.443c1.653-0.076,3.947-0.939,5.946-4.421 C21.987,72.223,32.527,54.794,33.479,53.22L33.479,53.22z M79.742,81.757c0.004-0.006,0.008-0.011,0.008-0.011 s-0.001,0.001-0.003,0.004C79.746,81.751,79.744,81.754,79.742,81.757L79.742,81.757z M79.707,81.81 c0.014-0.022,0.008-0.013,0.021-0.035c0,0,0.002-0.001,0.004-0.004C79.724,81.784,79.714,81.797,79.707,81.81L79.707,81.81z"/></g></g><g><path fill="#A37B16" d="M40.629,46.48c-6.246,0-9.887,4.665-10.039,4.863l-0.033,0.042l-0.027,0.046 c-0.117,0.192-11.705,19.339-16.005,26.833c-1.124,1.957-2.352,2.99-3.652,3.07c-2.207,0.137-4.155-2.417-4.002-2.443 l-1.558,1.165c-0.068,0.14,2.414,3.415,5.671,3.221c1.998-0.12,3.757-1.48,5.229-4.044c4.188-7.298,15.316-25.695,15.949-26.739 c0.276-0.341,3.418-4.069,8.467-4.069c0,0,56.225,0,56.355,0c0.189,0.027,1.521,0.246,2.14,1.224 c0.223,0.351,0.333,0.775,0.333,1.273c0,0.488-0.107,1.045-0.321,1.668c-1.652,4.812-17.765,30.071-17.927,30.326 c-0.065,0.094-1.966,2.797-6.188,2.988l-61.951,0.058v1.882l61.995,0.005c5.282-0.237,7.672-3.72,7.771-3.868 c0.68-1.065,16.412-25.73,18.14-30.758c0.637-1.854,0.563-3.412-0.22-4.633c-1.177-1.839-3.51-2.096-3.608-2.106L97.1,46.48 H40.629z"/></g><path fill="none" stroke="#A37B16" stroke-width="1.896" d="M6.182,27.896v51.07c0,0,3.632,6.164,8.235,0.123 c4.498-6.74,13.999-22.67,13.999-22.67"/></g><defs><filter id="Adobe_OpacityMaskFilter_4_" width="75.313" height="48.614" x="300.059" y="148.78" filterUnits="userSpaceOnUse"><feColorMatrix type="matrix" values="1 0 0 0 0 0 1 0 0 0 0 0 1 0 0 0 0 0 1 0"/></filter></defs><mask id="XMLID_11_" width="75.313" height="48.614" x="300.059" y="148.78" maskUnits="userSpaceOnUse"><g filter="url(#Adobe_OpacityMaskFilter_4_)"><linearGradient id="XMLID_12_" x1="-605.903" x2="-554.196" y1="314.126" y2="372.765" gradientTransform="matrix(1.1531 0.0073 -0.0072 1.129 179.2402 -63.6737)" gradientUnits="userSpaceOnUse"><stop offset="0" style="stop-color:#fff"/><stop offset="1" style="stop-color:#000"/></linearGradient><path fill="url(#XMLID_12_)" d="M-516.612,357.142c0,0,37.894,15.228,84.809-34.381c-16.603-10.809-38.051-11.883-38.051-11.883 l-20.046,2.5l-18.514,16.817L-516.612,357.142z"/></g></mask></g></svg>