<svg xmlns="http://www.w3.org/2000/svg" xmlns:xlink="http://www.w3.org/1999/xlink" id="Layer_1" width="106" height="106" enable-background="new 0 0 106 106" overflow="visible" version="1.1" viewBox="0 0 106 106" xml:space="preserve"><g><g><linearGradient id="XMLID_12_" x1="19.422" x2="95.55" y1="16.9" y2="100.928" gradientUnits="userSpaceOnUse"><stop offset="0" style="stop-color:#6295d6"/><stop offset="1" style="stop-color:#355787"/></linearGradient><path fill="url(#XMLID_12_)" d="M22.152,15.74c-4.182,0-7.584,3.403-7.584,7.585v60.676c0,4.182,3.402,7.584,7.584,7.584h55.623 l13.113-13.113V23.325c0-4.182-3.402-7.585-7.585-7.585H22.152z"/><path fill="#355787" d="M83.303,15.266H22.152c-4.443,0-8.058,3.615-8.058,8.059v60.678c0,4.441,3.615,8.057,8.058,8.057h55.426 h0.394l0.276-0.277l12.836-12.836l0.278-0.277v-0.393V23.325C91.362,18.881,87.747,15.266,83.303,15.266L83.303,15.266z M15.042,23.325c0-3.927,3.183-7.111,7.11-7.111h61.151c3.928,0,7.11,3.184,7.11,7.111v54.952l0,0l0,0L77.578,91.112H22.152 c-3.927,0-7.11-3.182-7.11-7.109V23.325L15.042,23.325L15.042,23.325z"/></g><g><linearGradient id="XMLID_13_" x1="19.731" x2="95.101" y1="17.242" y2="100.433" gradientUnits="userSpaceOnUse"><stop offset="0" style="stop-color:#6295d6"/><stop offset="1" style="stop-color:#355787"/></linearGradient><path fill="url(#XMLID_13_)" d="M90.415,78.276V23.325c0-3.927-3.184-7.111-7.111-7.111H22.152c-3.927,0-7.11,3.184-7.11,7.111 v60.676c0,3.928,3.184,7.111,7.11,7.111h55.426L90.415,78.276z"/></g><linearGradient id="XMLID_14_" x1="75.604" x2="30.611" y1="89.907" y2="68.561" gradientUnits="userSpaceOnUse"><stop offset="0" style="stop-color:#6295d6"/><stop offset="1" style="stop-color:#355787"/></linearGradient><path fill="url(#XMLID_14_)" d="M75.746,90.31c-4.511,0-22.051,0-46.035,0V69.298c0-1.309,1.061-2.371,2.371-2.371h41.294 c1.309,0,2.37,1.063,2.37,2.371V90.31z"/><linearGradient id="XMLID_15_" x1="35.631" x2="77.979" y1="68.894" y2="96.073" gradientUnits="userSpaceOnUse"><stop offset="0" style="stop-color:#fff"/><stop offset="1" style="stop-color:#7c7c7c"/></linearGradient><path fill="url(#XMLID_15_)" d="M74.797,90.784c-4.511,0-20.153,0-44.138,0V70.247c0-1.311,1.061-2.371,2.37-2.371h39.398 c1.31,0,2.37,1.061,2.37,2.371V90.784z"/><linearGradient id="XMLID_16_" x1="53.682" x2="29.651" y1="31.86" y2="59.924" gradientUnits="userSpaceOnUse"><stop offset="0" style="stop-color:#6295d6"/><stop offset="1" style="stop-color:#355787"/></linearGradient><path fill="url(#XMLID_16_)" d="M81.012,47.778c0,1.309-1.062,2.37-2.37,2.37H26.814c-1.309,0-2.37-1.061-2.37-2.37v-30.48 c15.979,0,47.028,0,56.568,0V47.778z"/><linearGradient id="XMLID_17_" x1="28.395" x2="80.185" y1="16.249" y2="50.262" gradientUnits="userSpaceOnUse"><stop offset="0" style="stop-color:#fff"/><stop offset="1" style="stop-color:#7c7c7c"/></linearGradient><path fill="url(#XMLID_17_)" d="M80.064,46.83c0,1.309-1.061,2.371-2.37,2.371H27.762c-1.309,0-2.37-1.062-2.37-2.371V16.35 c15.979,0,45.132,0,54.672,0V46.83z"/><linearGradient id="XMLID_18_" x1="39.101" x2="46.151" y1="77.103" y2="86.268" gradientUnits="userSpaceOnUse"><stop offset="0" style="stop-color:#27447d"/><stop offset="1" style="stop-color:#1c2958"/></linearGradient><path fill="url(#XMLID_18_)" stroke="#1E2D5E" stroke-width=".711" d="M48.531,86.054c0,1.309-1.061,2.371-2.37,2.371h-6.686 c-1.31,0-2.371-1.063-2.371-2.371v-8.24c0-1.309,1.061-2.369,2.371-2.369h6.686c1.31,0,2.37,1.061,2.37,2.369V86.054z"/><linearGradient id="XMLID_19_" x1="33.4" x2="76.064" y1="21.5" y2="47.73" gradientUnits="userSpaceOnUse"><stop offset="0" style="stop-color:#a1c1ea"/><stop offset="1" style="stop-color:#6295d6"/></linearGradient><path fill="url(#XMLID_19_)" stroke="#EAEAEA" stroke-width=".474" d="M77.625,34.022c0,1.309-1.061,2.37-2.37,2.37H30.201 c-1.31,0-2.371-1.061-2.371-2.37v-1.278c0-1.309,1.061-2.37,2.371-2.37h45.053c1.31,0,2.37,1.062,2.37,2.37V34.022z"/><linearGradient id="XMLID_20_" x1="37.389" x2="80.053" y1="15.013" y2="41.244" gradientUnits="userSpaceOnUse"><stop offset="0" style="stop-color:#a1c1ea"/><stop offset="1" style="stop-color:#6295d6"/></linearGradient><path fill="url(#XMLID_20_)" stroke="#EAEAEA" stroke-width=".474" d="M77.625,25.083c0,1.309-1.061,2.37-2.37,2.37H30.201 c-1.31,0-2.371-1.061-2.371-2.37v-1.278c0-1.309,1.061-2.371,2.371-2.371h45.053c1.31,0,2.37,1.062,2.37,2.371V25.083z"/><linearGradient id="XMLID_21_" x1="29.412" x2="72.077" y1="27.987" y2="54.218" gradientUnits="userSpaceOnUse"><stop offset="0" style="stop-color:#a1c1ea"/><stop offset="1" style="stop-color:#6295d6"/></linearGradient><path fill="url(#XMLID_21_)" stroke="#EAEAEA" stroke-width=".474" d="M77.625,42.961c0,1.31-1.061,2.371-2.37,2.371H30.201 c-1.31,0-2.371-1.061-2.371-2.371v-1.279c0-1.309,1.061-2.37,2.371-2.37h45.053c1.31,0,2.37,1.061,2.37,2.37V42.961z"/><path fill="#D2EFF9" d="M25.787,16.214c0,0-9.837-1.877-10.745,7.111c0,6.004,0,60.676,0,60.676 s-0.04,3.742,2.69,5.568c0,0-1.367-2.053-1.367-5.549c0-2.488,0-60.795,0-60.795S16.187,16.944,25.787,16.214z" opacity=".6"/><linearGradient id="XMLID_22_" x1="75.027" x2="90.415" y1="54.55" y2="54.55" gradientUnits="userSpaceOnUse"><stop offset="0" style="stop-color:#27447d"/><stop offset="1" style="stop-color:#1c2958"/></linearGradient><path fill="url(#XMLID_22_)" d="M88,17.988c0,0,0.774,2.414,0.774,5.337c0,2.922,0,54.12,0,54.12L76.686,90.005 l-1.659,1.107h2.552l12.836-12.836V23.325C90.415,23.325,90.475,20.463,88,17.988z" opacity=".3"/></g></svg>