<svg xmlns="http://www.w3.org/2000/svg" xmlns:xlink="http://www.w3.org/1999/xlink" id="Layer_1" width="100.002" height="100.001" enable-background="new 0 0 100.002 100.001" overflow="visible" version="1.1" viewBox="0 0 100.002 100.001" xml:space="preserve"><g><linearGradient id="XMLID_13_" x1="49.696" x2="49.696" y1="102.935" y2="-23.74" gradientUnits="userSpaceOnUse"><stop offset="0" style="stop-color:#e6e6e6"/><stop offset="1" style="stop-color:#979797"/></linearGradient><path fill="url(#XMLID_13_)" stroke="#727272" stroke-width="1.5" d="M49.596,93.764c0,0,24.393-15.213,30.266-21.087 c5.874-5.874,5.751-14.196,5.751-14.196V11.858l-35.61-5.621h-0.611l-35.61,5.621v46.623c0,0-0.122,8.322,5.751,14.196 C25.405,78.551,49.596,93.764,49.596,93.764L49.596,93.764z"/><linearGradient id="XMLID_14_" x1="47.643" x2="55.143" y1="5.387" y2="90.054" gradientUnits="userSpaceOnUse"><stop offset="0" style="stop-color:#e6e6e6"/><stop offset="1" style="stop-color:#979797"/></linearGradient><path fill="url(#XMLID_14_)" stroke="#727272" stroke-width="1.5" d="M50.206,93.764c0,0,24.393-15.213,30.267-21.087 s5.75-14.196,5.75-14.196V11.858l-35.61-5.621h-0.61l-35.611,5.621v46.623c0,0-0.122,8.322,5.752,14.196 S50.206,93.764,50.206,93.764L50.206,93.764z"/><path fill="#FFF" d="M86.223,58.481V11.858l-35.61-5.621h-0.61l-35.611,5.621v3.049l35.372-5.583h0.607 l35.372,5.583v46.311c0,0,0.009,0.719-0.125,1.877C86.25,60.424,86.223,58.481,86.223,58.481z M14.391,58.559v-0.078 C14.391,58.481,14.391,58.51,14.391,58.559z" opacity=".07"/><linearGradient id="XMLID_15_" x1="50.196" x2="50.196" y1="9.111" y2="103.724" gradientUnits="userSpaceOnUse"><stop offset="0" style="stop-color:#e6e6e6"/><stop offset="1" style="stop-color:#979797"/></linearGradient><linearGradient id="XMLID_16_" x1="47.391" x2="51.224" y1="84.377" y2="9.71" gradientUnits="userSpaceOnUse"><stop offset="0" style="stop-color:#e6e6e6"/><stop offset="1" style="stop-color:#979797"/></linearGradient><path fill="url(#XMLID_16_)" d="M22.801,20.697c0,5.524,0,37.464,0,37.464c0,0.047,0.075,5.364,3.546,8.836 c3.074,3.073,14.02,10.48,23.271,16.42c8.45-5.381,19.324-12.314,23.429-16.42c3.465-3.466,3.545-8.771,3.546-8.822 c0,0,0-31.954,0-37.478c-5.072-0.8-26.083-4.118-26.896-4.245C48.884,16.579,27.872,19.896,22.801,20.697z"/><linearGradient id="XMLID_17_" x1="56.16" x2="43.16" y1="15.673" y2="64.672" gradientUnits="userSpaceOnUse"><stop offset="0" style="stop-color:#6294d5"/><stop offset="1" style="stop-color:#4972a9"/></linearGradient><path fill="url(#XMLID_17_)" d="M24.013,21.291c0,1.546,0,36.284,0,36.284c0.001,0.039,0.104,4.949,3.234,8.08 c2.91,2.909,13.365,10.004,22.373,15.801c9.083-5.798,19.618-12.894,22.525-15.801c3.126-3.126,3.233-8.029,3.233-8.078 c0,0,0-34.74,0-36.286c-1.49-0.235-25.417-4.011-25.683-4.054C49.413,17.282,25.506,21.055,24.013,21.291z"/><defs><filter id="Adobe_OpacityMaskFilter" width="51.366" height="64.219" x="24.013" y="17.236" filterUnits="userSpaceOnUse"><feColorMatrix type="matrix" values="1 0 0 0 0 0 1 0 0 0 0 0 1 0 0 0 0 0 1 0"/></filter></defs><mask id="XMLID_18_" width="51.366" height="64.219" x="24.013" y="17.236" maskUnits="userSpaceOnUse"><g filter="url(#Adobe_OpacityMaskFilter)"><linearGradient id="XMLID_19_" x1="122.769" x2="117.407" y1="93.82" y2="120.947" gradientTransform="matrix(0.9967 -0.0812 0.0812 0.9967 -79.812 -63.9679)" gradientUnits="userSpaceOnUse"><stop offset="0" style="stop-color:#fff"/><stop offset="1" style="stop-color:#000"/></linearGradient><path fill="url(#XMLID_19_)" d="M-0.665,17.417c0,0,0.254,0.381,0.739,1.067c4.032,5.699,24.049,32.44,47.26,36.482 c26.003,4.528,54.627-32.615,54.627-32.615L91.687-2.764L27.037-3.828L-1.831,18.639"/></g></mask><path fill="#FFF" d="M24.013,21.291c0,1.546,0,36.284,0,36.284 c0.001,0.039,0.104,4.949,3.234,8.08c2.91,2.909,13.365,10.004,22.373,15.801c9.083-5.798,19.618-12.894,22.525-15.801 c3.126-3.126,3.233-8.029,3.233-8.078c0,0,0-34.74,0-36.286c-1.49-0.235-25.417-4.011-25.683-4.054 C49.413,17.282,25.506,21.055,24.013,21.291z" mask="url(#XMLID_18_)" opacity=".3"/><radialGradient id="XMLID_20_" cx="53.746" cy="50.505" r="45.443" gradientUnits="userSpaceOnUse"><stop offset="0" style="stop-color:#fff254"/><stop offset="1" style="stop-color:#f9bc21"/></radialGradient><linearGradient id="XMLID_21_" x1="46.304" x2="61.304" y1="12.93" y2="48.43" gradientUnits="userSpaceOnUse"><stop offset="0" style="stop-color:#6294d5"/><stop offset=".337" style="stop-color:#6092d2"/><stop offset=".607" style="stop-color:#5a8ac8"/><stop offset=".853" style="stop-color:#517db7"/><stop offset="1" style="stop-color:#4972a9"/></linearGradient><path fill="url(#XMLID_21_)" d="M72.146,65.655c3.126-3.126,3.233-8.029,3.233-8.078c0,0,0-34.74,0-36.286 c-1.49-0.235-25.417-4.011-25.683-4.054v64.172C58.762,75.62,69.245,68.553,72.146,65.655z"/><defs><filter id="Adobe_OpacityMaskFilter_1_" width="51.366" height="64.219" x="24.013" y="17.236" filterUnits="userSpaceOnUse"><feColorMatrix type="matrix" values="1 0 0 0 0 0 1 0 0 0 0 0 1 0 0 0 0 0 1 0"/></filter></defs><mask id="XMLID_22_" width="51.366" height="64.219" x="24.013" y="17.236" maskUnits="userSpaceOnUse"><g filter="url(#Adobe_OpacityMaskFilter_1_)"><linearGradient id="XMLID_1_" x1="63.795" x2="26.057" y1="56.716" y2="3.344" gradientUnits="userSpaceOnUse"><stop offset="0" style="stop-color:#fff"/><stop offset="1" style="stop-color:#000"/></linearGradient><path fill="url(#XMLID_1_)" d="M17.98,54.384c0,0,14.767-29.651,60.381-20.217c1.617-9.435,1.078-17.79,1.078-17.79 l-31.808-4.044l-30.19,5.931L17.98,54.384z"/></g></mask><linearGradient id="XMLID_2_" x1="49.544" x2="25.424" y1="33.71" y2="14.415" gradientUnits="userSpaceOnUse"><stop offset="0" style="stop-color:#f25353"/><stop offset=".238" style="stop-color:#e94444"/><stop offset=".693" style="stop-color:#d11e1e"/><stop offset="1" style="stop-color:#be0000"/></linearGradient></g></svg>