<svg xmlns="http://www.w3.org/2000/svg" xmlns:xlink="http://www.w3.org/1999/xlink" id="Layer_1" width="100.002" height="100.001" enable-background="new 0 0 100.002 100.001" overflow="visible" version="1.1" viewBox="0 0 100.002 100.001" xml:space="preserve"><g><g><linearGradient id="XMLID_11_" x1="49.389" x2="49.389" y1="102.794" y2="-23.881" gradientUnits="userSpaceOnUse"><stop offset="0" style="stop-color:#e6e6e6"/><stop offset="1" style="stop-color:#979797"/></linearGradient><path fill="url(#XMLID_11_)" stroke="#727272" stroke-width="1.5" d="M49.289,93.623c0,0,24.393-15.213,30.266-21.087 c5.873-5.874,5.75-14.196,5.75-14.196V11.717l-35.61-5.621h-0.611l-35.61,5.621V58.34c0,0-0.122,8.322,5.751,14.196 C25.099,78.41,49.289,93.623,49.289,93.623L49.289,93.623z"/><linearGradient id="XMLID_12_" x1="47.337" x2="54.837" y1="5.247" y2="89.913" gradientUnits="userSpaceOnUse"><stop offset="0" style="stop-color:#e6e6e6"/><stop offset="1" style="stop-color:#979797"/></linearGradient><path fill="url(#XMLID_12_)" stroke="#727272" stroke-width="1.5" d="M49.9,93.623c0,0,24.392-15.213,30.266-21.087 c5.874-5.874,5.751-14.196,5.751-14.196V11.717L50.306,6.096h-0.61l-35.611,5.621V58.34c0,0-0.122,8.322,5.752,14.196 S49.9,93.623,49.9,93.623L49.9,93.623z"/><path fill="#FFF" d="M85.917,58.34V11.717L50.306,6.096h-0.61l-35.611,5.621v3.049l35.373-5.584h0.607 l35.372,5.584v46.311c0,0,0.009,0.719-0.124,1.877C85.944,60.283,85.917,58.34,85.917,58.34z M14.084,58.418V58.34 C14.084,58.34,14.084,58.369,14.084,58.418z" opacity=".07"/><linearGradient id="XMLID_13_" x1="49.89" x2="49.89" y1="8.969" y2="103.582" gradientUnits="userSpaceOnUse"><stop offset="0" style="stop-color:#e6e6e6"/><stop offset="1" style="stop-color:#979797"/></linearGradient><linearGradient id="XMLID_14_" x1="47.084" x2="50.918" y1="84.235" y2="9.568" gradientUnits="userSpaceOnUse"><stop offset="0" style="stop-color:#e6e6e6"/><stop offset="1" style="stop-color:#979797"/></linearGradient><path fill="url(#XMLID_14_)" d="M22.494,20.555c0,5.524,0,37.465,0,37.465c0,0.047,0.075,5.364,3.546,8.836 c3.074,3.073,14.02,10.48,23.27,16.42c8.45-5.381,19.324-12.314,23.429-16.42c3.465-3.466,3.545-8.771,3.546-8.822 c0,0,0-31.954,0-37.479c-5.072-0.8-26.083-4.117-26.896-4.244C48.577,16.438,27.566,19.755,22.494,20.555z"/><linearGradient id="XMLID_15_" x1="16.012" x2="104.012" y1="49.205" y2="49.205" gradientUnits="userSpaceOnUse"><stop offset="0" style="stop-color:#f9cf38"/><stop offset=".198" style="stop-color:#f9c431"/><stop offset=".548" style="stop-color:#f9a61e"/><stop offset="1" style="stop-color:#f97700"/></linearGradient><path fill="url(#XMLID_15_)" d="M23.706,21.148c0,1.547,0,36.285,0,36.285c0.001,0.039,0.104,4.949,3.235,8.08 c2.91,2.909,13.365,10.004,22.373,15.801c9.083-5.798,19.618-12.894,22.526-15.801c3.125-3.126,3.233-8.029,3.233-8.078 c0,0,0-34.74,0-36.287c-1.49-0.234-25.417-4.011-25.683-4.054C49.106,17.141,25.199,20.913,23.706,21.148z"/><linearGradient id="XMLID_16_" x1="40.512" x2="80.512" y1="49.182" y2="49.182" gradientUnits="userSpaceOnUse"><stop offset="0" style="stop-color:#f9cf38"/><stop offset=".198" style="stop-color:#f9c431"/><stop offset=".548" style="stop-color:#f9a61e"/><stop offset="1" style="stop-color:#f97700"/></linearGradient><path fill="url(#XMLID_16_)" d="M71.839,65.514c3.125-3.126,3.233-8.029,3.233-8.078c0,0,0-34.74,0-36.287 c-1.49-0.234-25.417-4.011-25.683-4.054v64.173C58.456,75.479,68.939,68.412,71.839,65.514z"/><radialGradient id="XMLID_17_" cx="53.44" cy="50.364" r="45.443" gradientUnits="userSpaceOnUse"><stop offset="0" style="stop-color:#fff254"/><stop offset="1" style="stop-color:#f9bc21"/></radialGradient><defs><filter id="Adobe_OpacityMaskFilter" width="51.366" height="64.22" x="23.706" y="17.095" filterUnits="userSpaceOnUse"><feColorMatrix type="matrix" values="1 0 0 0 0 0 1 0 0 0 0 0 1 0 0 0 0 0 1 0"/></filter></defs><mask id="XMLID_18_" width="51.366" height="64.22" x="23.706" y="17.095" maskUnits="userSpaceOnUse"><g filter="url(#Adobe_OpacityMaskFilter)"><linearGradient id="XMLID_19_" x1="63.488" x2="25.751" y1="56.574" y2="3.203" gradientUnits="userSpaceOnUse"><stop offset="0" style="stop-color:#fff"/><stop offset="1" style="stop-color:#000"/></linearGradient><path fill="url(#XMLID_19_)" d="M17.674,54.243c0,0,14.767-29.651,60.381-20.217c1.618-9.435,1.078-17.79,1.078-17.79 l-31.808-4.045l-30.19,5.931L17.674,54.243z"/></g></mask><linearGradient id="XMLID_20_" x1="49.237" x2="25.116" y1="33.569" y2="14.273" gradientUnits="userSpaceOnUse"><stop offset="0" style="stop-color:#f25353"/><stop offset=".238" style="stop-color:#e94444"/><stop offset=".693" style="stop-color:#d11e1e"/><stop offset="1" style="stop-color:#be0000"/></linearGradient></g><polygon fill="#FFF" points="23.706 44.772 23.706 49.279 49.39 60.477 75.072 49.191 75.072 44.342 49.308 55.311" opacity=".58"/><polygon fill="#FFF" points="23.644 34.705 23.644 39.211 49.327 50.408 75.01 39.123 75.01 34.274 49.246 45.243" opacity=".7"/></g></svg>