<svg xmlns="http://www.w3.org/2000/svg" xmlns:xlink="http://www.w3.org/1999/xlink" id="Layer_1" width="106" height="106" enable-background="new 0 0 106 106" overflow="visible" version="1.1" viewBox="0 0 106 106" xml:space="preserve"><g><g><g><g><polygon fill="#82ABE0" points="41.794 17.35 45.822 67.344 56.881 67.344 67.284 17.35"/><path fill="#D85700" d="M67.898,16.851h-1.229H42.335h-1.083l0.087,1.08l3.945,48.994l0.074,0.92h0.924h10.192h0.813 l0.166-0.796l10.194-48.994L67.898,16.851L67.898,16.851z M42.335,17.851h24.334l0,0l0,0L56.475,66.845H46.283L42.335,17.851 L42.335,17.851L42.335,17.851z"/></g></g><g><g><path fill="#82ABE0" d="M42.126,80.731c0,5.06,4.116,9.176,9.176,9.176s9.176-4.116,9.176-9.176s-4.116-9.176-9.176-9.176 S42.126,75.672,42.126,80.731z"/><path fill="#D85700" d="M51.302,71.057c-5.336,0-9.676,4.34-9.676,9.675s4.34,9.676,9.676,9.676 c5.335,0,9.676-4.341,9.676-9.676S56.637,71.057,51.302,71.057L51.302,71.057z M42.626,80.731c0-4.791,3.885-8.675,8.676-8.675 s8.676,3.884,8.676,8.675l0,0l0,0c0,4.791-3.885,8.676-8.676,8.676S42.626,85.522,42.626,80.731L42.626,80.731L42.626,80.731z"/></g></g></g><g><g><linearGradient id="XMLID_7_" x1="43.155" x2="64.244" y1="25.439" y2="52.206" gradientUnits="userSpaceOnUse"><stop offset="0" style="stop-color:#ffc10e"/><stop offset="1" style="stop-color:#f16422"/></linearGradient><polygon fill="url(#XMLID_7_)" points="42.336 17.85 66.669 17.85 56.475 66.844 46.283 66.844"/></g><g><linearGradient id="XMLID_8_" x1="43.528" x2="54.151" y1="70.221" y2="84.582" gradientUnits="userSpaceOnUse"><stop offset="0" style="stop-color:#ffc10e"/><stop offset="1" style="stop-color:#f16422"/></linearGradient><circle cx="51.302" cy="80.731" r="8.676" fill="url(#XMLID_8_)"/></g></g><defs><filter id="Adobe_OpacityMaskFilter" width="24.334" height="71.557" x="42.335" y="17.851" filterUnits="userSpaceOnUse"><feColorMatrix type="matrix" values="1 0 0 0 0 0 1 0 0 0 0 0 1 0 0 0 0 0 1 0"/></filter></defs><mask id="XMLID_9_" width="24.334" height="71.557" x="42.335" y="17.851" maskUnits="userSpaceOnUse"><g filter="url(#Adobe_OpacityMaskFilter)"><linearGradient id="XMLID_10_" x1="40.388" x2="59.13" y1="2.645" y2="29.773" gradientUnits="userSpaceOnUse"><stop offset="0" style="stop-color:#fff"/><stop offset="1" style="stop-color:#000"/></linearGradient><path fill="url(#XMLID_10_)" d="M17.35,40.631c0,0,34.28,13.811,76.328-32.184C78.635-1.417,59.275-2.28,59.275-2.28 L41.202,0.142L24.592,15.749L17.35,40.631z"/><path fill="url(#XMLID_10_)" d="M17.35,40.631c0,0,34.28,13.811,76.328-32.184C78.635-1.417,59.275-2.28,59.275-2.28 L41.202,0.142L24.592,15.749L17.35,40.631z"/><linearGradient id="XMLID_12_" x1="41.533" x2="49.134" y1="69.67" y2="80.672" gradientUnits="userSpaceOnUse"><stop offset="0" style="stop-color:#fff"/><stop offset="1" style="stop-color:#000"/></linearGradient><path fill="url(#XMLID_12_)" d="M32.19,85.075c0,0,13.902,5.602,30.955-13.052c-6.102-4.001-13.952-4.351-13.952-4.351 l-7.33,0.981l-6.736,6.33L32.19,85.075z"/></g></mask></g></svg>