<svg xmlns="http://www.w3.org/2000/svg" xmlns:xlink="http://www.w3.org/1999/xlink" id="Layer_1" width="106" height="106" enable-background="new 0 0 106 106" overflow="visible" version="1.1" viewBox="0 0 106 106" xml:space="preserve"><g><g><g><path fill="#82ABE0" d="M27.239,18.464c-3.725,0-6.756,3.031-6.756,6.757v53.803c0,3.727,3.031,6.758,6.756,6.758h53.805 c3.726,0,6.756-3.031,6.756-6.758V25.221c0-3.726-3.03-6.757-6.756-6.757H27.239z"/><path fill="#22930A" d="M81.043,17.964H27.238c-4.001,0-7.256,3.255-7.256,7.257v53.802c0,4.002,3.255,7.258,7.256,7.258h53.806 c4.001,0,7.256-3.256,7.256-7.258V25.222C88.299,21.22,85.044,17.964,81.043,17.964L81.043,17.964z M20.982,25.222 c0-3.455,2.801-6.257,6.256-6.257h53.806c3.454,0,6.256,2.802,6.256,6.257v53.802l0,0l0,0c0,3.457-2.802,6.258-6.256,6.258 H27.238c-3.455,0-6.256-2.801-6.256-6.258V25.222L20.982,25.222L20.982,25.222z"/></g></g><g><linearGradient id="XMLID_6_" x1="22.145" x2="78.977" y1="14.762" y2="81.123" gradientUnits="userSpaceOnUse"><stop offset="0" style="stop-color:#2fd452"/><stop offset="1" style="stop-color:#0a823a"/></linearGradient><path fill="url(#XMLID_6_)" d="M27.239,19.464c-3.174,0-5.756,2.583-5.756,5.757v53.803c0,3.175,2.582,5.758,5.756,5.758h53.805 c3.174,0,5.756-2.583,5.756-5.758V25.221c0-3.174-2.582-5.757-5.756-5.757H27.239z"/><g><path fill="#C3FCBE" d="M81.043,18.964H27.238c-3.455,0-6.256,2.802-6.256,6.257v53.802c0,3.457,2.801,6.258,6.256,6.258h53.806 c3.454,0,6.256-2.801,6.256-6.258V25.222C87.299,21.767,84.498,18.964,81.043,18.964L81.043,18.964z M27.238,84.281 c-2.898,0-5.256-2.358-5.256-5.258V25.222c0-2.899,2.358-5.257,5.256-5.257h53.806c2.897,0,5.256,2.358,5.256,5.257v53.802 c0,2.899-2.358,5.258-5.256,5.258H27.238L27.238,84.281z"/></g></g><linearGradient id="XMLID_7_" x1="64.306" x2="43.344" y1="41.965" y2="59.475" gradientUnits="userSpaceOnUse"><stop offset="0" style="stop-color:#2fd452"/><stop offset="1" style="stop-color:#0a823a"/></linearGradient><g><linearGradient id="XMLID_8_" x1="55.55" x2="54.55" y1="-7.279" y2="30.971" gradientUnits="userSpaceOnUse"><stop offset="0" style="stop-color:#2fd452"/><stop offset="1" style="stop-color:#0a823a"/></linearGradient><polygon fill="url(#XMLID_8_)" points="80.373 44.666 80.376 42.66 71.224 35.518 49.423 57.319 37.128 45.024 27.813 52.319 27.979 54.173 49.386 75.578 49.423 75.541 49.46 75.578"/><polygon fill="#FFF" points="80.373 42.666 71.224 33.518 49.423 55.319 37.128 43.024 27.979 52.173 49.386 73.578 49.423 73.541 49.46 73.578"/></g><defs><filter id="Adobe_OpacityMaskFilter" width="66.316" height="66.316" x="21.561" y="19.458" filterUnits="userSpaceOnUse"><feColorMatrix type="matrix" values="1 0 0 0 0 0 1 0 0 0 0 0 1 0 0 0 0 0 1 0"/></filter></defs><mask id="XMLID_9_" width="66.316" height="66.316" x="21.561" y="19.458" maskUnits="userSpaceOnUse"><g filter="url(#Adobe_OpacityMaskFilter)"><linearGradient id="XMLID_10_" x1="27.073" x2="52.157" y1="7.835" y2="44.14" gradientUnits="userSpaceOnUse"><stop offset="0" style="stop-color:#fff"/><stop offset="1" style="stop-color:#000"/></linearGradient><path fill="url(#XMLID_10_)" d="M9.118,59.715c0,0,39.623,8.467,81.672-37.527c-15.045-9.865-38.432-11.467-38.432-11.467 l-28.936-2.96L12.93,31.403L9.118,59.715z"/></g></mask><g mask="url(#XMLID_9_)" opacity=".8"><path fill="#FFF" d="M27.817,19.957c-3.174,0-5.756,2.583-5.756,5.757v53.804c0,3.174,2.582,5.756,5.756,5.756h53.805 c3.174,0,5.756-2.582,5.756-5.756V25.714c0-3.174-2.582-5.757-5.756-5.757H27.817z"/><g><path fill="#CFFCAE" d="M81.621,19.458H27.816c-3.455,0-6.255,2.801-6.255,6.257v53.804c0,3.455,2.8,6.255,6.255,6.255h53.805 c3.455,0,6.257-2.8,6.257-6.255V25.714C87.877,22.258,85.076,19.458,81.621,19.458L81.621,19.458z M27.816,84.773 c-2.898,0-5.255-2.356-5.255-5.255V25.714c0-2.899,2.357-5.257,5.255-5.257h53.805c2.898,0,5.257,2.358,5.257,5.257v53.804 c0,2.898-2.358,5.255-5.257,5.255H27.816L27.816,84.773z"/></g></g></g></svg>