<svg xmlns="http://www.w3.org/2000/svg" xmlns:xlink="http://www.w3.org/1999/xlink" id="Layer_1" width="106" height="106" enable-background="new 0 0 106 106" overflow="visible" version="1.1" viewBox="0 0 106 106" xml:space="preserve"><g><g><g><g><polygon fill="#82ABE0" points="41.544 16.6 45.572 66.594 56.631 66.594 67.034 16.6"/><path fill="#BD0000" d="M67.648,16.101h-1.229H42.085h-1.083l0.087,1.08l3.946,48.994l0.074,0.92h0.924h10.192h0.813 l0.166-0.796l10.194-48.994L67.648,16.101L67.648,16.101z M42.085,17.101h24.334l0,0l0,0L56.225,66.095H46.033L42.085,17.101 L42.085,17.101L42.085,17.101z"/></g></g><g><g><path fill="#82ABE0" d="M41.876,79.981c0,5.06,4.116,9.176,9.176,9.176s9.176-4.116,9.176-9.176s-4.116-9.176-9.176-9.176 S41.876,74.922,41.876,79.981z"/><path fill="#BD0000" d="M51.052,70.307c-5.336,0-9.676,4.34-9.676,9.675s4.34,9.676,9.676,9.676 c5.335,0,9.676-4.341,9.676-9.676S56.387,70.307,51.052,70.307L51.052,70.307z M42.376,79.981c0-4.791,3.885-8.675,8.676-8.675 s8.676,3.884,8.676,8.675l0,0l0,0c0,4.791-3.885,8.676-8.676,8.676S42.376,84.772,42.376,79.981L42.376,79.981L42.376,79.981z"/></g></g></g><g><g><linearGradient id="XMLID_7_" x1="42.905" x2="63.994" y1="24.689" y2="51.456" gradientUnits="userSpaceOnUse"><stop offset="0" style="stop-color:#ff5f06"/><stop offset=".106" style="stop-color:#f95507"/><stop offset="1" style="stop-color:#cb0212"/></linearGradient><polygon fill="url(#XMLID_7_)" points="42.086 17.1 66.419 17.1 56.225 66.094 46.033 66.094"/></g><g><linearGradient id="XMLID_8_" x1="44.389" x2="59.801" y1="71.425" y2="91.217" gradientUnits="userSpaceOnUse"><stop offset="0" style="stop-color:#ff5f06"/><stop offset=".106" style="stop-color:#f95507"/><stop offset="1" style="stop-color:#cb0212"/></linearGradient><circle cx="51.052" cy="79.981" r="8.676" fill="url(#XMLID_8_)"/></g></g><defs><filter id="Adobe_OpacityMaskFilter" width="24.334" height="71.557" x="42.085" y="17.101" filterUnits="userSpaceOnUse"><feColorMatrix type="matrix" values="1 0 0 0 0 0 1 0 0 0 0 0 1 0 0 0 0 0 1 0"/></filter></defs><mask id="XMLID_9_" width="24.334" height="71.557" x="42.085" y="17.101" maskUnits="userSpaceOnUse"><g filter="url(#Adobe_OpacityMaskFilter)"><linearGradient id="XMLID_10_" x1="40.137" x2="58.88" y1="1.895" y2="29.023" gradientUnits="userSpaceOnUse"><stop offset="0" style="stop-color:#fff"/><stop offset="1" style="stop-color:#000"/></linearGradient><path fill="url(#XMLID_10_)" d="M17.1,39.881c0,0,34.28,13.811,76.328-32.184C78.385-2.167,59.025-3.03,59.025-3.03L40.952-0.608 L24.342,14.999L17.1,39.881z"/><path fill="url(#XMLID_10_)" d="M17.1,39.881c0,0,34.28,13.811,76.328-32.184C78.385-2.167,59.025-3.03,59.025-3.03L40.952-0.608 L24.342,14.999L17.1,39.881z"/><linearGradient id="XMLID_12_" x1="41.283" x2="48.884" y1="68.92" y2="79.922" gradientUnits="userSpaceOnUse"><stop offset="0" style="stop-color:#fff"/><stop offset="1" style="stop-color:#000"/></linearGradient><path fill="url(#XMLID_12_)" d="M31.94,84.325c0,0,13.902,5.602,30.955-13.052c-6.102-4.001-13.952-4.351-13.952-4.351 l-7.33,0.981l-6.736,6.33L31.94,84.325z"/></g></mask></g></svg>