<svg xmlns="http://www.w3.org/2000/svg" xmlns:xlink="http://www.w3.org/1999/xlink" id="Layer_1" width="160" height="156" enable-background="new 0 0 160 156" overflow="visible" version="1.1" viewBox="0 0 160 156" xml:space="preserve"><rect width="106" height="106" x="38.191" y="25.223" fill="none" stroke="#000" stroke-width="1.303"/><g><g><g><path fill="#82ABE0" d="M65.123,43.783c-3.726,0-6.757,3.031-6.757,6.757v53.803c0,3.727,3.031,6.758,6.757,6.758h53.803 c3.726,0,6.757-3.031,6.757-6.758V50.54c0-3.726-3.031-6.757-6.757-6.757H65.123z"/><path fill="#BD0000" d="M118.925,43.284H65.122c-4.002,0-7.257,3.255-7.257,7.257v53.805c0,4,3.255,7.256,7.257,7.256h53.803 c4.002,0,7.257-3.256,7.257-7.256V50.541C126.182,46.539,122.927,43.284,118.925,43.284L118.925,43.284z M58.865,50.541 c0-3.455,2.802-6.257,6.257-6.257h53.803c3.457,0,6.257,2.802,6.257,6.257v53.805l0,0l0,0c0,3.455-2.8,6.256-6.257,6.256H65.122 c-3.455,0-6.257-2.801-6.257-6.256V50.541L58.865,50.541L58.865,50.541z"/></g></g><g><linearGradient id="XMLID_6_" x1="60.028" x2="116.861" y1="40.081" y2="106.443" gradientUnits="userSpaceOnUse"><stop offset="0" style="stop-color:#ff5f06"/><stop offset=".106" style="stop-color:#f95507"/><stop offset="1" style="stop-color:#cb0212"/></linearGradient><path fill="url(#XMLID_6_)" d="M65.123,44.783c-3.174,0-5.757,2.583-5.757,5.757v53.803c0,3.176,2.583,5.758,5.757,5.758h53.803 c3.174,0,5.757-2.582,5.757-5.758V50.54c0-3.174-2.583-5.757-5.757-5.757H65.123z"/><g><path fill="#FFCDCC" d="M118.925,44.284H65.122c-3.455,0-6.257,2.802-6.257,6.257v53.805c0,3.455,2.802,6.256,6.257,6.256h53.803 c3.457,0,6.257-2.801,6.257-6.256V50.541C125.182,47.085,122.382,44.284,118.925,44.284L118.925,44.284z M65.122,109.601 c-2.899,0-5.257-2.359-5.257-5.256V50.541c0-2.899,2.358-5.257,5.257-5.257h53.803c2.899,0,5.257,2.358,5.257,5.257v53.805 c0,2.896-2.357,5.256-5.257,5.256H65.122L65.122,109.601z"/></g></g><linearGradient id="XMLID_7_" x1="115.356" x2="111.114" y1="60.935" y2="64.116" gradientUnits="userSpaceOnUse"><stop offset="0" style="stop-color:#ff5f06"/><stop offset=".106" style="stop-color:#f95507"/><stop offset="1" style="stop-color:#cb0212"/></linearGradient><polygon fill="url(#XMLID_7_)" points="112.418 67.478 102.726 57.786 90.997 69.514 79.271 57.786 69.579 67.478 81.306 79.205 69.578 90.933 79.271 100.625 90.997 88.896 102.726 100.625 112.418 90.933 100.689 79.205"/><polygon fill="#FFF" points="113.418 66.478 103.726 56.786 91.998 68.514 80.271 56.786 70.579 66.478 82.306 78.205 70.578 89.933 80.271 99.625 91.998 87.896 103.726 99.625 113.418 89.933 101.689 78.205"/><linearGradient id="XMLID_8_" x1="138.773" x2="96.154" y1="13.373" y2="74.521" gradientUnits="userSpaceOnUse"><stop offset="0" style="stop-color:#ff5f06"/><stop offset=".106" style="stop-color:#f95507"/><stop offset="1" style="stop-color:#cb0212"/></linearGradient><defs><filter id="Adobe_OpacityMaskFilter" width="66.316" height="66.318" x="59.444" y="44.777" filterUnits="userSpaceOnUse"><feColorMatrix type="matrix" values="1 0 0 0 0 0 1 0 0 0 0 0 1 0 0 0 0 0 1 0"/></filter></defs><mask id="XMLID_9_" width="66.316" height="66.318" x="59.444" y="44.777" maskUnits="userSpaceOnUse"><g filter="url(#Adobe_OpacityMaskFilter)"><linearGradient id="XMLID_10_" x1="64.957" x2="90.04" y1="33.155" y2="69.46" gradientUnits="userSpaceOnUse"><stop offset="0" style="stop-color:#fff"/><stop offset="1" style="stop-color:#000"/></linearGradient><path fill="url(#XMLID_10_)" d="M47.001,85.035c0,0,39.623,8.467,81.671-37.528c-15.043-9.865-38.431-11.468-38.431-11.468 L61.305,33.08L50.814,56.723L47.001,85.035z"/></g></mask><g mask="url(#XMLID_9_)" opacity=".7"><path fill="#FFF" d="M65.701,45.276c-3.174,0-5.757,2.583-5.757,5.757v53.804c0,3.174,2.583,5.756,5.757,5.756h53.804 c3.174,0,5.756-2.582,5.756-5.756V51.033c0-3.174-2.582-5.757-5.756-5.757H65.701z"/><g><path fill="#FFCDCC" d="M119.505,44.777H65.701c-3.456,0-6.257,2.802-6.257,6.257v53.804c0,3.455,2.801,6.258,6.257,6.258h53.804 c3.456,0,6.255-2.803,6.255-6.258V51.034C125.76,47.579,122.961,44.777,119.505,44.777L119.505,44.777z M65.701,110.095 c-2.899,0-5.257-2.359-5.257-5.258V51.034c0-2.899,2.358-5.257,5.257-5.257h53.804c2.897,0,5.255,2.358,5.255,5.257v53.804 c0,2.898-2.357,5.258-5.255,5.258H65.701L65.701,110.095z"/></g></g></g></svg>